<svg version="1.1" id="Layer_1" xmlns="http://www.w3.org/2000/svg" xmlns:xlink="http://www.w3.org/1999/xlink" x="0px" y="0px"
	 width="100%" viewBox="0 0 768 560" enable-background="new 0 0 768 560" xml:space="preserve">
<path fill="#b72d2f" opacity="1.000000" stroke="none"
	d="
M293.802185,486.423401
	C264.472687,482.600372 242.801025,467.941620 228.174225,442.871582
	C219.999847,428.860901 216.735016,413.531464 216.740936,397.418854
	C216.750381,371.755066 216.700470,346.091034 216.816849,320.427765
	C216.834122,316.617767 216.345291,314.607056 211.717972,313.921844
	C203.192520,312.659424 197.588440,307.086823 195.757248,298.682892
	C190.022141,272.362854 184.516052,245.991730 179.126755,219.598434
	C177.958954,213.879379 178.282349,207.930023 178.903107,202.155380
	C179.513672,196.475494 182.290146,191.527206 187.443115,188.733307
	C190.994278,186.807907 191.679626,184.234955 191.656296,180.594376
	C191.534561,161.597290 191.581909,142.598953 191.614502,123.601128
	C191.632187,113.289772 196.243423,108.681252 206.535294,108.667915
	C226.199738,108.642433 245.864212,108.652199 265.528687,108.661057
	C277.245483,108.666328 282.082733,113.486130 282.122894,125.408890
	C282.184662,143.739944 282.216553,162.071945 282.078339,180.402161
	C282.049805,184.184387 282.803223,186.799377 286.296173,189.081665
	C292.647003,193.231293 294.868927,199.837479 295.021393,207.223083
	C295.194489,215.609985 293.670624,223.795593 291.929962,231.928635
	C287.197235,254.041779 282.293060,276.118225 277.547974,298.228760
	C275.599182,307.309448 269.877625,312.634796 261.024628,314.000580
	C256.958740,314.627869 256.223633,316.220978 256.235565,319.735535
	C256.328156,347.065491 256.158173,374.396912 256.355957,401.725769
	C256.519470,424.319366 273.576630,442.885986 297.768860,447.318237
	C316.993103,450.840302 339.644806,437.743683 347.511322,418.829102
	C350.404633,411.872284 351.047943,404.713104 351.044434,397.332001
	C351.014191,333.172546 350.882477,269.012543 351.102539,204.853821
	C351.212280,172.860245 363.915985,147.021484 390.819824,128.987000
	C437.874237,97.444992 503.822998,120.799423 520.794556,174.839050
	C523.810974,184.443695 525.284485,194.258194 525.286987,204.306580
	C525.293396,229.970383 525.340454,255.634399 525.230835,281.297729
	C525.213989,285.234344 525.604065,287.418091 530.518982,288.147522
	C539.007568,289.407410 544.554688,295.000549 546.368713,303.470520
	C552.076721,330.122437 557.735779,356.787781 563.001953,383.529053
	C564.145081,389.333862 563.991089,395.531097 562.845276,401.437347
	C561.862244,406.504822 559.102173,410.867310 554.471985,413.345886
	C550.930603,415.241669 550.291626,417.825684 550.317505,421.466095
	C550.453796,440.629639 550.393250,459.794708 550.362244,478.959198
	C550.346741,488.571411 545.601746,493.311981 535.923584,493.329926
	C515.925903,493.367004 495.928040,493.354462 475.930267,493.335052
	C465.212830,493.324646 460.011444,488.259521 459.946259,477.426880
	C459.835938,459.096252 459.792419,440.763275 459.987305,422.434113
	C460.033569,418.079742 459.058014,415.107971 455.227234,412.459290
	C449.182953,408.280090 447.143097,401.752869 447.001740,394.555603
	C446.760101,382.250427 450.172363,370.531586 452.683563,358.672699
	C456.541412,340.454254 460.543701,322.266357 464.396210,304.046814
	C466.405029,294.546661 472.418060,289.255768 481.712006,287.840332
	C485.120972,287.321136 485.719910,285.770538 485.714355,282.907501
	C485.659790,254.744278 486.299713,226.561234 485.432709,198.424164
	C484.796783,177.784348 468.974854,158.452805 443.897339,154.584473
	C424.515381,151.594711 401.989136,164.499390 394.553589,182.992401
	C391.683960,190.129532 390.944794,197.424805 390.949799,204.983994
	C390.991943,268.643524 390.928162,332.303070 390.968567,395.962585
	C390.985352,422.394470 382.671082,445.475891 363.073120,463.627747
	C343.710358,481.561737 320.672699,489.337311 293.802185,486.423401
M378.251892,189.144638
	C384.534271,164.087158 399.981415,147.894897 425.215485,141.958618
	C462.599060,133.164185 499.145081,162.296158 499.311707,200.741165
	C499.429443,227.899399 499.399139,255.058838 499.273346,282.216980
	C499.254639,286.251282 500.420410,287.953674 504.662842,287.755615
	C508.250244,287.588135 511.181488,287.816040 511.141174,282.730225
	C510.910217,253.576050 511.846161,224.377441 510.551147,195.275574
	C508.837402,156.763901 471.706055,121.808144 425.018066,130.017654
	C389.429291,136.275513 364.883514,167.574448 365.107910,203.196136
	C365.514099,267.674805 365.211273,332.157928 365.223511,396.639191
	C365.224701,402.821960 364.804932,408.983673 363.299530,414.963379
	C355.712982,445.098511 326.703125,465.056366 296.293091,461.202423
	C265.479340,457.297302 242.737030,431.441528 242.669968,400.118835
	C242.613602,373.793274 242.673126,347.467499 242.657990,321.141815
	C242.654037,314.281677 242.424057,314.361938 235.645096,314.245850
	C230.136612,314.151520 230.446884,317.803192 230.440735,321.297211
	C230.394943,347.289581 230.274017,373.283325 230.516083,399.273468
	C230.573013,405.385620 231.346786,411.623871 232.770981,417.569336
	C243.762192,463.452850 297.021271,487.332367 338.094543,464.625641
	C363.384155,450.644684 376.603668,428.764648 376.728943,399.825195
	C377.002991,336.511444 376.834869,273.195679 376.771606,209.880798
	C376.764923,203.203537 377.097382,196.578369 378.251892,189.144638
M512.663391,349.487701
	C510.518433,342.818237 512.946838,338.986420 519.756592,338.780060
	C526.183044,338.585358 532.620056,338.738281 539.034790,338.738281
	C538.913025,328.059570 538.145935,327.250671 528.961121,327.240204
	C525.464050,327.236206 521.953369,327.387878 518.473206,327.134369
	C513.949646,326.804901 511.393768,323.806549 511.686127,319.541809
	C511.987762,315.141907 514.695801,313.569794 518.768372,313.601837
	C521.599121,313.624084 524.451111,313.765442 527.255066,313.477722
	C529.460266,313.251465 532.545227,315.048553 533.615784,311.497986
	C534.559814,308.367065 531.755981,303.338898 528.682617,302.010376
	C526.919495,301.248260 525.097900,301.365845 523.276672,301.363800
	C511.451935,301.350647 499.627136,301.344208 487.802429,301.359589
	C479.239777,301.370697 476.645813,304.365875 477.693268,313.605011
	C482.077423,313.605011 486.536896,313.566132 490.995422,313.614868
	C496.519684,313.675232 499.154724,315.766144 499.271271,320.072388
	C499.390259,324.467224 496.460175,327.049194 490.925110,327.192017
	C486.264709,327.312256 481.597443,327.317932 476.936768,327.214874
	C474.517426,327.161407 473.135101,328.189026 472.692719,330.471985
	C472.226898,332.876038 471.886658,335.304443 471.491608,337.721588
	C473.300232,338.985168 474.999695,338.717773 476.616058,338.732330
	C481.778320,338.778748 486.946381,338.640778 492.101593,338.843628
	C495.267517,338.968231 498.042755,340.288330 498.997711,343.629425
	C499.772614,346.340607 499.309692,348.900665 496.946564,350.861420
	C494.865784,352.587921 492.360382,352.784973 489.872040,352.829041
	C484.044617,352.932220 478.214478,352.869598 472.385773,352.916504
	C470.193909,352.934143 467.897095,352.898895 467.355957,355.817108
	C464.908234,369.016205 460.433746,381.899200 461.248993,395.607025
	C461.552185,400.704315 463.218658,402.613403 468.164581,402.753510
	C472.657623,402.880829 477.159210,402.699646 481.652954,402.813934
	C484.659393,402.890381 485.829987,401.611755 485.739685,398.635040
	C485.603394,394.142426 485.637146,389.641571 485.714874,385.146240
	C485.867096,376.341766 491.281860,370.980438 500.166412,370.806366
	C503.662506,370.737823 507.162292,370.735413 510.658295,370.805969
	C519.515137,370.984680 524.932129,376.261810 525.241943,385.128479
	C525.398926,389.620117 525.392395,394.123779 525.268005,398.616699
	C525.186157,401.572540 526.303406,402.904907 529.335327,402.814667
	C533.328857,402.695740 537.329224,402.834839 541.325500,402.779327
	C547.808472,402.689240 549.483093,400.879028 549.688232,394.436676
	C550.113403,381.084259 545.854980,368.522064 543.317932,355.668396
	C542.829041,353.191803 541.211853,352.725494 538.900208,352.786041
	C533.075134,352.938599 527.242188,352.936432 521.415710,352.823242
	C518.445068,352.765533 515.344299,352.758606 512.663391,349.487701
M250.828629,228.512604
	C245.181396,232.707184 238.636154,231.087372 232.426010,231.175552
	C222.204712,231.320724 216.841614,225.762711 216.735840,215.420624
	C216.694962,211.423386 216.624115,207.422791 216.741272,203.428833
	C216.827454,200.490875 215.700836,199.128998 212.664856,199.216660
	C208.670731,199.332016 204.670074,199.197083 200.673187,199.246719
	C194.212280,199.326950 192.532166,201.147324 192.298431,207.611984
	C191.871002,219.434921 195.725082,230.572693 197.550400,242.035172
	C198.410355,247.435425 200.814041,249.618378 206.509979,249.223434
	C212.452698,248.811386 218.493179,248.648987 224.460556,249.561829
	C228.065887,250.113327 230.167786,252.071350 230.341766,255.826965
	C230.526047,259.805054 228.388687,262.151489 224.745453,262.974274
	C222.671768,263.442627 220.441635,263.275635 218.281204,263.291260
	C213.184158,263.328156 208.086655,263.303070 203.019348,263.303070
	C203.015747,273.701965 204.046173,274.787872 213.141830,274.791290
	C215.973465,274.792358 218.806107,274.745605 221.636520,274.804749
	C227.614380,274.929596 230.495438,277.349701 230.329559,282.027039
	C230.170013,286.526062 227.647385,288.244934 221.535370,288.459564
	C217.159470,288.613220 212.642075,287.580444 208.451355,289.361420
	C208.493820,297.982300 211.021164,300.632385 218.988052,300.651215
	C230.647690,300.678772 242.307480,300.677643 253.967133,300.656433
	C262.497711,300.640930 264.969452,297.923004 264.582886,288.836670
	C260.024750,287.944244 255.368408,288.585571 250.753616,288.410187
	C245.454315,288.208740 242.694855,285.933136 242.733215,281.643707
	C242.770416,277.484802 245.672577,274.967194 250.885452,274.822510
	C255.379471,274.697754 259.882843,274.665649 264.375183,274.809204
	C267.501556,274.909119 269.057159,273.356903 269.472870,270.538818
	C269.782196,268.441925 270.492798,266.320923 269.540710,263.278473
	C263.678864,263.278473 257.578339,263.352509 251.480484,263.256470
	C246.016403,263.170441 242.874817,260.618988 242.722351,256.398926
	C242.568954,252.154007 244.911743,249.782043 250.603287,249.422546
	C256.909424,249.024216 263.249725,249.167984 269.575165,249.074890
	C272.008514,249.039078 274.195496,248.869263 274.756134,245.696716
	C276.919495,233.455093 281.100189,221.561539 280.818604,208.898758
	C280.635956,200.684845 279.352142,199.262299 271.261780,199.220062
	C256.290863,199.141907 256.202026,199.142700 256.332825,214.026215
	C256.379913,219.381470 255.884155,224.359314 250.828629,228.512604
M230.448624,161.916687
	C230.595047,176.699600 230.745422,191.482483 230.884293,206.265457
	C230.909225,208.919144 230.587601,211.615280 230.953094,214.217789
	C231.576218,218.654587 235.278900,217.391159 238.075592,217.549164
	C240.718903,217.698502 242.631683,216.864334 242.625854,213.690186
	C242.591736,195.078079 242.605942,176.465866 242.570038,157.853745
	C242.567123,156.337830 242.307022,154.971466 240.417282,154.398438
	C234.368683,152.564285 231.116562,154.671844 230.448624,161.916687
M511.536682,440.995697
	C511.409760,423.378235 511.202454,405.760712 511.225830,388.143433
	C511.230316,384.746582 509.582397,383.973206 506.943390,384.482086
	C504.181000,385.014740 499.449860,382.221558 499.410583,388.031342
	C499.284698,406.650604 499.348511,425.271210 499.355713,443.891296
	C499.356232,445.201416 499.283203,446.541473 500.740326,447.354034
	C505.169434,449.823669 510.754852,447.008331 511.536682,440.995697
M216.739777,167.513489
	C216.730438,164.358780 216.624969,161.200714 216.735336,158.050201
	C216.883591,153.818329 213.911057,154.258652 211.281509,154.336853
	C208.648972,154.415146 205.221603,153.343216 205.244476,157.983017
	C205.282120,165.620514 205.358261,173.259964 205.227173,180.895309
	C205.151123,185.324768 208.094864,184.958008 210.968369,184.942413
	C213.795761,184.927048 216.878204,185.446762 216.734436,180.958145
	C216.601624,176.811905 216.727921,172.657364 216.739777,167.513489
M258.993347,154.369614
	C256.035980,154.605423 256.324249,156.861801 256.314941,158.818680
	C256.280884,165.971542 256.484955,173.130203 256.256744,180.275742
	C256.116211,184.676956 258.546234,185.008469 261.940643,185.017471
	C265.518524,185.026947 268.126709,184.664627 267.924744,180.014236
	C267.665131,174.037048 267.868134,168.039780 267.871063,162.051163
	C267.874878,154.285004 267.874542,154.285004 258.993347,154.369614
M485.707489,435.477509
	C485.702118,430.811768 485.517365,426.137207 485.745209,421.482880
	C485.946167,417.377655 483.682037,416.793732 480.417145,416.941284
	C477.232727,417.085144 473.922791,416.531952 474.100647,421.578918
	C474.341125,428.402008 474.360748,435.250336 474.054291,442.068939
	C473.857819,446.439758 475.329773,447.844299 479.740784,447.836121
	C484.178986,447.827911 486.385284,446.740723 485.744080,441.957947
	C485.502686,440.157471 485.706512,438.297272 485.707489,435.477509
M536.797729,430.511292
	C536.782715,427.185760 536.770569,423.860199 536.751953,420.534698
	C536.728394,416.336823 533.577576,416.951813 531.029297,416.993652
	C528.526917,417.034729 525.302185,416.291138 525.302979,420.536469
	C525.304382,428.351685 525.381714,436.168030 525.271606,443.981720
	C525.211609,448.241241 528.128662,447.739624 530.754517,447.659180
	C533.397949,447.578247 536.819275,448.629211 536.763550,443.975677
	C536.713745,439.819427 536.781677,435.661835 536.797729,430.511292
M499.329834,474.249878
	C499.629150,476.205811 498.451874,478.698608 501.543640,479.584686
	C508.422760,481.556152 511.479187,479.329987 511.576843,472.143127
	C511.601624,470.319702 511.420227,468.477417 511.620300,466.675659
	C512.093628,462.414185 510.106476,461.230194 506.111237,461.328033
	C499.444824,461.491272 499.363129,461.373413 499.337036,467.857574
	C499.329681,469.681274 499.333008,471.505005 499.329834,474.249878
M230.834991,126.332497
	C230.831665,129.998581 230.850449,133.664886 230.815018,137.330673
	C230.799011,138.986267 231.132523,140.109116 233.087143,140.556702
	C240.130386,142.169632 242.611465,140.313889 242.638412,133.151016
	C242.646561,130.984558 242.600693,128.817429 242.640305,126.651711
	C242.685135,124.201523 242.048935,121.892365 239.153015,122.494316
	C236.296921,123.087997 231.715225,119.537117 230.834991,126.332497
M536.570496,477.795532
	C536.642273,473.827637 536.615112,469.854706 536.815247,465.893311
	C536.994995,462.336212 535.247375,461.382355 531.986389,461.360229
	C525.616577,461.317078 525.283203,461.499512 525.266846,467.906219
	C525.259705,470.719482 525.287537,473.532898 525.313354,476.346130
	C525.328125,477.949646 525.672302,479.546143 527.614685,479.528046
	C530.502747,479.501190 533.558105,480.604279 536.570496,477.795532
M485.738281,470.497986
	C485.714752,468.507904 485.702942,466.517578 485.663818,464.527802
	C485.635132,463.068329 485.059967,462.085266 483.542908,461.572327
	C477.405701,459.497162 474.117126,461.748230 474.121002,468.114960
	C474.122314,470.271332 474.303955,472.446106 474.086792,474.580261
	C473.640503,478.966187 475.872833,479.794434 479.718842,479.780975
	C483.640961,479.767273 486.332764,479.182281 485.738251,474.416840
	C485.616058,473.437531 485.730774,472.428650 485.738281,470.497986
M264.166168,122.352417
	C261.539642,123.187988 257.195068,120.164734 256.484589,125.095406
	C255.902130,129.137680 256.066895,133.368881 256.497772,137.453308
	C256.937317,141.620010 260.571167,140.420532 263.179504,140.496048
	C265.454041,140.561905 268.000153,140.761887 267.863556,137.123581
	C267.721069,133.329971 267.828735,129.527161 267.815826,125.728394
	C267.809479,123.854065 267.153076,122.501930 264.166168,122.352417
M216.726547,135.047485
	C216.719223,131.902100 216.717331,128.756683 216.702332,125.611336
	C216.694565,123.980873 216.220520,122.857986 214.347824,122.400612
	C207.660812,120.767418 205.236710,122.562775 205.227158,129.378113
	C205.224136,131.530304 205.372284,133.693604 205.202805,135.832123
	C204.938889,139.162415 206.129868,141.028610 209.659271,140.527634
	C212.674927,140.099625 217.332413,141.947266 216.726547,135.047485
z"/>
</svg>
