<svg version="1.1" id="Layer_1" xmlns="http://www.w3.org/2000/svg" xmlns:xlink="http://www.w3.org/1999/xlink" x="0px" y="0px"
	 width="100%" viewBox="0 0 512 512" enable-background="new 0 0 512 512" xml:space="preserve">
<path fill="#b72d2f" opacity="1.000000" stroke="none"
	d="
M309.344055,422.396942
	C294.323212,432.648224 279.628357,442.741364 264.867249,452.736664
	C256.130676,458.652557 253.087646,458.602509 244.632828,452.471405
	C225.212967,438.388885 204.933929,425.447113 186.448624,410.128204
	C141.793671,373.122284 112.737465,326.587585 101.521912,269.318726
	C98.761711,255.224564 97.535515,241.052948 97.606232,226.697617
	C97.753174,196.865082 97.642532,167.031311 97.656761,137.198059
	C97.661224,127.856895 103.467377,123.350273 112.821770,124.071152
	C153.845367,127.232552 191.996475,119.247765 225.243332,93.657448
	C234.489166,86.540878 241.786453,77.692139 245.778229,66.505341
	C247.435928,61.859715 250.888046,59.288555 255.479965,59.080269
	C259.817535,58.883514 263.675995,60.753239 265.467712,65.197929
	C273.712921,85.651543 290.005585,97.990875 308.733673,107.636765
	C337.522949,122.464638 368.401917,126.573730 400.333923,124.423538
	C410.046844,123.769501 416.344208,129.126740 416.346069,138.685211
	C416.352081,170.018463 416.759766,201.358521 416.241486,232.683197
	C415.632935,269.462646 405.467957,303.898651 387.905518,336.054718
	C368.806793,371.023621 342.432343,399.572327 309.344055,422.396942
M385.960052,277.598846
	C390.177521,261.128754 392.801453,244.461151 392.722961,227.394623
	C392.611084,203.072327 392.697327,178.749130 392.687073,154.426331
	C392.683838,146.759888 392.664948,146.450027 384.962799,146.484772
	C370.244110,146.551147 355.783722,144.660370 341.517639,141.293808
	C309.605591,133.763123 280.689789,120.752289 258.747833,95.251648
	C258.212006,94.628929 257.686523,93.943436 256.264252,94.068810
	C247.384003,104.827576 236.665909,113.988823 224.293900,121.113434
	C194.028519,138.542175 161.306534,146.646851 126.479858,146.320602
	C121.709015,146.275909 120.151497,147.722153 120.192368,152.557114
	C120.396561,176.711578 120.370323,200.869217 120.241425,225.024750
	C120.176514,237.189072 121.091736,249.220230 123.230026,261.205231
	C131.489029,307.496246 153.309647,346.452972 186.590515,379.315582
	C205.933197,398.415131 229.158508,412.360626 250.942719,428.227997
	C253.820770,430.324341 255.862122,430.503113 258.824005,428.409790
	C269.838715,420.625153 280.979919,413.015045 292.180542,405.498749
	C338.615021,374.338440 370.512939,332.505035 385.960052,277.598846
z"/>
<path fill="#b72d2f" opacity="1.000000" stroke="none"
	d="
M253.318832,283.297974
	C273.619812,260.319824 293.707367,237.617950 313.734436,214.862793
	C317.558197,210.518127 323.034729,209.863785 327.398895,213.517715
	C332.102203,217.455582 332.991394,224.880997 328.976501,229.652985
	C321.578003,238.446579 314.016693,247.104904 306.437073,255.744019
	C290.399811,274.023041 274.357849,292.298401 258.214264,310.483368
	C250.904556,318.717346 245.864197,318.649139 238.154388,310.861053
	C224.674423,297.244263 211.131027,283.690155 197.587555,270.136444
	C194.107666,266.653900 192.695709,262.528259 194.128616,257.834076
	C195.453552,253.493607 198.710495,250.969223 203.192108,250.219147
	C207.766922,249.453430 211.184097,251.658813 214.249573,254.728973
	C224.256226,264.750977 234.275620,274.760345 244.318161,284.746399
	C245.587387,286.008484 246.607819,287.634827 248.563446,288.118073
	C250.638275,287.149963 251.554001,285.043610 253.318832,283.297974
z"/>
</svg>
