<svg version="1.1" id="Layer_1" xmlns="http://www.w3.org/2000/svg" xmlns:xlink="http://www.w3.org/1999/xlink" x="0px" y="0px"
	 width="100%" viewBox="0 0 512 512" enable-background="new 0 0 512 512" xml:space="preserve">
<path fill="#FFFFFF" opacity="1.000000" stroke="none" 
	d="
M1.000001,313.000000 
	C1.000000,209.039505 1.000000,105.079025 1.000000,1.059268 
	C171.562302,1.059268 342.124634,1.059268 513.000000,1.059268 
	C513.000000,105.022438 513.000000,209.045181 512.654907,313.372192 
	C510.244415,308.331451 508.599548,302.776398 506.050262,297.673096 
	C471.156342,227.819611 436.174988,158.009674 401.058929,88.267670 
	C398.887909,83.955902 395.992371,79.656288 392.435669,76.462814 
	C382.813965,67.823792 370.985443,64.968178 358.246704,64.977226 
	C290.090546,65.025635 221.934219,64.960144 153.778214,65.079132 
	C148.568726,65.088226 143.183731,65.577583 138.187057,66.955795 
	C124.793617,70.650085 116.207375,80.003448 110.157234,92.146500 
	C82.426559,147.803848 54.555565,203.391373 26.887638,259.079834 
	C18.017357,276.933441 9.615933,295.020020 1.000001,313.000000 
z"/>
<path fill="#B62D2F" opacity="1.000000" stroke="none" 
	d="
M1.000001,313.468658 
	C9.615933,295.020020 18.017357,276.933441 26.887638,259.079834 
	C54.555565,203.391373 82.426559,147.803848 110.157234,92.146500 
	C116.207375,80.003448 124.793617,70.650085 138.187057,66.955795 
	C143.183731,65.577583 148.568726,65.088226 153.778214,65.079132 
	C221.934219,64.960144 290.090546,65.025635 358.246704,64.977226 
	C370.985443,64.968178 382.813965,67.823792 392.435669,76.462814 
	C395.992371,79.656288 398.887909,83.955902 401.058929,88.267670 
	C436.174988,158.009674 471.156342,227.819611 506.050262,297.673096 
	C508.599548,302.776398 510.244415,308.331451 512.654907,313.838257 
	C513.000000,347.354218 513.000000,380.708466 512.659790,414.649414 
	C511.717896,416.957489 511.125122,418.682098 510.512939,420.399780 
	C503.981873,438.724365 486.550415,449.134186 468.310638,449.108917 
	C326.680084,448.912537 185.049072,449.043274 43.418304,448.942596 
	C26.967510,448.930878 14.647826,441.062164 6.409453,426.959991 
	C4.214272,423.202362 2.782349,418.998810 1.000001,415.000000 
	C1.000000,381.312439 1.000000,347.624878 1.000001,313.468658 
M23.154953,411.788361 
	C25.645872,420.128845 30.307295,426.110901 40.458050,427.397644 
	C42.933056,427.598877 45.408024,427.975677 47.883064,427.976166 
	C187.293106,428.004425 326.703156,428.002075 466.113220,427.993958 
	C468.109772,427.993835 470.106293,427.883026 472.835266,427.962341 
	C481.311279,425.451141 488.112701,421.052338 491.250824,411.317627 
	C491.500763,408.847473 491.963257,406.377716 491.968048,403.907074 
	C492.020294,377.013855 492.023071,350.120453 491.957733,323.227295 
	C491.952637,321.125275 491.334961,319.024750 490.952423,316.191528 
	C488.166199,306.664398 481.918182,301.156342 471.429932,299.287109 
	C469.608887,299.191895 467.787811,299.013397 465.966766,299.013245 
	C326.208069,299.000305 186.449387,298.997894 46.690701,299.038025 
	C44.786697,299.038574 42.882851,299.590393 40.226154,300.010315 
	C31.245441,302.349701 24.826729,307.298798 22.591116,317.654205 
	C22.394981,319.126862 22.029589,320.599304 22.027782,322.072205 
	C21.993784,349.800110 21.981951,377.528076 22.047781,405.255859 
	C22.052391,407.197296 22.698423,409.137207 23.154953,411.788361 
M471.811066,276.383179 
	C471.553864,275.959229 471.265045,275.551086 471.044006,275.109070 
	C442.390686,217.806961 413.761230,160.492905 385.047821,103.220947 
	C383.282166,99.699120 381.169495,96.249870 378.670441,93.218498 
	C373.646179,87.124069 366.492126,86.404320 359.200073,86.404335 
	C291.415283,86.404480 223.629883,86.550156 155.846207,86.276260 
	C142.921677,86.224037 134.446930,91.092026 128.871155,102.868683 
	C118.953926,123.814957 108.308388,144.417007 97.927292,165.142899 
	C79.246857,202.438446 60.536716,239.719116 41.349140,277.531555 
	C43.013687,278.020569 44.678028,278.936920 46.342804,278.937714 
	C186.853973,279.003601 327.365173,278.998932 467.876373,278.993011 
	C469.204559,278.992950 470.544189,278.984131 471.848267,278.783325 
	C472.039246,278.753937 472.060974,277.625702 471.811066,276.383179 
z"/>
<path fill="#FFFFFF" opacity="1.000000" stroke="none" 
	d="
M1.000001,415.468658 
	C2.782349,418.998810 4.214272,423.202362 6.409453,426.959991 
	C14.647826,441.062164 26.967510,448.930878 43.418304,448.942596 
	C185.049072,449.043274 326.680084,448.912537 468.310638,449.108917 
	C486.550415,449.134186 503.981873,438.724365 510.512939,420.399780 
	C511.125122,418.682098 511.717896,416.957489 512.659790,415.118042 
	C513.000000,447.646454 513.000000,480.292938 513.000000,512.939087 
	C342.333313,512.938721 171.666656,512.938721 1.000000,512.938721 
	C1.000000,480.564117 1.000000,448.250702 1.000001,415.468658 
z"/>
<path fill="#FFFFFF" opacity="1.000000" stroke="none" 
	d="
M41.838982,277.005981 
	C60.536716,239.719116 79.246857,202.438446 97.927292,165.142899 
	C108.308388,144.417007 118.953926,123.814957 128.871155,102.868683 
	C134.446930,91.092026 142.921677,86.224037 155.846207,86.276260 
	C223.629883,86.550156 291.415283,86.404480 359.200073,86.404335 
	C366.492126,86.404320 373.646179,87.124069 378.670441,93.218498 
	C381.169495,96.249870 383.282166,99.699120 385.047821,103.220947 
	C413.761230,160.492905 442.390686,217.806961 471.044006,275.109070 
	C471.265045,275.551086 471.553864,275.959229 471.760590,277.079285 
	C470.886841,277.851074 470.063538,277.993134 469.240265,277.993164 
	C328.115936,278.002228 186.991638,278.003876 45.867340,277.959259 
	C44.524452,277.958832 43.181759,277.337463 41.838982,277.005981 
z"/>
<path fill="#FEFEFE" opacity="1.000000" stroke="none" 
	d="
M22.998091,316.923431 
	C24.826729,307.298798 31.245441,302.349701 41.067593,300.028992 
	C43.740490,300.031189 45.571945,300.000305 47.403404,300.000275 
	C187.280823,299.998077 327.158234,299.998688 467.035645,299.993622 
	C468.697418,299.993561 470.359161,299.922729 472.020935,299.884918 
	C481.918182,301.156342 488.166199,306.664398 490.895508,317.028687 
	C490.827179,349.250854 490.815704,380.635895 490.804230,412.020905 
	C488.112701,421.052338 481.311279,425.451141 472.187256,427.568176 
	C469.877960,427.118561 468.216705,427.014771 466.555420,427.014648 
	C368.578308,427.006958 270.601196,427.009979 172.624084,427.006866 
	C128.305573,427.005463 83.987061,426.993500 39.668545,426.986298 
	C30.307295,426.110901 25.645872,420.128845 23.176563,410.959167 
	C23.129488,406.475739 23.003265,402.821472 23.001286,399.167175 
	C22.986437,371.752594 22.996099,344.338013 22.998091,316.923431 
M46.138275,389.779602 
	C42.318275,393.831055 43.058552,401.370880 48.198780,404.097321 
	C51.229385,405.704834 55.121876,406.307007 58.627586,406.309814 
	C190.918304,406.415802 323.209137,406.402039 455.499939,406.377289 
	C457.819885,406.376862 460.207336,406.333557 462.445129,405.807495 
	C466.699371,404.807404 469.293610,402.012909 469.983002,397.599792 
	C470.646301,393.353577 469.130157,390.299500 465.667206,387.598663 
	C461.948730,384.698517 457.858154,385.029205 453.754517,385.028229 
	C321.796936,384.996704 189.839340,385.002258 57.881752,385.002411 
	C56.715462,385.002411 55.390549,384.644409 54.413338,385.074829 
	C51.737244,386.253479 49.207455,387.764343 46.138275,389.779602 
M77.025040,325.200409 
	C67.561478,319.317383 57.459202,320.270264 49.576256,327.789490 
	C43.505886,333.579773 41.919170,343.723907 45.837784,351.690186 
	C49.899345,359.947052 59.095837,364.922241 67.507973,363.592133 
	C76.755119,362.129974 82.929298,356.885040 85.492935,348.079407 
	C88.143723,338.974457 84.883675,331.520935 77.025040,325.200409 
M122.952866,362.896576 
	C131.887009,364.764343 139.332184,363.077484 145.445419,355.452606 
	C151.009155,348.513123 151.886322,341.202454 148.241852,333.786346 
	C143.933853,325.020050 136.252045,320.528076 126.292931,321.384918 
	C118.290855,322.073364 112.597809,326.707642 109.358597,333.907135 
	C104.266411,345.225067 109.783470,357.268707 122.952866,362.896576 
z"/>
<path fill="#575757" opacity="1.000000" stroke="none" 
	d="
M41.594059,277.268768 
	C43.181759,277.337463 44.524452,277.958832 45.867340,277.959259 
	C186.991638,278.003876 328.115936,278.002228 469.240265,277.993164 
	C470.063538,277.993134 470.886841,277.851074 471.935547,277.390625 
	C472.060974,277.625702 472.039246,278.753937 471.848267,278.783325 
	C470.544189,278.984131 469.204559,278.992950 467.876373,278.993011 
	C327.365173,278.998932 186.853973,279.003601 46.342804,278.937714 
	C44.678028,278.936920 43.013687,278.020569 41.594059,277.268768 
z"/>
<path fill="#A6A6A6" opacity="1.000000" stroke="none" 
	d="
M40.063297,427.191956 
	C83.987061,426.993500 128.305573,427.005463 172.624084,427.006866 
	C270.601196,427.009979 368.578308,427.006958 466.555420,427.014648 
	C468.216705,427.014771 469.877960,427.118561 471.821045,427.498901 
	C470.106293,427.883026 468.109772,427.993835 466.113220,427.993958 
	C326.703156,428.002075 187.293106,428.004425 47.883064,427.976166 
	C45.408024,427.975677 42.933056,427.598877 40.063297,427.191956 
z"/>
<path fill="#575757" opacity="1.000000" stroke="none" 
	d="
M471.725433,299.585999 
	C470.359161,299.922729 468.697418,299.993561 467.035645,299.993622 
	C327.158234,299.998688 187.280823,299.998077 47.403404,300.000275 
	C45.571945,300.000305 43.740490,300.031189 41.443977,299.966278 
	C42.882851,299.590393 44.786697,299.038574 46.690701,299.038025 
	C186.449387,298.997894 326.208069,299.000305 465.966766,299.013245 
	C467.787811,299.013397 469.608887,299.191895 471.725433,299.585999 
z"/>
<path fill="#A6A6A6" opacity="1.000000" stroke="none" 
	d="
M491.027527,411.669250 
	C490.815704,380.635895 490.827179,349.250854 490.920288,317.394684 
	C491.334961,319.024750 491.952637,321.125275 491.957733,323.227295 
	C492.023071,350.120453 492.020294,377.013855 491.968048,403.907074 
	C491.963257,406.377716 491.500763,408.847473 491.027527,411.669250 
z"/>
<path fill="#A6A6A6" opacity="1.000000" stroke="none" 
	d="
M22.794603,317.288818 
	C22.996099,344.338013 22.986437,371.752594 23.001286,399.167175 
	C23.003265,402.821472 23.129488,406.475739 23.122181,410.603943 
	C22.698423,409.137207 22.052391,407.197296 22.047781,405.255859 
	C21.981951,377.528076 21.993784,349.800110 22.027782,322.072205 
	C22.029589,320.599304 22.394981,319.126862 22.794603,317.288818 
z"/>
<path fill="#B72D2F" opacity="1.000000" stroke="none" 
	d="
M46.379009,389.461639 
	C49.207455,387.764343 51.737244,386.253479 54.413338,385.074829 
	C55.390549,384.644409 56.715462,385.002411 57.881752,385.002411 
	C189.839340,385.002258 321.796936,384.996704 453.754517,385.028229 
	C457.858154,385.029205 461.948730,384.698517 465.667206,387.598663 
	C469.130157,390.299500 470.646301,393.353577 469.983002,397.599792 
	C469.293610,402.012909 466.699371,404.807404 462.445129,405.807495 
	C460.207336,406.333557 457.819885,406.376862 455.499939,406.377289 
	C323.209137,406.402039 190.918304,406.415802 58.627586,406.309814 
	C55.121876,406.307007 51.229385,405.704834 48.198780,404.097321 
	C43.058552,401.370880 42.318275,393.831055 46.379009,389.461639 
z"/>
<path fill="#B62E30" opacity="1.000000" stroke="none" 
	d="
M77.214592,325.524292 
	C84.883675,331.520935 88.143723,338.974457 85.492935,348.079407 
	C82.929298,356.885040 76.755119,362.129974 67.507973,363.592133 
	C59.095837,364.922241 49.899345,359.947052 45.837784,351.690186 
	C41.919170,343.723907 43.505886,333.579773 49.576256,327.789490 
	C57.459202,320.270264 67.561478,319.317383 77.214592,325.524292 
z"/>
<path fill="#B62E30" opacity="1.000000" stroke="none" 
	d="
M122.574501,362.774872 
	C109.783470,357.268707 104.266411,345.225067 109.358597,333.907135 
	C112.597809,326.707642 118.290855,322.073364 126.292931,321.384918 
	C136.252045,320.528076 143.933853,325.020050 148.241852,333.786346 
	C151.886322,341.202454 151.009155,348.513123 145.445419,355.452606 
	C139.332184,363.077484 131.887009,364.764343 122.574501,362.774872 
z"/>
</svg>