<svg version="1.1" id="Layer_1" xmlns="http://www.w3.org/2000/svg" xmlns:xlink="http://www.w3.org/1999/xlink" x="0px" y="0px"
	 width="100%" viewBox="0 0 512 512" enable-background="new 0 0 512 512" xml:space="preserve">
<path fill="#FFFFFF" opacity="1.000000" stroke="none" 
	d="
M259.000000,513.000000 
	C173.065247,513.000000 87.130501,513.000000 1.000000,513.000000 
	C1.000000,406.979187 1.000000,300.958252 1.317935,194.601990 
	C5.065953,200.068924 9.008126,202.095551 14.218225,199.989914 
	C20.940639,197.273056 27.548647,194.237976 34.054531,191.032669 
	C38.474010,188.855301 40.510132,183.789734 38.880447,179.194733 
	C37.339130,174.848892 34.015564,172.451797 29.274658,173.030945 
	C18.249033,174.377823 8.664774,178.781708 1.000000,187.000000 
	C1.000000,167.645767 1.000000,148.291550 1.339177,128.558182 
	C5.555766,134.549377 9.600205,135.779144 17.308460,132.750092 
	C46.385605,121.323853 76.440269,116.832680 107.583351,119.842636 
	C110.553879,120.129723 113.576431,120.299225 116.544785,120.092293 
	C121.331268,119.758614 124.705383,115.629898 125.118324,110.802101 
	C125.426300,107.201508 121.657089,101.027992 117.122894,100.538284 
	C108.414909,99.597801 99.637802,99.138863 90.877937,98.900833 
	C86.159065,98.772606 81.411865,99.462440 76.685638,99.876686 
	C67.621193,100.671188 58.400681,100.743370 49.541695,102.561394 
	C37.920708,104.946220 26.543177,108.583214 15.148132,111.974632 
	C9.666096,113.606216 4.026515,115.353661 1.000000,121.000000 
	C1.000000,101.979103 1.000000,82.958214 1.349992,63.517502 
	C5.168253,68.805069 8.849911,70.348503 15.064013,68.279594 
	C20.867983,66.347237 26.453291,63.667896 32.343513,62.102535 
	C47.220287,58.148952 62.190323,54.534500 77.175903,51.009109 
	C81.850273,49.909462 84.883057,47.503048 85.885803,42.829720 
	C86.956078,37.841686 84.979126,33.841118 80.197968,32.690907 
	C76.086327,31.701763 71.468063,31.709023 67.269173,32.423607 
	C58.598274,33.899258 49.887646,35.591366 41.501511,38.189194 
	C27.513954,42.522202 12.556572,44.740795 1.000000,55.000000 
	C1.000000,37.026455 1.000000,19.052912 1.000000,1.000000 
	C82.020874,1.000000 163.041779,1.000000 244.371887,1.357586 
	C222.098740,5.438077 208.923492,20.400484 200.138123,39.504230 
	C198.292389,38.818260 197.137939,38.231483 195.913712,37.963310 
	C191.986374,37.103024 188.017273,36.431904 184.093735,35.555977 
	C178.157837,34.230785 172.304825,32.404682 166.309341,31.511112 
	C159.820633,30.544033 153.203186,30.466593 146.652222,29.884668 
	C139.473038,29.246939 132.318909,28.159361 125.129166,27.859478 
	C118.921997,27.600578 114.804169,31.792160 114.704514,37.485653 
	C114.601685,43.360374 118.782784,47.531147 124.997864,48.020485 
	C136.881088,48.956104 148.809586,49.593292 160.615936,51.142078 
	C170.175049,52.396065 179.582672,54.804928 189.718964,56.833946 
	C186.902664,61.777191 184.663986,65.645409 182.483002,69.545891 
	C175.175583,82.614555 168.005020,95.761406 160.558426,108.750099 
	C154.252121,119.749847 147.598343,130.549820 141.168274,141.479355 
	C136.053574,150.173065 131.047775,158.930786 125.986504,167.655960 
	C124.467010,170.275436 122.993393,171.544769 119.311478,170.350754 
	C113.464439,168.454575 107.249847,167.601288 101.138824,166.635193 
	C95.082901,165.677811 88.936615,165.293152 82.879425,164.342255 
	C78.399773,163.638992 74.284912,163.561584 71.035843,167.349457 
	C68.233833,170.616135 68.015671,174.352097 69.607964,178.070465 
	C71.537216,182.575653 75.417793,183.655869 80.107071,184.120438 
	C91.037514,185.203339 101.906044,186.911057 113.513451,188.460953 
	C104.889557,203.871902 97.512146,218.215439 89.037956,231.878754 
	C80.227859,246.083633 78.585449,260.889496 83.090195,276.493042 
	C87.578316,292.038971 98.189072,302.430054 112.111229,310.300476 
	C143.613739,328.109283 174.875275,346.346405 206.125519,364.596497 
	C209.607574,366.630005 212.466049,369.783569 215.472549,372.570007 
	C227.518600,383.734314 239.508972,394.958710 251.653809,406.601746 
	C251.858017,408.867981 251.988861,410.693298 251.989670,412.518646 
	C252.002533,441.493500 251.980087,470.468414 252.037827,499.443146 
	C252.041977,501.522919 252.604218,503.601593 252.925644,506.052185 
	C254.962891,508.615723 256.981445,510.807861 259.000000,513.000000 
z"/>
<path fill="#FEFEFE" opacity="1.000000" stroke="none" 
	d="
M261.000000,0.999998 
	C344.911804,1.000000 428.823608,1.000000 513.000000,1.000000 
	C513.000000,55.687275 513.000000,110.374977 512.667114,165.328125 
	C512.035278,163.966873 511.811768,162.322021 511.425751,160.716232 
	C506.680939,140.977264 491.891754,130.276123 475.597443,120.922684 
	C458.728851,111.239601 441.910248,101.468727 424.997772,91.863060 
	C417.021393,87.332771 411.189331,87.669312 407.866425,95.016708 
	C405.425385,100.414223 407.660339,104.991783 414.572632,108.973221 
	C434.829529,120.641060 455.161835,132.179871 475.332123,143.995407 
	C492.232452,153.895432 497.670258,173.436188 488.464905,190.473618 
	C482.285522,201.910461 476.124115,213.364700 469.605713,224.608841 
	C459.366394,242.271454 448.832764,259.763428 438.246521,276.849884 
	C437.987549,252.594406 437.905762,228.816727 437.774658,204.642548 
	C436.832977,193.728531 430.954681,186.531296 422.672607,180.574295 
	C413.822449,174.208710 404.425873,174.283249 394.054474,177.546555 
	C394.054474,166.775085 394.131653,156.619064 394.029205,146.464859 
	C393.951935,138.802399 389.733673,132.648132 384.705566,127.841995 
	C375.172058,118.729202 363.490295,116.507507 351.453308,120.584671 
	C348.303680,115.470024 345.956879,110.000267 342.130310,105.917435 
	C338.393646,101.930550 333.538116,98.130280 328.452881,96.508705 
	C323.233276,94.844284 316.927734,94.878494 311.472809,95.998093 
	C298.276215,98.706619 290.973419,107.964638 287.441742,120.732307 
	C278.253998,118.194641 269.064087,117.442673 260.402405,122.411163 
	C248.426102,129.281036 243.370239,139.936325 243.416229,153.560867 
	C243.540009,190.223129 243.461761,226.886063 243.445526,263.548737 
	C243.444702,265.387268 243.272369,267.225739 243.179886,269.064209 
	C239.304321,264.941071 236.528534,260.677429 233.711990,256.440857 
	C226.681656,245.865967 217.364182,238.717056 204.306107,237.853775 
	C181.932053,236.374573 161.840363,256.698364 167.744415,280.973602 
	C171.343674,295.772278 178.212189,309.776276 183.622040,324.133545 
	C184.159058,325.558746 184.764297,326.958282 185.772659,329.439636 
	C178.967773,325.767975 173.252884,322.835846 167.683594,319.649261 
	C154.260681,311.969208 140.879028,304.215942 127.534271,296.400818 
	C120.121696,292.059753 111.846382,288.392059 107.155373,280.937134 
	C99.385025,268.588531 98.332130,255.581741 105.970634,242.446045 
	C118.429565,221.020737 130.750137,199.514984 143.139694,178.049301 
	C156.315536,155.221329 169.502014,132.399490 182.687042,109.576813 
	C196.413986,85.816109 209.978928,61.959705 223.929565,38.331039 
	C233.991409,21.288929 253.794373,16.276863 270.976532,25.991234 
	C279.931244,31.053999 288.802887,36.263557 297.714996,41.401711 
	C309.647430,48.281181 321.598846,55.127987 333.507751,62.047913 
	C337.490692,64.362282 341.357422,64.554459 345.160889,61.825226 
	C348.473755,59.448055 350.356323,55.645782 348.818237,52.266567 
	C347.262756,48.849190 344.136383,45.592213 340.881042,43.600403 
	C327.673187,35.519058 314.319031,27.639893 300.692352,20.291637 
	C289.547302,14.281616 279.604248,5.869388 266.863495,2.939697 
	C264.865936,2.480363 262.952393,1.655722 261.000000,0.999998 
M371.133453,83.391525 
	C372.092529,84.032005 372.974396,84.872910 374.024414,85.277336 
	C378.004364,86.810371 381.799408,86.538918 385.076416,83.544464 
	C388.402557,80.505127 388.928040,76.602142 387.592621,72.619972 
	C386.174896,68.392303 382.737122,67.084923 378.390564,66.902374 
	C374.076233,66.721184 371.161835,68.119698 369.080963,71.929298 
	C366.824463,76.060417 368.142181,79.460640 371.133453,83.391525 
z"/>
<path fill="#B62E30" opacity="1.000000" stroke="none" 
	d="
M260.600006,0.999998 
	C262.952393,1.655722 264.865936,2.480363 266.863495,2.939697 
	C279.604248,5.869388 289.547302,14.281616 300.692352,20.291637 
	C314.319031,27.639893 327.673187,35.519058 340.881042,43.600403 
	C344.136383,45.592213 347.262756,48.849190 348.818237,52.266567 
	C350.356323,55.645782 348.473755,59.448055 345.160889,61.825226 
	C341.357422,64.554459 337.490692,64.362282 333.507751,62.047913 
	C321.598846,55.127987 309.647430,48.281181 297.714996,41.401711 
	C288.802887,36.263557 279.931244,31.053999 270.976532,25.991234 
	C253.794373,16.276863 233.991409,21.288929 223.929565,38.331039 
	C209.978928,61.959705 196.413986,85.816109 182.687042,109.576813 
	C169.502014,132.399490 156.315536,155.221329 143.139694,178.049301 
	C130.750137,199.514984 118.429565,221.020737 105.970634,242.446045 
	C98.332130,255.581741 99.385025,268.588531 107.155373,280.937134 
	C111.846382,288.392059 120.121696,292.059753 127.534271,296.400818 
	C140.879028,304.215942 154.260681,311.969208 167.683594,319.649261 
	C173.252884,322.835846 178.967773,325.767975 185.772659,329.439636 
	C184.764297,326.958282 184.159058,325.558746 183.622040,324.133545 
	C178.212189,309.776276 171.343674,295.772278 167.744415,280.973602 
	C161.840363,256.698364 181.932053,236.374573 204.306107,237.853775 
	C217.364182,238.717056 226.681656,245.865967 233.711990,256.440857 
	C236.528534,260.677429 239.304321,264.941071 243.179886,269.064209 
	C243.272369,267.225739 243.444702,265.387268 243.445526,263.548737 
	C243.461761,226.886063 243.540009,190.223129 243.416229,153.560867 
	C243.370239,139.936325 248.426102,129.281036 260.402405,122.411163 
	C269.064087,117.442673 278.253998,118.194641 287.441742,120.732307 
	C290.973419,107.964638 298.276215,98.706619 311.472809,95.998093 
	C316.927734,94.878494 323.233276,94.844284 328.452881,96.508705 
	C333.538116,98.130280 338.393646,101.930550 342.130310,105.917435 
	C345.956879,110.000267 348.303680,115.470024 351.453308,120.584671 
	C363.490295,116.507507 375.172058,118.729202 384.705566,127.841995 
	C389.733673,132.648132 393.951935,138.802399 394.029205,146.464859 
	C394.131653,156.619064 394.054474,166.775085 394.054474,177.546555 
	C404.425873,174.283249 413.822449,174.208710 422.672607,180.574295 
	C430.954681,186.531296 436.832977,193.728531 437.484314,204.939362 
	C437.163391,229.221237 437.078644,252.809814 437.024841,276.398468 
	C437.023041,277.179047 437.334625,277.960358 437.500122,278.741333 
	C437.807953,278.270081 438.115845,277.798859 438.423767,277.327637 
	C448.832764,259.763428 459.366394,242.271454 469.605713,224.608841 
	C476.124115,213.364700 482.285522,201.910461 488.464905,190.473618 
	C497.670258,173.436188 492.232452,153.895432 475.332123,143.995407 
	C455.161835,132.179871 434.829529,120.641060 414.572632,108.973221 
	C407.660339,104.991783 405.425385,100.414223 407.866425,95.016708 
	C411.189331,87.669312 417.021393,87.332771 424.997772,91.863060 
	C441.910248,101.468727 458.728851,111.239601 475.597443,120.922684 
	C491.891754,130.276123 506.680939,140.977264 511.425751,160.716232 
	C511.811768,162.322021 512.035278,163.966873 512.667114,165.796783 
	C513.000000,166.750000 513.000000,167.500000 512.690308,168.879639 
	C512.587097,172.339523 512.793579,175.169769 513.000000,178.000000 
	C513.000000,179.388885 513.000000,180.777786 512.654419,182.746613 
	C509.982971,189.486740 508.359863,196.037170 505.197449,201.732941 
	C496.222107,217.898132 486.517761,233.656479 477.284729,249.681183 
	C463.496887,273.611023 449.842651,297.618073 436.208191,321.635742 
	C434.918701,323.907227 433.854004,326.408447 433.225586,328.937378 
	C426.763794,354.942352 415.572906,378.474304 397.312439,398.364807 
	C392.810699,403.268341 390.826233,408.632324 390.960266,415.699982 
	C391.475067,442.846924 391.101929,470.009705 391.219177,497.165924 
	C391.246063,503.390167 391.303619,509.376801 385.000000,513.000000 
	C382.958344,513.000000 380.916656,513.000000 378.252441,512.719238 
	C375.555389,510.015259 373.480927,507.592010 371.579407,504.779663 
	C371.833344,503.566986 371.984802,502.743408 371.985138,501.919769 
	C371.998138,469.529785 372.006592,437.139771 371.963440,404.749847 
	C371.961792,403.508545 371.445648,402.267883 371.099060,400.664001 
	C372.554901,397.804474 373.683014,394.918701 375.677094,392.879913 
	C383.574799,384.805023 390.291962,375.893799 396.135712,366.247131 
	C410.651245,342.285461 417.529907,316.164581 417.847626,288.328400 
	C418.146149,262.170380 417.933411,236.006226 417.875153,209.844925 
	C417.870422,207.716522 417.596252,205.505051 416.973083,203.477936 
	C415.334320,198.147125 410.803162,195.301956 405.111938,195.717987 
	C399.728943,196.111450 395.826080,199.542755 394.892426,204.928772 
	C394.525269,207.046921 394.408112,209.229965 394.396820,211.384613 
	C394.340088,222.215393 394.496460,233.049225 394.291504,243.876556 
	C394.176544,249.950455 390.760284,253.679169 385.570740,254.226395 
	C380.102997,254.802948 376.714569,252.482452 374.919830,246.452209 
	C374.968323,214.717377 374.994171,183.439072 374.958069,152.160843 
	C374.956451,150.762970 374.392151,149.365768 373.965393,147.641388 
	C371.614532,141.858307 367.877380,138.549454 361.664185,139.018341 
	C355.463745,139.486252 352.281219,143.340012 350.546875,149.316391 
	C350.171448,150.269638 350.014343,150.925400 350.014069,151.581207 
	C350.001526,181.840790 349.994659,212.100403 350.029541,242.359940 
	C350.031006,243.650192 350.433472,244.939987 350.585449,246.554199 
	C348.079224,249.268295 346.037659,252.720963 343.110138,253.825546 
	C337.124695,256.083862 330.612915,251.209381 330.669800,242.659653 
	C330.917847,205.381012 330.789337,168.099762 330.742188,130.819519 
	C330.739044,128.348831 330.576721,125.801582 329.967834,123.423233 
	C328.311005,116.951607 321.395081,113.510345 315.109802,115.803467 
	C309.371063,117.897186 307.195801,121.524338 307.191071,129.383163 
	C307.168365,167.162750 307.194916,204.942368 307.163818,242.721924 
	C307.158356,249.355331 304.328278,253.258194 299.172943,254.118561 
	C293.252808,255.106567 289.703735,252.751770 287.522949,245.869003 
	C287.811554,244.996643 287.962891,244.506393 287.963226,244.016068 
	C287.983337,213.423874 287.999664,182.831680 287.964661,152.239548 
	C287.963440,151.166290 287.440369,150.093628 287.064819,148.669342 
	C285.192261,142.751617 281.884644,139.080917 275.592865,138.993118 
	C269.305878,138.905396 265.901428,142.511475 263.602356,148.270538 
	C263.211670,149.054459 263.036224,149.540909 263.036438,150.027298 
	C263.059967,202.698318 263.096680,255.369354 263.110168,308.411621 
	C258.449371,316.243286 252.535522,317.975189 247.139313,313.275421 
	C245.673813,311.999054 244.594925,310.225891 243.518158,308.564362 
	C233.952393,293.803558 224.582596,278.912781 214.820068,264.283844 
	C210.341003,257.572052 202.875137,256.234711 194.894012,259.850006 
	C189.448120,262.316895 185.534500,270.193420 187.282913,276.491272 
	C192.595734,295.628296 199.383591,314.257141 210.342484,330.934082 
	C217.439636,341.734314 225.720596,351.750519 233.301987,362.240295 
	C241.287811,373.289612 251.670471,381.718201 262.579834,389.595795 
	C269.446228,394.553986 272.776947,400.409210 272.555176,409.637909 
	C271.838959,439.440063 272.177673,469.270996 272.382019,499.088959 
	C272.422455,504.990631 271.174744,509.754913 266.000000,513.000000 
	C263.958344,513.000000 261.916656,513.000000 259.437500,513.000000 
	C256.981445,510.807861 254.962891,508.615723 252.937836,505.614777 
	C252.953308,473.313171 252.994125,441.820343 252.934525,410.327698 
	C252.931900,408.937866 252.012375,407.549774 251.519943,406.160858 
	C239.508972,394.958710 227.518600,383.734314 215.472549,372.570007 
	C212.466049,369.783569 209.607574,366.630005 206.125519,364.596497 
	C174.875275,346.346405 143.613739,328.109283 112.111229,310.300476 
	C98.189072,302.430054 87.578316,292.038971 83.090195,276.493042 
	C78.585449,260.889496 80.227859,246.083633 89.037956,231.878754 
	C97.512146,218.215439 104.889557,203.871902 113.513451,188.460953 
	C101.906044,186.911057 91.037514,185.203339 80.107071,184.120438 
	C75.417793,183.655869 71.537216,182.575653 69.607964,178.070465 
	C68.015671,174.352097 68.233833,170.616135 71.035843,167.349457 
	C74.284912,163.561584 78.399773,163.638992 82.879425,164.342255 
	C88.936615,165.293152 95.082901,165.677811 101.138824,166.635193 
	C107.249847,167.601288 113.464439,168.454575 119.311478,170.350754 
	C122.993393,171.544769 124.467010,170.275436 125.986504,167.655960 
	C131.047775,158.930786 136.053574,150.173065 141.168274,141.479355 
	C147.598343,130.549820 154.252121,119.749847 160.558426,108.750099 
	C168.005020,95.761406 175.175583,82.614555 182.483002,69.545891 
	C184.663986,65.645409 186.902664,61.777191 189.718964,56.833946 
	C179.582672,54.804928 170.175049,52.396065 160.615936,51.142078 
	C148.809586,49.593292 136.881088,48.956104 124.997864,48.020485 
	C118.782784,47.531147 114.601685,43.360374 114.704514,37.485653 
	C114.804169,31.792160 118.921997,27.600578 125.129166,27.859478 
	C132.318909,28.159361 139.473038,29.246939 146.652222,29.884668 
	C153.203186,30.466593 159.820633,30.544033 166.309341,31.511112 
	C172.304825,32.404682 178.157837,34.230785 184.093735,35.555977 
	C188.017273,36.431904 191.986374,37.103024 195.913712,37.963310 
	C197.137939,38.231483 198.292389,38.818260 200.138123,39.504230 
	C208.923492,20.400484 222.098740,5.438077 244.840546,1.357586 
	C246.066666,1.000000 247.133347,1.000000 248.839188,1.314773 
	C251.985580,1.419697 254.492783,1.209848 257.000000,1.000000 
	C258.066681,1.000000 259.133331,1.000000 260.600006,0.999998 
z"/>
<path fill="#FEFEFE" opacity="1.000000" stroke="none" 
	d="
M287.315247,246.251083 
	C289.703735,252.751770 293.252808,255.106567 299.172943,254.118561 
	C304.328278,253.258194 307.158356,249.355331 307.163818,242.721924 
	C307.194916,204.942368 307.168365,167.162750 307.191071,129.383163 
	C307.195801,121.524338 309.371063,117.897186 315.109802,115.803467 
	C321.395081,113.510345 328.311005,116.951607 329.967834,123.423233 
	C330.576721,125.801582 330.739044,128.348831 330.742188,130.819519 
	C330.789337,168.099762 330.917847,205.381012 330.669800,242.659653 
	C330.612915,251.209381 337.124695,256.083862 343.110138,253.825546 
	C346.037659,252.720963 348.079224,249.268295 350.711731,246.073654 
	C350.880554,213.185577 350.859436,181.102249 350.838318,149.018921 
	C352.281219,143.340012 355.463745,139.486252 361.664185,139.018341 
	C367.877380,138.549454 371.614532,141.858307 373.898987,148.109573 
	C373.971863,179.494873 373.969482,210.085144 374.039215,240.675247 
	C374.043945,242.753723 374.590729,244.830963 374.885437,246.908768 
	C376.714569,252.482452 380.102997,254.802948 385.570740,254.226395 
	C390.760284,253.679169 394.176544,249.950455 394.291504,243.876556 
	C394.496460,233.049225 394.340088,222.215393 394.396820,211.384613 
	C394.408112,209.229965 394.525269,207.046921 394.892426,204.928772 
	C395.826080,199.542755 399.728943,196.111450 405.111938,195.717987 
	C410.803162,195.301956 415.334320,198.147125 416.973083,203.477936 
	C417.596252,205.505051 417.870422,207.716522 417.875153,209.844925 
	C417.933411,236.006226 418.146149,262.170380 417.847626,288.328400 
	C417.529907,316.164581 410.651245,342.285461 396.135712,366.247131 
	C390.291962,375.893799 383.574799,384.805023 375.677094,392.879913 
	C373.683014,394.918701 372.554901,397.804474 371.025604,401.126984 
	C371.015167,434.710999 371.002106,467.469086 371.018127,500.227173 
	C371.018951,501.874420 371.271271,503.521576 371.406494,505.168762 
	C373.480927,507.592010 375.555389,510.015259 377.814941,512.719238 
	C340.979095,513.000000 303.958221,513.000000 266.468658,513.000000 
	C271.174744,509.754913 272.422455,504.990631 272.382019,499.088959 
	C272.177673,469.270996 271.838959,439.440063 272.555176,409.637909 
	C272.776947,400.409210 269.446228,394.553986 262.579834,389.595795 
	C251.670471,381.718201 241.287811,373.289612 233.301987,362.240295 
	C225.720596,351.750519 217.439636,341.734314 210.342484,330.934082 
	C199.383591,314.257141 192.595734,295.628296 187.282913,276.491272 
	C185.534500,270.193420 189.448120,262.316895 194.894012,259.850006 
	C202.875137,256.234711 210.341003,257.572052 214.820068,264.283844 
	C224.582596,278.912781 233.952393,293.803558 243.518158,308.564362 
	C244.594925,310.225891 245.673813,311.999054 247.139313,313.275421 
	C252.535522,317.975189 258.449371,316.243286 263.385559,308.099182 
	C263.781677,306.758820 263.966217,306.102051 263.966034,305.445343 
	C263.953156,252.954575 263.925842,200.463821 263.899597,147.973053 
	C265.901428,142.511475 269.305878,138.905396 275.592865,138.993118 
	C281.884644,139.080917 285.192261,142.751617 286.991638,149.132767 
	C287.009399,175.236938 286.982605,200.526367 287.014526,225.815735 
	C287.023132,232.627640 287.210114,239.439301 287.315247,246.251083 
z"/>
<path fill="#FFFFFF" opacity="1.000000" stroke="none" 
	d="
M385.468658,513.000000 
	C391.303619,509.376801 391.246063,503.390167 391.219177,497.165924 
	C391.101929,470.009705 391.475067,442.846924 390.960266,415.699982 
	C390.826233,408.632324 392.810699,403.268341 397.312439,398.364807 
	C415.572906,378.474304 426.763794,354.942352 433.225586,328.937378 
	C433.854004,326.408447 434.918701,323.907227 436.208191,321.635742 
	C449.842651,297.618073 463.496887,273.611023 477.284729,249.681183 
	C486.517761,233.656479 496.222107,217.898132 505.197449,201.732941 
	C508.359863,196.037170 509.982971,189.486740 512.654419,183.163269 
	C513.000000,292.894867 513.000000,402.789703 513.000000,513.000000 
	C470.646301,513.000000 428.291809,513.000000 385.468658,513.000000 
z"/>
<path fill="#B52F31" opacity="1.000000" stroke="none" 
	d="
M1.000000,121.437500 
	C4.026515,115.353661 9.666096,113.606216 15.148132,111.974632 
	C26.543177,108.583214 37.920708,104.946220 49.541695,102.561394 
	C58.400681,100.743370 67.621193,100.671188 76.685638,99.876686 
	C81.411865,99.462440 86.159065,98.772606 90.877937,98.900833 
	C99.637802,99.138863 108.414909,99.597801 117.122894,100.538284 
	C121.657089,101.027992 125.426300,107.201508 125.118324,110.802101 
	C124.705383,115.629898 121.331268,119.758614 116.544785,120.092293 
	C113.576431,120.299225 110.553879,120.129723 107.583351,119.842636 
	C76.440269,116.832680 46.385605,121.323853 17.308460,132.750092 
	C9.600205,135.779144 5.555766,134.549377 1.339177,128.089523 
	C1.000000,125.958336 1.000000,123.916664 1.000000,121.437500 
z"/>
<path fill="#B43032" opacity="1.000000" stroke="none" 
	d="
M1.000000,55.444164 
	C12.556572,44.740795 27.513954,42.522202 41.501511,38.189194 
	C49.887646,35.591366 58.598274,33.899258 67.269173,32.423607 
	C71.468063,31.709023 76.086327,31.701763 80.197968,32.690907 
	C84.979126,33.841118 86.956078,37.841686 85.885803,42.829720 
	C84.883057,47.503048 81.850273,49.909462 77.175903,51.009109 
	C62.190323,54.534500 47.220287,58.148952 32.343513,62.102535 
	C26.453291,63.667896 20.867983,66.347237 15.064013,68.279594 
	C8.849911,70.348503 5.168253,68.805069 1.349992,63.048843 
	C1.000000,60.629444 1.000000,58.258884 1.000000,55.444164 
z"/>
<path fill="#B43133" opacity="1.000000" stroke="none" 
	d="
M1.000000,187.437500 
	C8.664774,178.781708 18.249033,174.377823 29.274658,173.030945 
	C34.015564,172.451797 37.339130,174.848892 38.880447,179.194733 
	C40.510132,183.789734 38.474010,188.855301 34.054531,191.032669 
	C27.548647,194.237976 20.940639,197.273056 14.218225,199.989914 
	C9.008126,202.095551 5.065953,200.068924 1.317935,194.133331 
	C1.000000,191.958328 1.000000,189.916672 1.000000,187.437500 
z"/>
<path fill="#1C1C1C" opacity="1.000000" stroke="none" 
	d="
M513.000000,177.550018 
	C512.793579,175.169769 512.587097,172.339523 512.690308,169.254639 
	C513.000000,171.700012 513.000000,174.400024 513.000000,177.550018 
z"/>
<path fill="#171717" opacity="1.000000" stroke="none" 
	d="
M256.555847,1.000000 
	C254.492783,1.209848 251.985580,1.419697 249.239182,1.314773 
	C251.370560,1.000000 253.741104,1.000000 256.555847,1.000000 
z"/>
<path fill="#484848" opacity="1.000000" stroke="none" 
	d="
M251.653809,406.601746 
	C252.012375,407.549774 252.931900,408.937866 252.934525,410.327698 
	C252.994125,441.820343 252.953308,473.313171 252.919159,505.243347 
	C252.604218,503.601593 252.041977,501.522919 252.037827,499.443146 
	C251.980087,470.468414 252.002533,441.493500 251.989670,412.518646 
	C251.988861,410.693298 251.858017,408.867981 251.653809,406.601746 
z"/>
<path fill="#B43133" opacity="1.000000" stroke="none" 
	d="
M370.876099,83.098618 
	C368.142181,79.460640 366.824463,76.060417 369.080963,71.929298 
	C371.161835,68.119698 374.076233,66.721184 378.390564,66.902374 
	C382.737122,67.084923 386.174896,68.392303 387.592621,72.619972 
	C388.928040,76.602142 388.402557,80.505127 385.076416,83.544464 
	C381.799408,86.538918 378.004364,86.810371 374.024414,85.277336 
	C372.974396,84.872910 372.092529,84.032005 370.876099,83.098618 
z"/>
<path fill="#1C1C1C" opacity="1.000000" stroke="none" 
	d="
M438.246521,276.849854 
	C438.115845,277.798859 437.807953,278.270081 437.500122,278.741333 
	C437.334625,277.960358 437.023041,277.179047 437.024841,276.398468 
	C437.078644,252.809814 437.163391,229.221237 437.533630,205.335846 
	C437.905762,228.816727 437.987549,252.594406 438.246521,276.849854 
z"/>
<path fill="#5E5E5E" opacity="1.000000" stroke="none" 
	d="
M263.602356,148.270538 
	C263.925842,200.463821 263.953156,252.954575 263.966034,305.445343 
	C263.966217,306.102051 263.781677,306.758820 263.407959,307.727966 
	C263.096680,255.369354 263.059967,202.698318 263.036438,150.027298 
	C263.036224,149.540909 263.211670,149.054459 263.602356,148.270538 
z"/>
<path fill="#313131" opacity="1.000000" stroke="none" 
	d="
M371.579437,504.779663 
	C371.271271,503.521576 371.018951,501.874420 371.018127,500.227173 
	C371.002106,467.469086 371.015167,434.710999 371.095825,401.489929 
	C371.445648,402.267883 371.961792,403.508545 371.963440,404.749847 
	C372.006592,437.139771 371.998138,469.529785 371.985138,501.919769 
	C371.984802,502.743408 371.833344,503.566986 371.579437,504.779663 
z"/>
<path fill="#545454" opacity="1.000000" stroke="none" 
	d="
M374.919830,246.452209 
	C374.590729,244.830963 374.043945,242.753723 374.039215,240.675247 
	C373.969482,210.085144 373.971863,179.494873 374.023560,148.436432 
	C374.392151,149.365768 374.956451,150.762970 374.958069,152.160843 
	C374.994171,183.439072 374.968323,214.717377 374.919830,246.452209 
z"/>
<path fill="#3E3E3E" opacity="1.000000" stroke="none" 
	d="
M350.546875,149.316391 
	C350.859436,181.102249 350.880554,213.185577 350.775391,245.749451 
	C350.433472,244.939987 350.031006,243.650192 350.029541,242.359940 
	C349.994659,212.100403 350.001526,181.840790 350.014069,151.581207 
	C350.014343,150.925400 350.171448,150.269638 350.546875,149.316391 
z"/>
<path fill="#343434" opacity="1.000000" stroke="none" 
	d="
M287.522949,245.869003 
	C287.210114,239.439301 287.023132,232.627640 287.014526,225.815735 
	C286.982605,200.526367 287.009399,175.236938 287.087341,149.484100 
	C287.440369,150.093628 287.963440,151.166290 287.964661,152.239548 
	C287.999664,182.831680 287.983337,213.423874 287.963226,244.016068 
	C287.962891,244.506393 287.811554,244.996643 287.522949,245.869003 
z"/>
</svg>