<svg version="1.1" id="Layer_1" xmlns="http://www.w3.org/2000/svg" xmlns:xlink="http://www.w3.org/1999/xlink" x="0px" y="0px"
	 width="100%" viewBox="0 0 512 512" enable-background="new 0 0 512 512" xml:space="preserve">
<path fill="#b72d2f" opacity="1.000000" stroke="none"
	d="
M47.454109,513.000000
	C41.699997,506.416840 43.429375,498.630188 43.908337,491.369171
	C45.280201,470.571899 49.327969,450.259277 56.667221,430.662872
	C74.210213,383.821533 104.867859,347.944824 147.399765,321.990845
	C164.851364,311.341522 183.490021,303.481415 203.339584,298.520935
	C204.124084,298.324890 204.841934,297.862122 205.629211,297.506287
	C205.418259,295.291382 203.510223,294.986298 202.207291,294.214172
	C178.593185,280.220825 162.358505,260.249908 153.760406,234.189697
	C152.570755,230.583954 150.828339,229.216721 147.006638,229.275192
	C141.202820,229.363983 135.298859,230.153442 129.579910,228.808243
	C110.834312,224.398911 96.655807,206.177307 96.655449,186.775742
	C96.655212,173.617966 96.654877,160.460175 96.656540,147.302399
	C96.659195,126.282219 114.102982,108.708473 135.016830,108.657669
	C138.014771,108.650391 141.020569,108.521454 144.008667,108.693169
	C147.480591,108.892685 148.596115,107.401787 148.699387,103.996796
	C149.397568,80.978607 157.010223,60.338791 171.124390,42.249279
	C187.517517,21.238911 208.916336,8.024931 235.069626,2.607077
	C236.522446,2.306115 237.924408,1.759767 239.675018,1.163817
	C251.354233,1.000000 262.708466,1.000000 274.531342,1.000000
	C277.047180,3.149113 279.971161,2.745497 282.474731,3.385633
	C327.061035,14.785924 357.755768,48.596275 364.440643,93.867767
	C364.779297,96.161362 365.271484,98.462311 365.305328,100.765518
	C365.431152,109.329498 364.583771,109.016823 373.608765,108.595276
	C389.983215,107.830429 402.921448,113.621696 411.805420,127.553444
	C415.534271,133.400955 417.431396,139.896317 417.375977,146.951202
	C417.276459,159.616470 417.281067,172.283508 417.361755,184.949036
	C417.475128,202.750397 409.442932,215.950806 394.364868,224.796661
	C390.433777,227.102921 389.150208,229.582489 389.264984,233.901291
	C389.530487,243.893753 389.317230,253.898193 389.353485,263.897583
	C389.512024,307.592804 357.842682,348.569489 311.471405,358.278809
	C308.879303,358.821533 306.233337,359.160675 303.595184,359.417419
	C298.977814,359.866699 295.621979,361.314362 292.926147,365.871552
	C288.437622,373.459198 281.060242,377.337372 272.015503,377.365387
	C261.849518,377.396881 251.683090,377.397949 241.517288,377.338287
	C227.496338,377.255981 216.645035,365.677368 216.654419,350.887390
	C216.663788,336.125946 227.498230,324.741425 241.686691,324.666290
	C251.852554,324.612457 262.019440,324.592682 272.184937,324.672852
	C281.638184,324.747406 289.132538,328.990906 293.556580,337.105896
	C296.243744,342.034851 298.855164,342.990265 304.159729,341.899902
	C338.945923,334.749420 360.870148,313.898315 370.138794,279.952454
	C374.347961,264.536530 372.469513,248.514069 372.630066,232.730408
	C372.653320,230.444016 371.505341,229.257629 369.258606,229.419937
	C366.017303,229.654114 361.979492,227.895737 360.497681,232.820145
	C357.941437,241.315109 354.396515,249.376984 349.659149,256.890503
	C338.954193,273.868652 329.574951,282.785797 307.813873,296.631073
	C308.912903,298.028015 310.401245,298.317657 311.953400,298.737457
	C315.965302,299.822571 319.984955,300.933319 323.891937,302.338562
	C329.032410,304.187439 331.362793,308.750732 329.806641,313.320526
	C328.200531,318.037048 323.749634,320.303223 318.528320,318.713593
	C309.773560,316.048279 300.991547,313.547943 291.947937,312.036499
	C254.484482,305.775452 218.059616,309.171722 182.806992,323.662994
	C172.148453,328.044373 161.936066,333.276001 152.258102,339.534485
	C150.048019,340.963684 147.918976,342.518158 145.305573,344.323883
	C148.114471,347.530975 150.481506,350.480194 153.100098,353.185944
	C186.010666,387.192383 218.949585,421.171387 251.903702,455.135620
	C257.011261,460.399750 257.058014,460.344421 262.097137,455.141144
	C299.425262,416.596710 336.755524,378.054352 374.085175,339.511414
	C380.072540,333.329468 383.623505,332.984711 390.433807,338.427643
	C428.553589,368.893707 452.261169,408.501312 464.216980,455.449371
	C468.161682,470.939331 470.370239,486.692902 470.415741,502.735077
	C470.426941,506.690735 469.540283,509.936951 466.233643,512.737183
	C463.299988,513.000000 460.599976,513.000000 457.268646,512.695740
	C453.599487,509.129089 452.702515,505.111206 452.803986,500.848541
	C453.026611,491.493408 452.026215,482.223602 450.339600,473.079437
	C443.775024,437.489014 429.093201,405.605835 405.937927,377.723450
	C399.244843,369.664001 392.088684,362.041016 382.483826,354.871765
	C380.985687,356.837646 379.747253,358.849609 378.144379,360.509613
	C340.992188,398.984863 303.798950,437.420471 266.617371,475.867340
	C259.122040,483.617737 255.038727,483.695038 247.453491,475.867889
	C209.995956,437.215576 172.570297,398.532318 135.177979,359.816986
	C133.806793,358.397278 132.899460,356.529572 131.756439,354.841888
	C123.590034,361.022125 117.573174,367.147614 111.825600,373.631561
	C79.545540,410.047485 62.176666,452.339020 61.329437,501.164642
	C61.250629,505.706390 60.223003,509.704468 57.000000,513.000000
	C53.969406,513.000000 50.938812,513.000000 47.454109,513.000000
M220.534500,113.040932
	C203.637009,128.840714 187.092133,145.040543 168.672379,159.121109
	C166.169357,161.034470 165.197540,163.275299 165.297302,166.392365
	C165.478333,172.049164 165.385651,177.716232 165.339600,183.378479
	C165.238174,195.849976 165.089951,208.341446 167.967743,220.579407
	C179.719971,270.556305 228.312088,300.831207 278.372437,289.442047
	C313.350769,281.484131 342.957428,249.225327 347.493439,213.507874
	C349.869507,194.798523 348.362366,175.930847 348.659485,157.135498
	C348.703918,154.322937 347.299377,153.528915 344.689972,153.252914
	C336.938843,152.433044 329.156677,151.672241 321.493774,150.293091
	C287.982147,144.261642 257.853363,131.321381 233.640198,106.545464
	C232.646957,105.529144 231.925476,104.003136 229.129150,103.054672
	C226.430206,106.218033 223.731277,109.381401 220.534500,113.040932
M188.556686,119.045143
	C191.254807,116.567612 194.007812,114.146896 196.641068,111.602242
	C205.740479,102.808990 214.747513,93.919594 223.891739,85.173485
	C228.963531,80.322495 234.735733,80.310295 238.605682,85.466637
	C252.789810,104.365669 271.941498,116.304260 293.453857,124.881462
	C309.462402,131.264221 326.211731,134.546707 343.391022,135.649643
	C346.205505,135.830338 348.696045,135.734055 348.698547,131.673584
	C348.705811,119.854767 349.115356,107.997665 347.500519,96.272606
	C340.688934,46.813503 294.329956,11.260071 244.518082,18.650366
	C207.811768,24.096260 182.915314,45.546612 170.405655,80.572273
	C163.840302,98.954536 165.045670,118.228218 165.733856,137.338257
	C165.740891,137.533554 166.208557,137.712250 167.063522,138.343292
	C173.983917,132.141846 181.017288,125.839180 188.556686,119.045143
M119.043205,201.403381
	C124.609299,209.878754 132.647415,212.902451 142.535278,212.810394
	C147.314423,212.765884 148.802185,211.379440 148.757111,206.551590
	C148.538116,183.090775 148.740524,159.626389 148.637756,136.163956
	C148.584885,124.091057 150.747620,125.187805 137.204147,125.448830
	C124.830299,125.687317 116.281586,133.169800 114.161530,145.523178
	C112.181786,157.058945 113.731804,168.754898 113.363609,180.373459
	C113.132256,187.674133 114.672272,194.564148 119.043205,201.403381
M380.452240,126.026299
	C377.703674,125.100143 374.831879,125.632011 372.044159,125.311867
	C367.153320,124.750175 365.812988,126.803993 365.878540,131.552612
	C366.115021,148.678040 366.008179,165.809357 365.909271,182.937759
	C365.860382,191.408737 365.556549,199.878448 365.344574,208.348145
	C365.285522,210.708618 365.530670,212.396393 368.646820,212.720123
	C384.571106,214.374405 396.888336,205.689987 399.613159,189.803833
	C402.040802,175.650375 401.156738,161.245895 400.247528,147.043213
	C399.506104,135.461456 391.806122,128.196945 380.452240,126.026299
M266.257690,360.674866
	C266.757019,360.673950 267.256622,360.683929 267.755615,360.670471
	C275.245300,360.468292 280.682800,356.200653 280.458344,350.704163
	C280.233978,345.209839 275.149475,341.431030 267.731567,341.376129
	C260.242310,341.320648 252.750519,341.270844 245.263123,341.403351
	C238.259674,341.527313 233.621307,345.649902 233.769821,351.320984
	C233.909927,356.671631 238.550201,360.512939 245.341431,360.639282
	C251.996689,360.763062 258.655945,360.671753 266.257690,360.674866
z"/>
</svg>
