<?xml version="1.0" standalone="no"?>
<!DOCTYPE svg PUBLIC "-//W3C//DTD SVG 20010904//EN"
 "http://www.w3.org/TR/2001/REC-SVG-20010904/DTD/svg10.dtd">
<svg version="1.0" xmlns="http://www.w3.org/2000/svg"
 width="512.000000pt" height="512.000000pt" viewBox="0 0 512.000000 512.000000"
 preserveAspectRatio="xMidYMid meet">

<g transform="translate(0.000000,512.000000) scale(0.100000,-0.100000)"
fill="#b72d2f" stroke="none">
<path d="M365 4566 c-95 -30 -168 -96 -201 -182 -18 -47 -19 -94 -19 -1319 0
-1228 1 -1272 19 -1320 25 -65 94 -137 159 -166 l52 -24 598 -3 597 -3 0 -304
0 -305 -169 0 -168 0 -27 -26 c-37 -38 -37 -105 0 -139 l27 -25 234 0 c149 0
242 4 255 11 44 24 48 56 48 434 l0 355 79 0 c43 0 92 5 109 11 63 22 83 104
38 156 l-24 28 -786 5 -786 5 -27 28 c-24 24 -28 36 -31 102 l-4 75 812 0 812
0 29 29 c38 39 39 87 3 130 l-26 31 -811 2 -812 3 0 1083 0 1084 33 29 32 29
1646 0 c1789 0 1686 3 1712 -55 9 -19 12 -195 12 -685 l0 -660 28 -31 c46 -51
125 -40 157 21 14 27 15 113 13 708 l-3 677 -27 52 c-35 66 -82 113 -144 144
l-49 24 -1675 2 c-1332 1 -1683 -1 -1715 -11z"/>
<path d="M2345 2744 c-59 -21 -110 -67 -139 -126 l-26 -52 0 -733 0 -733 -52
0 c-68 0 -113 -27 -138 -83 -22 -46 -26 -139 -10 -183 13 -33 170 -205 229
-250 l44 -34 1220 0 1220 0 120 117 c132 130 156 170 157 252 0 111 -61 181
-159 181 l-51 0 0 723 c0 820 3 786 -77 864 -80 77 -12 73 -1222 72 -907 0
-1082 -3 -1116 -15z m2205 -194 c20 -20 20 -33 20 -735 l0 -715 -1100 0 -1100
0 0 719 0 720 22 15 c20 14 139 16 1080 16 1045 0 1058 0 1078 -20z m150
-1725 l-85 -85 -1150 0 -1151 0 -55 58 c-30 31 -65 69 -79 85 l-23 27 1314 0
1314 0 -85 -85z"/>
</g>
</svg>
