<?xml version="1.0" standalone="no"?>
<!DOCTYPE svg PUBLIC "-//W3C//DTD SVG 20010904//EN"
 "http://www.w3.org/TR/2001/REC-SVG-20010904/DTD/svg10.dtd">
<svg version="1.0" xmlns="http://www.w3.org/2000/svg"
 width="512.000000pt" height="512.000000pt" viewBox="0 0 512.000000 512.000000"
 preserveAspectRatio="xMidYMid meet">

<g transform="translate(0.000000,512.000000) scale(0.100000,-0.100000)"
fill="#b72d2f" stroke="none">
<path d="M340 5109 c-160 -31 -299 -173 -330 -339 -14 -72 -14 -3067 0 -3141
32 -169 170 -307 340 -339 32 -6 334 -10 782 -10 l730 0 -5 -22 c-3 -13 -31
-162 -61 -333 -31 -171 -61 -334 -67 -362 l-10 -53 -192 -1 c-220 0 -251 -8
-323 -77 -123 -120 -85 -323 76 -408 34 -18 85 -19 1280 -19 1195 0 1246 1
1280 19 96 50 144 128 145 231 0 82 -20 130 -76 184 -67 62 -100 70 -316 70
l-192 1 -10 53 c-6 28 -36 191 -67 362 -30 171 -58 320 -61 332 l-5 23 730 0
c448 0 750 4 782 10 170 32 308 170 340 339 14 74 14 3068 0 3142 -32 169
-170 307 -340 339 -67 13 -4365 12 -4430 -1z m4443 -179 c66 -25 121 -80 147
-148 20 -51 20 -83 20 -1352 l0 -1300 -2390 0 -2390 0 0 1300 c0 1273 0 1300
20 1353 24 65 80 121 146 147 48 19 102 19 2221 20 2146 0 2173 0 2226 -20z
m167 -3115 c0 -120 -3 -154 -20 -197 -26 -68 -81 -123 -147 -148 -53 -20 -81
-20 -2223 -20 -2142 0 -2170 0 -2223 20 -66 25 -121 80 -147 148 -17 43 -20
77 -20 197 l0 145 2390 0 2390 0 0 -145z m-1797 -903 c37 -202 67 -375 67
-385 0 -15 -13 -17 -133 -17 -130 0 -134 -1 -157 -25 -32 -34 -32 -87 -2 -118
22 -22 24 -22 425 -25 269 -1 409 -6 423 -13 24 -12 44 -49 44 -80 0 -11 -13
-34 -29 -50 l-29 -29 -1202 0 -1202 0 -29 29 c-31 31 -36 59 -17 94 25 47 12
46 608 47 431 0 571 3 590 13 55 28 64 94 18 137 -21 19 -34 20 -325 20 -281
0 -303 1 -303 17 0 10 30 183 67 385 l67 368 526 0 526 0 67 -368z"/>
<path d="M2465 4604 c-308 -30 -559 -124 -780 -292 -181 -138 -348 -344 -439
-543 -144 -316 -174 -679 -80 -994 14 -49 29 -98 31 -107 5 -16 -4 -18 -83
-18 -65 0 -99 -5 -124 -18 -66 -33 -66 -111 0 -144 33 -17 129 -18 1570 -18
1441 0 1537 1 1570 18 66 33 66 111 0 144 -25 13 -59 18 -124 18 -79 0 -88 2
-83 18 2 9 17 58 31 107 94 315 64 678 -80 994 -113 247 -323 481 -564 628
-144 88 -363 168 -525 192 -83 12 -264 20 -320 15z m347 -195 c416 -82 769
-374 931 -769 118 -286 126 -595 24 -897 l-31 -93 -127 0 -128 0 19 44 c28 67
57 172 71 259 17 108 7 330 -19 426 -23 82 -42 107 -89 117 -27 5 -37 1 -64
-25 -35 -36 -35 -38 -4 -181 13 -56 16 -107 12 -205 -5 -148 -28 -249 -82
-362 l-34 -73 -216 0 c-118 0 -215 2 -215 4 0 2 16 39 36 82 169 372 383 886
424 1022 20 66 21 74 7 96 -25 37 -69 51 -104 32 -45 -23 -156 -118 -408 -349
-350 -322 -527 -503 -560 -574 -38 -79 -44 -166 -17 -250 l20 -63 -215 0 -214
0 -34 73 c-53 111 -77 214 -82 358 -4 92 -1 146 11 203 9 43 16 89 16 103 0
34 -42 73 -79 73 -65 0 -81 -23 -105 -149 -37 -192 -11 -442 64 -616 l19 -45
-128 0 -127 0 -31 93 c-142 421 -70 852 202 1202 294 380 779 558 1257 464z
m143 -1116 c-48 -114 -94 -223 -102 -241 l-14 -34 -45 42 c-25 23 -68 52 -96
64 l-50 22 194 181 c106 99 195 179 197 177 2 -1 -36 -96 -84 -211z m-313
-329 c76 -39 109 -144 69 -221 -30 -59 -72 -86 -143 -91 -50 -4 -64 -1 -98 22
-22 14 -49 44 -60 66 -75 147 83 301 232 224z"/>
<path d="M2398 4165 c-143 -24 -348 -108 -382 -157 -36 -51 -1 -129 59 -130
17 0 73 20 125 45 208 98 411 111 625 42 90 -30 129 -22 151 31 27 65 -5 101
-121 137 -149 47 -305 58 -457 32z"/>
<path d="M2336 1768 c-28 -25 -34 -49 -23 -90 13 -50 46 -58 247 -58 201 0
234 8 247 58 11 41 5 65 -23 90 -24 21 -32 22 -224 22 -192 0 -200 -1 -224
-22z"/>
</g>
</svg>
