<svg version="1.1" id="Layer_1" xmlns="http://www.w3.org/2000/svg" xmlns:xlink="http://www.w3.org/1999/xlink" x="0px" y="0px"
	 width="100%" viewBox="0 0 512 512" enable-background="new 0 0 512 512" xml:space="preserve">
<path fill="#B62E30" opacity="1.000000" stroke="none" 
	d="
M1.000000,243.000000 
	C1.000000,240.958328 1.000000,238.916672 1.363803,236.228851 
	C2.542049,228.682587 2.997477,221.717712 4.228674,214.892761 
	C12.797729,167.391541 31.828966,124.796806 64.832977,89.148865 
	C75.823906,77.277458 87.292252,65.636932 99.788727,55.414520 
	C125.718140,34.203659 155.294083,19.392916 187.607422,10.539906 
	C199.028931,7.410710 210.942856,6.085904 222.623444,3.891919 
	C227.427200,2.989618 232.208496,1.967575 237.000000,0.999999 
	C250.020889,1.000000 263.041779,1.000000 276.702576,1.338072 
	C279.066315,2.114407 280.766815,2.749166 282.517975,2.956980 
	C290.168488,3.864879 297.987579,3.963404 305.457123,5.640258 
	C316.362396,8.088395 326.901611,12.173350 337.811432,14.593307 
	C354.426270,18.278713 368.963470,26.652637 383.348999,34.840889 
	C401.736572,45.307121 419.020782,57.732235 433.761627,73.167503 
	C443.496338,83.360809 453.560883,93.384872 462.095154,104.542244 
	C472.967896,118.756851 482.063690,134.202682 489.708740,150.539474 
	C499.676880,171.840652 506.196533,194.058533 509.993073,217.166092 
	C511.077087,223.763977 512.002075,230.387985 513.000000,237.000000 
	C513.000000,239.041672 513.000000,241.083328 512.725586,243.830658 
	C512.345398,246.338898 512.239624,248.141464 512.096802,250.326370 
	C512.373108,251.805801 512.686523,252.902908 513.000000,254.000000 
	C513.000000,255.714355 513.000000,257.428711 512.653687,259.736786 
	C512.260376,261.869934 512.213440,263.409363 512.104614,265.330322 
	C512.361755,267.141266 512.680908,268.570618 513.000000,270.000000 
	C513.000000,272.370575 513.000000,274.741119 512.639160,277.746948 
	C511.881866,280.448883 511.489899,282.516479 511.088531,284.582214 
	C507.963318,300.666870 505.910187,317.054382 501.473358,332.768799 
	C493.639587,360.514252 480.130768,385.699890 462.917908,408.846252 
	C445.205780,432.663971 424.069824,452.953613 399.493347,469.573334 
	C367.861176,490.964386 333.154907,504.593048 295.321442,510.134735 
	C289.205627,511.030579 283.106720,512.041992 277.000000,513.000000 
	C275.933319,513.000000 274.866669,513.000000 273.202515,512.731812 
	C271.403381,512.642395 270.201691,512.821167 269.000000,513.000000 
	C258.645782,513.000000 248.291550,513.000000 237.233459,512.654785 
	C224.118286,510.405090 211.512924,509.324982 199.328491,506.456696 
	C139.359619,492.339630 90.727058,460.330627 53.205845,411.633789 
	C26.700674,377.234100 10.201217,338.406189 3.846320,295.355835 
	C2.990302,289.556854 1.953233,283.784607 1.000001,278.000000 
	C1.000000,275.958344 1.000000,273.916656 1.274046,271.174072 
	C1.641314,268.954132 1.734535,267.435120 1.860739,265.528625 
	C1.595815,263.760773 1.297907,262.380371 0.999999,261.000000 
	C1.000000,258.629456 1.000000,256.258881 1.347380,253.284698 
	C1.738957,251.149246 1.783154,249.617432 1.888327,247.700745 
	C1.632869,245.877243 1.316434,244.438629 1.000000,243.000000 
M170.751923,465.796112 
	C185.328430,471.860962 200.342834,476.882965 215.812515,479.625977 
	C228.637772,481.900055 241.844437,482.336273 254.911163,482.855042 
	C270.743500,483.483551 286.366455,481.743561 301.956604,478.388428 
	C351.522919,467.721283 393.129089,443.763275 426.747406,405.785797 
	C438.718719,392.262299 448.608093,377.427002 457.096100,361.514801 
	C470.994049,335.460663 478.884583,307.641876 481.886475,278.423950 
	C484.506836,252.919678 482.258820,227.713623 476.150604,202.792282 
	C453.694702,111.172592 375.128448,41.577808 278.292908,32.033058 
	C260.853302,30.314093 243.418335,30.774622 226.108841,33.215469 
	C188.228683,38.557045 153.762543,52.531128 122.993675,75.326767 
	C96.089851,95.258911 74.569275,119.927887 58.458080,149.324478 
	C42.625797,178.212173 33.802704,209.298767 31.274395,241.904633 
	C29.803022,260.879913 31.296757,280.013947 34.971046,298.875702 
	C39.498161,322.115356 47.270607,344.233734 58.417789,365.008057 
	C66.849983,380.722595 76.572151,395.765991 89.488701,408.349579 
	C99.617653,418.217407 109.319809,428.678375 120.373085,437.404572 
	C135.372482,449.246033 152.059235,458.645844 170.751923,465.796112 
z"/>
<path fill="#FEFEFE" opacity="1.000000" stroke="none" 
	d="
M513.000000,236.531342 
	C512.002075,230.387985 511.077087,223.763977 509.993073,217.166092 
	C506.196533,194.058533 499.676880,171.840652 489.708740,150.539474 
	C482.063690,134.202682 472.967896,118.756851 462.095154,104.542244 
	C453.560883,93.384872 443.496338,83.360809 433.761627,73.167503 
	C419.020782,57.732235 401.736572,45.307121 383.348999,34.840889 
	C368.963470,26.652637 354.426270,18.278713 337.811432,14.593307 
	C326.901611,12.173350 316.362396,8.088395 305.457123,5.640258 
	C297.987579,3.963404 290.168488,3.864879 282.517975,2.956980 
	C280.766815,2.749166 279.066315,2.114407 277.171265,1.338072 
	C355.593719,1.000000 434.187408,1.000000 513.000000,1.000000 
	C513.000000,79.354095 513.000000,157.708389 513.000000,236.531342 
z"/>
<path fill="#FFFFFF" opacity="1.000000" stroke="none" 
	d="
M277.468658,513.000000 
	C283.106720,512.041992 289.205627,511.030579 295.321442,510.134735 
	C333.154907,504.593048 367.861176,490.964386 399.493347,469.573334 
	C424.069824,452.953613 445.205780,432.663971 462.917908,408.846252 
	C480.130768,385.699890 493.639587,360.514252 501.473358,332.768799 
	C505.910187,317.054382 507.963318,300.666870 511.088531,284.582214 
	C511.489899,282.516479 511.881866,280.448883 512.639160,278.191101 
	C513.000000,356.260529 513.000000,434.521027 513.000000,513.000000 
	C434.645905,513.000000 356.291626,513.000000 277.468658,513.000000 
z"/>
<path fill="#FEFEFE" opacity="1.000000" stroke="none" 
	d="
M236.531342,0.999999 
	C232.208496,1.967575 227.427200,2.989618 222.623444,3.891919 
	C210.942856,6.085904 199.028931,7.410710 187.607422,10.539906 
	C155.294083,19.392916 125.718140,34.203659 99.788727,55.414520 
	C87.292252,65.636932 75.823906,77.277458 64.832977,89.148865 
	C31.828966,124.796806 12.797729,167.391541 4.228674,214.892761 
	C2.997477,221.717712 2.542049,228.682587 1.363803,235.791351 
	C1.000000,157.739471 1.000000,79.478935 1.000000,1.000000 
	C79.354095,1.000000 157.708389,1.000000 236.531342,0.999999 
z"/>
<path fill="#FFFFFF" opacity="1.000000" stroke="none" 
	d="
M1.000001,278.468658 
	C1.953233,283.784607 2.990302,289.556854 3.846320,295.355835 
	C10.201217,338.406189 26.700674,377.234100 53.205845,411.633789 
	C90.727058,460.330627 139.359619,492.339630 199.328491,506.456696 
	C211.512924,509.324982 224.118286,510.405090 236.764801,512.654785 
	C158.406448,513.000000 79.812904,513.000000 1.000000,513.000000 
	C1.000000,434.979248 1.000000,356.958282 1.000001,278.468658 
z"/>
<path fill="#373737" opacity="1.000000" stroke="none" 
	d="
M512.133911,249.944046 
	C512.239624,248.141464 512.345398,246.338898 512.725586,244.268158 
	C513.000000,245.714355 513.000000,247.428711 512.784180,249.547058 
	C512.568298,249.951065 512.133911,249.944046 512.133911,249.944046 
z"/>
<path fill="#0F0F0F" opacity="1.000000" stroke="none" 
	d="
M1.827351,248.085617 
	C1.783154,249.617432 1.738957,251.149246 1.347380,252.840530 
	C1.000000,251.611115 1.000000,250.222214 1.207497,248.431702 
	C1.414994,248.030075 1.827350,248.085617 1.827351,248.085617 
z"/>
<path fill="#0D0D0D" opacity="1.000000" stroke="none" 
	d="
M512.166565,264.948792 
	C512.213440,263.409363 512.260376,261.869934 512.653687,260.165253 
	C513.000000,261.388885 513.000000,262.777802 512.791260,264.576538 
	C512.582520,264.986389 512.166565,264.948792 512.166565,264.948792 
z"/>
<path fill="#0F0F0F" opacity="1.000000" stroke="none" 
	d="
M0.999999,261.416656 
	C1.297907,262.380371 1.595815,263.760773 1.654485,265.556152 
	C1.415246,265.971191 1.000000,266.000000 1.000000,266.000000 
	C1.000000,264.611115 1.000000,263.222198 0.999999,261.416656 
z"/>
<path fill="#3C3C3C" opacity="1.000000" stroke="none" 
	d="
M512.104614,265.330322 
	C512.166565,264.948792 512.582520,264.986389 512.791260,264.993195 
	C513.000000,266.388885 513.000000,267.777802 513.000000,269.583344 
	C512.680908,268.570618 512.361755,267.141266 512.104614,265.330322 
z"/>
<path fill="#444444" opacity="1.000000" stroke="none" 
	d="
M1.000000,266.416656 
	C1.000000,266.000000 1.415246,265.971191 1.621500,265.943665 
	C1.734535,267.435120 1.641314,268.954132 1.274046,270.736572 
	C1.000000,269.611115 1.000000,268.222198 1.000000,266.416656 
z"/>
<path fill="#444444" opacity="1.000000" stroke="none" 
	d="
M1.888327,247.700745 
	C1.827350,248.085617 1.414994,248.030075 1.207497,248.015045 
	C1.000000,246.611115 1.000000,245.222214 1.000000,243.416656 
	C1.316434,244.438629 1.632869,245.877243 1.888327,247.700745 
z"/>
<path fill="#0D0D0D" opacity="1.000000" stroke="none" 
	d="
M512.096802,250.326370 
	C512.133911,249.944046 512.568298,249.951065 512.784180,249.975525 
	C513.000000,251.066666 513.000000,252.133347 513.000000,253.600006 
	C512.686523,252.902908 512.373108,251.805801 512.096802,250.326370 
z"/>
<path fill="#666666" opacity="1.000000" stroke="none" 
	d="
M269.399994,513.000000 
	C270.201691,512.821167 271.403381,512.642395 272.802551,512.731812 
	C271.933319,513.000000 270.866669,513.000000 269.399994,513.000000 
z"/>
<path fill="#FEFEFE" opacity="1.000000" stroke="none" 
	d="
M170.412140,465.607086 
	C152.059235,458.645844 135.372482,449.246033 120.373085,437.404572 
	C109.319809,428.678375 99.617653,418.217407 89.488701,408.349579 
	C76.572151,395.765991 66.849983,380.722595 58.417789,365.008057 
	C47.270607,344.233734 39.498161,322.115356 34.971046,298.875702 
	C31.296757,280.013947 29.803022,260.879913 31.274395,241.904633 
	C33.802704,209.298767 42.625797,178.212173 58.458080,149.324478 
	C74.569275,119.927887 96.089851,95.258911 122.993675,75.326767 
	C153.762543,52.531128 188.228683,38.557045 226.108841,33.215469 
	C243.418335,30.774622 260.853302,30.314093 278.292908,32.033058 
	C375.128448,41.577808 453.694702,111.172592 476.150604,202.792282 
	C482.258820,227.713623 484.506836,252.919678 481.886475,278.423950 
	C478.884583,307.641876 470.994049,335.460663 457.096100,361.514801 
	C448.608093,377.427002 438.718719,392.262299 426.747406,405.785797 
	C393.129089,443.763275 351.522919,467.721283 301.956604,478.388428 
	C286.366455,481.743561 270.743500,483.483551 254.911163,482.855042 
	C241.844437,482.336273 228.637772,481.900055 215.812515,479.625977 
	C200.342834,476.882965 185.328430,471.860962 170.412140,465.607086 
M386.214386,111.735550 
	C381.172302,107.655792 376.458344,103.059937 371.020386,99.602959 
	C359.447083,92.245659 347.948578,84.507935 335.566925,78.763725 
	C324.653381,73.700607 312.729462,70.528793 300.974823,67.653755 
	C291.144775,65.249435 280.948456,64.151352 270.848755,63.110939 
	C264.545105,62.461567 258.092834,62.618408 251.754837,63.074718 
	C239.487350,63.957924 226.997879,64.149506 215.075134,66.779663 
	C202.267822,69.604973 189.676666,74.126930 177.567978,79.267204 
	C141.900040,94.408653 114.179169,119.259926 93.072617,151.497253 
	C77.282616,175.614273 67.666023,202.094757 63.717831,230.736420 
	C60.805958,251.860260 61.130077,272.904999 65.292198,293.667267 
	C74.236862,338.286743 95.729485,375.960846 130.678207,405.355011 
	C172.379684,440.428741 220.526459,455.873352 274.992401,451.125824 
	C312.265015,447.877014 345.598389,434.488098 375.322723,412.031891 
	C393.511810,398.290375 409.074219,381.862885 420.862610,362.355804 
	C427.661896,351.104523 432.889343,338.882690 438.538818,326.962433 
	C446.076263,311.058563 449.049957,293.945496 450.966370,276.642639 
	C452.876526,259.395996 452.064270,242.255188 449.311188,225.073486 
	C445.330658,200.231567 436.584930,177.307755 423.595093,155.892334 
	C413.584961,139.389374 400.708923,125.297379 386.214386,111.735550 
z"/>
<path fill="#B62E30" opacity="1.000000" stroke="none" 
	d="
M386.460754,111.946754 
	C400.708923,125.297379 413.584961,139.389374 423.595093,155.892334 
	C436.584930,177.307755 445.330658,200.231567 449.311188,225.073486 
	C452.064270,242.255188 452.876526,259.395996 450.966370,276.642639 
	C449.049957,293.945496 446.076263,311.058563 438.538818,326.962433 
	C432.889343,338.882690 427.661896,351.104523 420.862610,362.355804 
	C409.074219,381.862885 393.511810,398.290375 375.322723,412.031891 
	C345.598389,434.488098 312.265015,447.877014 274.992401,451.125824 
	C220.526459,455.873352 172.379684,440.428741 130.678207,405.355011 
	C95.729485,375.960846 74.236862,338.286743 65.292198,293.667267 
	C61.130077,272.904999 60.805958,251.860260 63.717831,230.736420 
	C67.666023,202.094757 77.282616,175.614273 93.072617,151.497253 
	C114.179169,119.259926 141.900040,94.408653 177.567978,79.267204 
	C189.676666,74.126930 202.267822,69.604973 215.075134,66.779663 
	C226.997879,64.149506 239.487350,63.957924 251.754837,63.074718 
	C258.092834,62.618408 264.545105,62.461567 270.848755,63.110939 
	C280.948456,64.151352 291.144775,65.249435 300.974823,67.653755 
	C312.729462,70.528793 324.653381,73.700607 335.566925,78.763725 
	C347.948578,84.507935 359.447083,92.245659 371.020386,99.602959 
	C376.458344,103.059937 381.172302,107.655792 386.460754,111.946754 
M277.048767,93.287971 
	C261.431305,91.315437 245.820129,91.601173 230.342056,94.272408 
	C197.573654,99.927643 168.795975,113.839661 144.461731,136.672928 
	C124.401222,155.496094 109.746185,177.842850 100.973732,203.927521 
	C91.918182,230.853943 89.469742,258.249969 94.866982,286.353149 
	C102.497406,326.084442 121.529869,358.796143 152.565781,384.919556 
	C169.557236,399.221558 188.937012,408.830627 209.656143,415.364868 
	C221.229095,419.014709 233.425964,421.541595 246.036118,421.647217 
	C261.474091,421.776520 276.637482,421.723785 291.866791,418.160553 
	C336.057251,407.821320 370.662842,384.082123 395.557251,346.164062 
	C412.232269,320.765381 420.666382,292.643616 421.658783,262.490509 
	C422.042969,250.817688 420.729919,238.942383 418.871490,227.371078 
	C414.097351,197.645782 401.110229,171.563782 381.326874,148.986801 
	C353.838837,117.617134 319.318237,99.094872 277.048767,93.287971 
z"/>
<path fill="#FEFEFE" opacity="1.000000" stroke="none" 
	d="
M277.486877,93.401001 
	C319.318237,99.094872 353.838837,117.617134 381.326874,148.986801 
	C401.110229,171.563782 414.097351,197.645782 418.871490,227.371078 
	C420.729919,238.942383 422.042969,250.817688 421.658783,262.490509 
	C420.666382,292.643616 412.232269,320.765381 395.557251,346.164062 
	C370.662842,384.082123 336.057251,407.821320 291.866791,418.160553 
	C276.637482,421.723785 261.474091,421.776520 246.036118,421.647217 
	C233.425964,421.541595 221.229095,419.014709 209.656143,415.364868 
	C188.937012,408.830627 169.557236,399.221558 152.565781,384.919556 
	C121.529869,358.796143 102.497406,326.084442 94.866982,286.353149 
	C89.469742,258.249969 91.918182,230.853943 100.973732,203.927521 
	C109.746185,177.842850 124.401222,155.496094 144.461731,136.672928 
	C168.795975,113.839661 197.573654,99.927643 230.342056,94.272408 
	C245.820129,91.601173 261.431305,91.315437 277.486877,93.401001 
M184.013168,316.292877 
	C193.760895,343.542511 215.613953,355.337708 242.000107,361.082306 
	C242.000107,366.564392 241.949249,371.556915 242.011246,376.547974 
	C242.123108,385.552399 248.355011,391.773987 256.791504,392.072815 
	C264.486023,392.345398 272.555206,384.696838 272.057831,376.523804 
	C271.746582,371.409210 271.999878,366.260223 271.999878,360.975983 
	C273.613800,360.566315 274.877747,360.196350 276.162750,359.926849 
	C290.240967,356.973999 303.066376,351.347961 313.621490,341.418976 
	C328.017914,327.876526 334.906677,311.481201 330.952026,291.556885 
	C328.277191,278.080444 320.185822,268.115631 309.644531,259.738770 
	C298.596008,250.958801 286.576660,244.655838 272.261230,243.658447 
	C272.261230,223.725510 272.261230,203.983261 272.261230,184.194336 
	C281.779968,185.976395 290.882599,190.567947 296.041199,197.860672 
	C298.961884,201.989639 301.010773,207.256058 301.781219,212.267090 
	C303.036407,220.431351 308.821625,226.964249 316.572876,226.999512 
	C325.117859,227.038376 331.910950,220.645828 331.906403,212.003082 
	C331.904144,207.740295 331.328827,203.380203 330.318512,199.233276 
	C326.846863,184.983810 317.389069,175.057205 305.898895,166.812485 
	C295.841370,159.595749 284.939880,154.343826 272.000305,153.681656 
	C272.000305,148.075928 271.686554,142.572876 272.075531,137.119965 
	C272.627045,129.388428 264.740356,122.089226 256.532318,121.942314 
	C248.387726,121.796539 242.154556,128.358337 242.013260,136.945053 
	C241.939240,141.442368 242.208527,145.958359 241.858505,150.429565 
	C241.763550,151.642410 240.129654,153.522385 238.947968,153.744568 
	C220.852585,157.146881 205.517227,165.016052 193.759262,179.645157 
	C180.537903,196.095016 177.940475,216.740005 187.872009,235.243729 
	C198.556000,255.149292 216.433655,265.148895 237.701065,269.852478 
	C241.358276,270.661316 242.102341,271.989899 242.070923,275.371582 
	C241.914627,292.197937 242.003403,309.026550 241.991608,325.854370 
	C241.990738,327.097809 241.877441,328.341187 241.782089,330.283691 
	C237.523346,328.556183 233.832062,326.989655 230.090576,325.554016 
	C218.512817,321.111542 212.700165,312.616699 211.963394,300.339294 
	C211.580597,293.960266 206.142685,288.854828 198.227310,287.020996 
	C193.688324,285.969421 186.921677,289.507111 184.186279,294.248718 
	C180.120377,301.296631 182.202332,308.382050 184.013168,316.292877 
z"/>
<path fill="#B62E30" opacity="1.000000" stroke="none" 
	d="
M183.971283,315.886414 
	C182.202332,308.382050 180.120377,301.296631 184.186279,294.248718 
	C186.921677,289.507111 193.688324,285.969421 198.227310,287.020996 
	C206.142685,288.854828 211.580597,293.960266 211.963394,300.339294 
	C212.700165,312.616699 218.512817,321.111542 230.090576,325.554016 
	C233.832062,326.989655 237.523346,328.556183 241.782089,330.283691 
	C241.877441,328.341187 241.990738,327.097809 241.991608,325.854370 
	C242.003403,309.026550 241.914627,292.197937 242.070923,275.371582 
	C242.102341,271.989899 241.358276,270.661316 237.701065,269.852478 
	C216.433655,265.148895 198.556000,255.149292 187.872009,235.243729 
	C177.940475,216.740005 180.537903,196.095016 193.759262,179.645157 
	C205.517227,165.016052 220.852585,157.146881 238.947968,153.744568 
	C240.129654,153.522385 241.763550,151.642410 241.858505,150.429565 
	C242.208527,145.958359 241.939240,141.442368 242.013260,136.945053 
	C242.154556,128.358337 248.387726,121.796539 256.532318,121.942314 
	C264.740356,122.089226 272.627045,129.388428 272.075531,137.119965 
	C271.686554,142.572876 272.000305,148.075928 272.000305,153.681656 
	C284.939880,154.343826 295.841370,159.595749 305.898895,166.812485 
	C317.389069,175.057205 326.846863,184.983810 330.318512,199.233276 
	C331.328827,203.380203 331.904144,207.740295 331.906403,212.003082 
	C331.910950,220.645828 325.117859,227.038376 316.572876,226.999512 
	C308.821625,226.964249 303.036407,220.431351 301.781219,212.267090 
	C301.010773,207.256058 298.961884,201.989639 296.041199,197.860672 
	C290.882599,190.567947 281.779968,185.976395 272.261230,184.194336 
	C272.261230,203.983261 272.261230,223.725510 272.261230,243.658447 
	C286.576660,244.655838 298.596008,250.958801 309.644531,259.738770 
	C320.185822,268.115631 328.277191,278.080444 330.952026,291.556885 
	C334.906677,311.481201 328.017914,327.876526 313.621490,341.418976 
	C303.066376,351.347961 290.240967,356.973999 276.162750,359.926849 
	C274.877747,360.196350 273.613800,360.566315 271.999878,360.975983 
	C271.999878,366.260223 271.746582,371.409210 272.057831,376.523804 
	C272.555206,384.696838 264.486023,392.345398 256.791504,392.072815 
	C248.355011,391.773987 242.123108,385.552399 242.011246,376.547974 
	C241.949249,371.556915 242.000107,366.564392 242.000107,361.082306 
	C215.613953,355.337708 193.760895,343.542511 183.971283,315.886414 
M214.595001,202.318329 
	C211.222076,208.464020 211.564346,214.570938 214.262985,220.926193 
	C219.454391,233.151779 230.570419,236.320923 241.792053,239.913956 
	C241.792053,221.066864 241.792053,202.665771 241.792053,183.806335 
	C230.682053,186.960617 220.931503,191.415436 214.595001,202.318329 
M300.223633,309.397583 
	C302.695068,304.075317 302.565704,298.717102 299.964355,293.556458 
	C294.275604,282.271027 284.109619,277.207001 272.255493,273.824036 
	C272.255493,292.652374 272.255493,311.063995 272.255493,329.926575 
	C283.902832,326.451996 294.363342,321.731537 300.223633,309.397583 
z"/>
<path fill="#FEFEFE" opacity="1.000000" stroke="none" 
	d="
M214.777161,201.986694 
	C220.931503,191.415436 230.682053,186.960617 241.792053,183.806335 
	C241.792053,202.665771 241.792053,221.066864 241.792053,239.913956 
	C230.570419,236.320923 219.454391,233.151779 214.262985,220.926193 
	C211.564346,214.570938 211.222076,208.464020 214.777161,201.986694 
z"/>
<path fill="#FDFDFD" opacity="1.000000" stroke="none" 
	d="
M300.116760,309.754944 
	C294.363342,321.731537 283.902832,326.451996 272.255493,329.926575 
	C272.255493,311.063995 272.255493,292.652374 272.255493,273.824036 
	C284.109619,277.207001 294.275604,282.271027 299.964355,293.556458 
	C302.565704,298.717102 302.695068,304.075317 300.116760,309.754944 
z"/>
</svg>