<svg version="1.1" id="Layer_1" xmlns="http://www.w3.org/2000/svg" xmlns:xlink="http://www.w3.org/1999/xlink" x="0px" y="0px"
	 width="100%" viewBox="0 0 512 512" enable-background="new 0 0 512 512" xml:space="preserve">
<path fill="#000000" opacity="1.000000" stroke="none" 
	d="
M398.099365,381.081268 
	C376.566010,403.106659 339.950073,394.561646 330.455811,365.144775 
	C329.406311,361.893097 327.523987,361.297241 324.518768,361.307434 
	C302.356659,361.382660 280.194092,361.365051 258.031830,361.308655 
	C250.752487,361.290131 246.600067,355.491638 249.384186,349.383789 
	C251.163406,345.480438 254.473572,344.624023 258.455566,344.638611 
	C279.784485,344.716705 301.114716,344.573517 322.442352,344.755615 
	C326.953278,344.794159 330.016205,344.155060 331.071838,339.005280 
	C331.687378,336.002289 333.583588,333.261780 335.166565,329.833710 
	C299.112946,329.833710 263.495880,329.833710 227.410812,329.833710 
	C228.518799,335.062897 231.438629,339.197144 232.514694,344.038422 
	C237.066284,364.516235 225.190964,385.292114 204.992905,391.694916 
	C185.006653,398.030609 162.888428,387.658630 155.568893,367.911224 
	C153.579926,362.545197 151.002426,361.091644 145.510712,361.202423 
	C127.021889,361.575348 108.520767,361.346191 90.024361,361.330872 
	C83.253235,361.325287 80.678520,358.811584 80.672897,352.011017 
	C80.646980,320.683746 80.647911,289.356476 80.679947,258.029236 
	C80.686295,251.827225 83.701096,248.598801 89.162193,248.674774 
	C94.320274,248.746506 97.306343,251.998795 97.325737,257.882874 
	C97.380089,274.379486 97.467224,290.877899 97.266495,307.372223 
	C97.215515,311.561462 98.603394,312.751556 102.706047,312.745331 
	C170.859344,312.641785 239.012894,312.647278 307.166229,312.734436 
	C311.156586,312.739532 312.741852,311.668610 312.732605,307.393402 
	C312.617859,254.237274 312.677338,201.080795 312.642578,147.924454 
	C312.637604,140.327927 309.215118,137.346069 300.802185,137.345627 
	C230.982376,137.342056 161.162582,137.355621 91.342773,137.349121 
	C88.012115,137.348801 84.667664,137.373199 81.354004,137.095444 
	C76.161064,136.660141 72.493134,132.611252 72.763245,127.922127 
	C73.017525,123.507904 76.441383,120.692383 81.816833,120.690651 
	C156.968918,120.666397 232.121033,120.634239 307.273071,120.689720 
	C318.662811,120.698128 329.007935,131.391464 329.341400,143.040970 
	C329.617004,152.669937 329.617004,152.672302 339.384216,152.672546 
	C349.548889,152.672791 359.713654,152.689087 369.878265,152.660767 
	C391.529846,152.600433 409.313354,170.305511 409.347229,191.989151 
	C409.357117,198.321243 409.576569,204.664490 409.268616,210.981598 
	C409.060242,215.256958 410.276611,217.020615 414.828888,216.759338 
	C420.974152,216.406647 427.154877,216.688400 433.320282,216.666901 
	C455.691589,216.588913 473.336548,234.105011 473.344818,256.444855 
	C473.356567,288.105408 473.354553,319.765930 473.342133,351.426483 
	C473.339172,358.962952 471.001251,361.328705 463.610138,361.338226 
	C453.778717,361.350922 443.947144,361.368225 434.115936,361.322784 
	C427.913666,361.294159 424.625397,358.312347 424.672272,352.914276 
	C424.719269,347.506989 427.935669,344.717621 434.257233,344.680725 
	C440.255859,344.645691 446.256927,344.572968 452.252808,344.703979 
	C455.447449,344.773773 456.732056,343.552734 456.698883,340.306641 
	C456.566345,327.332581 457.694763,329.474030 446.333893,329.372772 
	C434.003998,329.262939 421.672211,329.336182 409.341400,329.378937 
	C407.550537,329.385162 405.675171,328.949890 403.334839,330.350555 
	C412.385437,348.081085 412.332825,365.230286 398.099365,381.081268 
M422.499939,312.673004 
	C431.994171,312.672699 441.493317,312.493011 450.980438,312.752625 
	C455.307800,312.871063 456.815521,311.510315 456.751068,307.074799 
	C456.528473,291.753784 456.685669,276.427460 456.667938,261.103210 
	C456.647247,243.213394 446.759674,233.363251 428.792084,233.347275 
	C404.306549,233.325500 379.821045,233.344620 355.335510,233.326920 
	C348.102112,233.321701 344.722076,230.680740 344.674133,225.096268 
	C344.625092,219.388702 347.949951,216.685852 355.098328,216.676346 
	C365.925262,216.661957 376.754608,216.541672 387.577881,216.741028 
	C391.552124,216.814224 392.892456,215.352859 392.720459,211.483810 
	C392.483978,206.164185 392.700928,200.825775 392.657684,195.495956 
	C392.528900,179.616409 382.211670,169.410782 366.204315,169.349487 
	C356.043793,169.310593 345.874054,169.596634 335.726105,169.237564 
	C330.615479,169.056747 329.227234,170.762985 329.247498,175.780579 
	C329.423828,219.420746 329.426056,263.062256 329.241150,306.702362 
	C329.220032,311.684082 330.900024,312.794800 335.551300,312.764801 
	C364.199860,312.580078 392.850159,312.672516 422.499939,312.673004 
M211.055267,338.496033 
	C201.062286,327.886047 188.769409,326.612122 178.225906,335.093933 
	C170.791397,341.074646 167.806442,351.813477 171.116241,360.672150 
	C174.549194,369.860443 184.286499,377.138550 193.268127,376.534424 
	C202.334747,375.924591 209.358871,371.469788 213.677353,363.353851 
	C218.197433,354.859009 216.995392,346.729584 211.055267,338.496033 
M349.333893,365.087524 
	C356.104279,374.461945 364.851776,378.177521 374.666321,375.526489 
	C385.880829,372.497314 393.374451,361.916046 392.335632,351.777527 
	C390.767914,336.477020 379.172058,329.386780 368.815674,329.603546 
	C351.928070,329.957001 339.413544,348.631042 349.333893,365.087524 
M106.600555,329.335358 
	C96.341255,329.368805 97.424156,328.387970 97.349472,338.850067 
	C97.344719,339.515839 97.400658,340.185303 97.349571,340.846954 
	C97.135185,343.623993 98.403114,344.704315 101.171227,344.693695 
	C117.317825,344.631805 133.464783,344.665680 149.611618,344.656708 
	C151.110413,344.655853 152.766708,344.764191 153.488312,343.063263 
	C155.336212,338.707367 157.086060,334.309906 159.116455,329.338013 
	C141.487610,329.338013 124.531593,329.338013 106.600555,329.335358 
z"/>
<path fill="#000000" opacity="1.000000" stroke="none" 
	d="
M133.999878,201.347473 
	C111.027779,201.343826 88.555641,201.363602 66.083633,201.321274 
	C59.636703,201.309143 56.101292,197.662003 56.697479,191.872314 
	C57.154629,187.432816 60.243729,184.733963 65.295258,184.698700 
	C76.281097,184.621994 87.267815,184.670273 98.254173,184.670181 
	C124.055473,184.669937 149.856781,184.659729 175.658066,184.680359 
	C181.923401,184.685364 185.238907,187.544113 185.326553,192.869476 
	C185.412354,198.081482 182.168091,201.288071 176.447632,201.316879 
	C162.465347,201.387299 148.482498,201.344528 133.999878,201.347473 
z"/>
<path fill="#000000" opacity="1.000000" stroke="none" 
	d="
M115.000084,216.673126 
	C140.961243,216.672195 166.422409,216.649185 191.883514,216.685013 
	C199.149384,216.695236 203.444412,222.473740 200.683151,228.484451 
	C199.249268,231.605698 196.747711,233.325958 193.186813,233.325272 
	C155.743988,233.318176 118.301109,233.352814 80.858414,233.283493 
	C75.861290,233.274246 72.732826,229.906662 72.673187,225.132553 
	C72.609863,220.062805 75.732819,216.758682 81.051552,216.708725 
	C92.200180,216.604004 103.350471,216.674713 115.000084,216.673126 
z"/>
<path fill="#000000" opacity="1.000000" stroke="none" 
	d="
M152.491913,165.026016 
	C150.391617,168.325317 147.688904,169.375122 144.219254,169.368591 
	C112.724686,169.309189 81.229927,169.360046 49.735279,169.324783 
	C43.919434,169.318283 40.691368,166.248642 40.671288,161.038391 
	C40.650627,155.677536 43.714378,152.699112 49.593201,152.691849 
	C81.087868,152.652939 112.582634,152.648010 144.077301,152.686996 
	C151.550797,152.696243 154.343567,156.681656 152.491913,165.026016 
z"/>
</svg>