<svg version="1.1" id="Layer_1" xmlns="http://www.w3.org/2000/svg" xmlns:xlink="http://www.w3.org/1999/xlink" x="0px" y="0px"
	 width="100%" viewBox="0 0 512 512" enable-background="new 0 0 512 512" xml:space="preserve">
<path fill="#FFFFFF" opacity="1.000000" stroke="none" 
	d="
M322.000000,1.000004 
	C385.629364,1.000000 449.258759,1.000000 512.944092,1.000000 
	C512.944092,171.666656 512.944092,342.333344 512.944092,513.000000 
	C498.587128,513.000000 484.262238,513.000000 469.604675,512.656006 
	C483.885040,508.516418 491.387756,495.741730 488.602997,480.609436 
	C484.805450,459.973541 481.572327,439.234467 477.979736,418.560028 
	C475.429779,403.885406 472.900085,389.201385 469.965088,374.601227 
	C467.269226,361.190704 460.214752,349.631256 450.178986,340.965271 
	C443.092621,334.846130 438.983917,329.340881 441.592194,320.030914 
	C442.030121,318.467865 442.252808,316.593170 441.814850,315.082886 
	C440.464417,310.425842 439.722321,305.151459 436.966400,301.434967 
	C431.299561,293.792969 423.076782,291.038544 413.340240,291.142120 
	C381.861694,291.477112 350.376801,291.179138 318.895874,291.371002 
	C314.647949,291.396881 312.635040,290.287140 312.920105,285.510773 
	C312.939758,276.708984 312.891510,268.371399 313.000793,259.710388 
	C324.407074,252.911896 333.543121,244.197678 340.998718,233.590454 
	C342.140289,231.966324 344.249176,230.437683 346.153198,230.047104 
	C351.184631,229.014984 356.340424,228.548676 361.462799,228.009491 
	C369.941101,227.117065 374.950897,221.975677 375.212616,213.495468 
	C375.361664,208.666901 375.023773,203.813583 375.380402,199.006683 
	C375.496887,197.436447 376.751953,195.266602 378.101257,194.580551 
	C388.513580,189.286499 393.218750,180.424316 393.743835,169.304840 
	C394.207153,159.493927 393.872986,149.643875 393.838623,139.811310 
	C393.791290,126.282318 383.572845,116.702209 375.924469,113.968475 
	C372.687164,112.811386 371.779755,111.823997 371.980499,108.857208 
	C372.104004,107.032341 372.094543,105.186623 371.980804,103.360474 
	C371.829773,100.935013 372.177246,98.160721 371.105072,96.193214 
	C369.848358,93.887108 367.454407,90.940254 365.271027,90.684448 
	C361.673492,90.262955 357.206665,91.245178 356.981415,96.390900 
	C356.632019,104.371788 356.832001,112.377373 356.446259,120.355423 
	C356.374573,121.838081 354.955841,123.900475 353.608307,124.545746 
	C350.566071,126.002548 347.179657,126.740608 343.425018,127.932388 
	C343.425018,125.683144 343.439362,123.877693 343.422760,122.072525 
	C343.287933,107.412872 343.234436,92.751770 342.979980,78.094162 
	C342.789368,67.115387 331.625854,54.933266 322.514618,53.467918 
	C311.900940,51.760929 300.939819,51.974339 290.123901,51.853531 
	C283.490143,51.779438 277.721405,54.587574 272.593994,58.923340 
	C265.258820,65.126022 251.971832,68.036263 243.513855,59.709259 
	C240.536682,56.778187 236.234406,54.157005 232.207321,53.537045 
	C222.888199,52.102383 213.375290,51.588013 203.927124,51.401695 
	C185.027771,51.028999 170.995224,65.848518 171.762360,84.424286 
	C172.291412,97.235023 171.863800,110.085274 171.863724,122.917862 
	C171.863724,124.501625 171.863739,126.085396 171.863739,128.099411 
	C168.117355,126.900932 164.997116,125.902771 161.602631,124.644974 
	C158.037781,123.867897 159.020264,121.290222 159.015060,119.340096 
	C158.958801,98.208496 158.960266,77.076759 158.975327,55.540779 
	C160.836899,40.594658 168.075958,29.583447 180.653763,22.093750 
	C188.298691,17.541430 196.752029,16.063446 205.477173,16.030413 
	C227.127609,15.948448 248.779541,15.878913 270.429047,16.044668 
	C286.369293,16.166714 302.316254,16.429071 318.242706,17.066603 
	C334.823792,17.730341 349.451813,31.212746 353.826202,45.474148 
	C355.601379,51.261551 355.894562,57.501659 356.886963,63.531693 
	C357.534363,67.465279 359.799408,69.802689 363.843353,69.974915 
	C367.324890,70.123184 370.677826,68.783836 370.864624,65.130791 
	C371.175934,59.042179 371.212616,52.763721 370.075195,46.811646 
	C367.285004,32.210308 358.847260,20.706478 347.033905,12.304890 
	C341.354095,8.265443 335.444641,3.227766 327.397339,3.458448 
	C325.623199,3.509305 323.800385,1.864168 322.000000,1.000004 
z"/>
<path fill="#FFFFFF" opacity="1.000000" stroke="none" 
	d="
M46.000000,513.000000 
	C31.008755,513.000000 16.017508,513.000000 1.019696,513.000000 
	C1.013131,342.441681 1.013131,171.883377 1.013131,1.000000 
	C65.020531,1.000000 129.041611,1.000000 193.341003,1.344047 
	C177.463928,4.065752 164.719788,12.217494 154.923279,25.023996 
	C146.565811,35.949287 143.221298,48.601330 143.189911,62.211784 
	C143.154587,77.536095 143.141739,92.860748 143.218536,108.184746 
	C143.232056,110.880402 142.879379,112.393623 139.768616,113.568695 
	C128.934601,117.661194 122.338898,125.589302 121.820381,137.411209 
	C121.339516,148.374619 121.332962,159.379562 121.685974,170.347916 
	C121.814827,174.351562 122.903534,178.647888 124.723206,182.214279 
	C130.727524,193.982147 141.091202,198.071945 153.743011,196.981049 
	C157.884949,196.623932 159.246338,198.135315 160.224152,202.092667 
	C166.259247,226.518051 179.619888,245.822449 201.416626,259.478821 
	C201.753632,269.241638 201.907990,278.642181 201.892151,288.415039 
	C201.191681,291.972992 198.725296,291.257507 196.663269,291.258209 
	C164.518295,291.269104 132.371902,291.446838 100.228905,291.194244 
	C82.532166,291.055206 71.314110,303.521881 73.717064,320.167053 
	C74.165771,323.275238 74.256981,326.525635 73.869286,329.629974 
	C73.637245,331.488007 72.593437,333.747040 71.163963,334.872528 
	C61.084816,342.807831 52.389935,352.246002 48.791954,364.458221 
	C44.149815,380.214539 41.121563,396.487762 38.097996,412.669128 
	C34.150642,433.794373 30.644081,455.011261 27.480705,476.268005 
	C26.531515,482.646149 26.246334,489.538605 27.637096,495.752197 
	C29.725494,505.082733 37.556492,509.692291 46.000000,513.000000 
z"/>
<path fill="#B52F31" opacity="1.000000" stroke="none" 
	d="
M46.468658,513.000000 
	C37.556492,509.692291 29.725494,505.082733 27.637096,495.752197 
	C26.246334,489.538605 26.531515,482.646149 27.480705,476.268005 
	C30.644081,455.011261 34.150642,433.794373 38.097996,412.669128 
	C41.121563,396.487762 44.149815,380.214539 48.791954,364.458221 
	C52.389935,352.246002 61.084816,342.807831 71.163963,334.872528 
	C72.593437,333.747040 73.637245,331.488007 73.869286,329.629974 
	C74.256981,326.525635 74.165771,323.275238 73.717064,320.167053 
	C71.314110,303.521881 82.532166,291.055206 100.228905,291.194244 
	C132.371902,291.446838 164.518295,291.269104 196.663269,291.258209 
	C198.725296,291.257507 201.191681,291.972992 202.220947,288.142212 
	C202.810440,278.788025 202.944702,270.078857 202.914139,261.370300 
	C202.911484,260.617096 201.819778,259.867676 201.233963,259.116516 
	C179.619888,245.822449 166.259247,226.518051 160.224152,202.092667 
	C159.246338,198.135315 157.884949,196.623932 153.743011,196.981049 
	C141.091202,198.071945 130.727524,193.982147 124.723206,182.214279 
	C122.903534,178.647888 121.814827,174.351562 121.685974,170.347916 
	C121.332962,159.379562 121.339516,148.374619 121.820381,137.411209 
	C122.338898,125.589302 128.934601,117.661194 139.768616,113.568695 
	C142.879379,112.393623 143.232056,110.880402 143.218536,108.184746 
	C143.141739,92.860748 143.154587,77.536095 143.189911,62.211784 
	C143.221298,48.601330 146.565811,35.949287 154.923279,25.023996 
	C164.719788,12.217494 177.463928,4.065752 193.809662,1.344047 
	C236.354233,1.000000 278.708466,1.000000 321.531342,1.000004 
	C323.800385,1.864168 325.623199,3.509305 327.397339,3.458448 
	C335.444641,3.227766 341.354095,8.265443 347.033905,12.304890 
	C358.847260,20.706478 367.285004,32.210308 370.075195,46.811646 
	C371.212616,52.763721 371.175934,59.042179 370.864624,65.130791 
	C370.677826,68.783836 367.324890,70.123184 363.843353,69.974915 
	C359.799408,69.802689 357.534363,67.465279 356.886963,63.531693 
	C355.894562,57.501659 355.601379,51.261551 353.826202,45.474148 
	C349.451813,31.212746 334.823792,17.730341 318.242706,17.066603 
	C302.316254,16.429071 286.369293,16.166714 270.429047,16.044668 
	C248.779541,15.878913 227.127609,15.948448 205.477173,16.030413 
	C196.752029,16.063446 188.298691,17.541430 180.653763,22.093750 
	C168.075958,29.583447 160.836899,40.594658 158.720642,55.871540 
	C158.293747,78.447098 158.180389,100.287895 157.974503,122.127815 
	C157.945251,125.230019 159.754944,125.138870 161.876877,124.904602 
	C164.997116,125.902771 168.117355,126.900932 171.863739,128.099411 
	C171.863739,126.085396 171.863724,124.501625 171.863724,122.917862 
	C171.863800,110.085274 172.291412,97.235023 171.762360,84.424286 
	C170.995224,65.848518 185.027771,51.028999 203.927124,51.401695 
	C213.375290,51.588013 222.888199,52.102383 232.207321,53.537045 
	C236.234406,54.157005 240.536682,56.778187 243.513855,59.709259 
	C251.971832,68.036263 265.258820,65.126022 272.593994,58.923340 
	C277.721405,54.587574 283.490143,51.779438 290.123901,51.853531 
	C300.939819,51.974339 311.900940,51.760929 322.514618,53.467918 
	C331.625854,54.933266 342.789368,67.115387 342.979980,78.094162 
	C343.234436,92.751770 343.287933,107.412872 343.422760,122.072525 
	C343.439362,123.877693 343.425018,125.683144 343.425018,127.932388 
	C347.179657,126.740608 350.566071,126.002548 353.608307,124.545746 
	C354.955841,123.900475 356.374573,121.838081 356.446259,120.355423 
	C356.832001,112.377373 356.632019,104.371788 356.981415,96.390900 
	C357.206665,91.245178 361.673492,90.262955 365.271027,90.684448 
	C367.454407,90.940254 369.848358,93.887108 371.105072,96.193214 
	C372.177246,98.160721 371.829773,100.935013 371.980804,103.360474 
	C372.094543,105.186623 372.104004,107.032341 371.980499,108.857208 
	C371.779755,111.823997 372.687164,112.811386 375.924469,113.968475 
	C383.572845,116.702209 393.791290,126.282318 393.838623,139.811310 
	C393.872986,149.643875 394.207153,159.493927 393.743835,169.304840 
	C393.218750,180.424316 388.513580,189.286499 378.101257,194.580551 
	C376.751953,195.266602 375.496887,197.436447 375.380402,199.006683 
	C375.023773,203.813583 375.361664,208.666901 375.212616,213.495468 
	C374.950897,221.975677 369.941101,227.117065 361.462799,228.009491 
	C356.340424,228.548676 351.184631,229.014984 346.153198,230.047104 
	C344.249176,230.437683 342.140289,231.966324 340.998718,233.590454 
	C333.543121,244.197678 324.407074,252.911896 312.681396,259.983093 
	C312.420380,269.044434 312.636261,277.509705 312.852173,285.974945 
	C312.635040,290.287140 314.647949,291.396881 318.895874,291.371002 
	C350.376801,291.179138 381.861694,291.477112 413.340240,291.142120 
	C423.076782,291.038544 431.299561,293.792969 436.966400,301.434967 
	C439.722321,305.151459 440.464417,310.425842 441.814850,315.082886 
	C442.252808,316.593170 442.030121,318.467865 441.592194,320.030914 
	C438.983917,329.340881 443.092621,334.846130 450.178986,340.965271 
	C460.214752,349.631256 467.269226,361.190704 469.965088,374.601227 
	C472.900085,389.201385 475.429779,403.885406 477.979736,418.560028 
	C481.572327,439.234467 484.805450,459.973541 488.602997,480.609436 
	C491.387756,495.741730 483.885040,508.516418 469.135986,512.656006 
	C328.312439,513.000000 187.624878,513.000000 46.468658,513.000000 
M136.987518,171.762680 
	C138.152130,181.954041 150.908661,184.955368 158.429779,182.312485 
	C158.618301,181.890320 158.970642,181.468521 158.971573,181.045929 
	C159.000092,168.054596 159.019363,155.063049 158.942841,142.072113 
	C158.937073,141.094620 158.210068,140.121368 156.978607,139.063217 
	C150.046677,138.924301 143.444229,138.288437 142.820923,128.634293 
	C142.324173,128.691681 141.827408,128.749054 141.330658,128.806427 
	C139.845932,131.533936 138.361206,134.261444 136.299820,137.593857 
	C136.201950,145.678787 136.017593,153.764053 136.050552,161.848450 
	C136.063004,164.901276 136.577896,167.952057 136.987518,171.762680 
M377.819855,135.275482 
	C376.060333,132.982101 374.300812,130.688736 371.855835,127.501892 
	C370.162170,137.331253 369.359711,138.053543 360.606415,138.948868 
	C359.465576,139.065567 358.314026,139.077911 356.366669,139.438339 
	C356.269623,153.215683 356.166107,166.992996 356.108002,180.770508 
	C356.106323,181.168976 356.585968,181.569458 357.278015,182.711441 
	C359.401367,182.806000 361.537903,183.098999 363.645599,182.958649 
	C370.505676,182.501862 376.610626,178.222397 378.524902,172.403900 
	C378.686035,162.322998 378.905914,152.242401 378.959839,142.160919 
	C378.970917,140.087845 378.361847,138.011444 377.819855,135.275482 
M297.995911,286.011261 
	C297.995911,280.263733 297.995911,274.516205 297.995911,268.185059 
	C270.869843,279.167755 244.157455,279.185944 217.136444,268.225525 
	C217.136444,276.382690 217.136444,283.674500 217.576523,291.664917 
	C218.392517,291.775574 219.208435,291.982361 220.024506,291.982910 
	C245.133224,291.999847 270.241943,292.003082 295.350647,291.974457 
	C296.436707,291.973206 297.522369,291.650146 299.131989,291.393463 
	C298.710663,289.670319 298.376770,288.304626 297.995911,286.011261 
M289.219482,67.108711 
	C286.133820,68.641777 282.613556,69.652237 280.035797,71.796036 
	C267.070068,82.578926 249.234283,82.489876 237.289856,73.534424 
	C230.618729,68.532700 223.805084,66.138924 215.632126,66.806122 
	C212.155792,67.089905 208.636963,66.848724 205.137482,66.854401 
	C194.119797,66.872276 190.305710,69.620232 186.218719,80.497047 
	C186.153763,99.276161 186.080872,118.055267 186.051346,136.834442 
	C186.050095,137.626953 186.451767,138.420074 186.683563,139.881317 
	C184.705368,146.325851 179.722672,148.243408 173.251602,148.224030 
	C173.251602,159.655457 172.928741,170.800873 173.370728,181.915909 
	C173.642883,188.759689 174.462555,195.712402 176.123199,202.344040 
	C179.982941,217.757523 188.444092,230.756531 200.627838,240.678848 
	C207.526413,246.297012 215.871185,250.354538 224.001190,254.189362 
	C233.518219,258.678406 243.714111,260.941437 254.385300,261.422028 
	C267.030884,261.991577 278.948151,259.042175 290.463287,254.618317 
	C302.190521,250.112961 312.490295,243.104630 322.026306,232.749527 
	C316.078308,233.507507 311.350555,233.915100 306.719055,234.816925 
	C305.298706,235.093475 303.760101,236.480515 302.932770,237.778015 
	C299.872375,242.577774 296.478638,247.365173 290.721619,248.475433 
	C283.302094,249.906296 275.668121,250.831314 268.123718,250.850204 
	C259.287567,250.872345 251.725082,242.017807 250.832718,233.218338 
	C249.778824,222.826157 258.878082,213.149536 266.431061,212.114182 
	C272.117462,211.334717 278.009003,211.877899 283.632416,210.857788 
	C290.344055,209.640289 295.089294,212.792923 299.028351,217.023926 
	C302.208008,220.439285 305.511719,219.766434 309.108246,219.394592 
	C313.844177,218.904907 318.565460,217.920410 323.301849,217.862076 
	C333.019470,217.742386 333.556580,217.259399 337.273529,208.006271 
	C345.090271,188.546936 340.658661,168.308578 342.137756,148.215714 
	C335.649139,148.001801 330.200348,146.981888 328.940857,138.950851 
	C328.959045,120.707680 328.995941,102.464470 328.958679,84.221413 
	C328.955811,82.817017 328.430878,81.413681 328.000183,79.275093 
	C326.490051,72.762596 322.480896,68.670601 315.438934,66.343170 
	C311.641998,66.229576 307.839874,65.937912 304.049408,66.047562 
	C299.336853,66.183876 294.633911,66.651810 289.219482,67.108711 
M150.021271,468.942963 
	C239.206024,468.942963 328.390778,468.942963 417.866180,468.942963 
	C417.866180,465.840729 417.866180,463.372925 417.762390,459.986053 
	C418.841614,439.774567 419.916412,419.562836 421.002869,399.351746 
	C421.323425,393.388336 421.652649,387.425232 422.019684,381.464569 
	C423.336151,360.085022 424.818726,338.714294 425.925110,317.324005 
	C426.367493,308.770905 424.118011,306.787445 415.536957,306.786133 
	C310.050415,306.770111 204.563858,306.770447 99.077301,306.786804 
	C91.214684,306.788025 88.596268,309.423492 88.995216,317.344910 
	C89.965805,336.617004 91.150375,355.878235 92.171204,375.147949 
	C92.560822,382.502716 92.568314,389.879852 93.050133,397.227112 
	C93.935760,410.732208 95.102722,424.218628 96.040077,437.720612 
	C96.757439,448.053589 97.301796,458.398560 97.938698,468.997681 
	C104.377243,468.997681 110.187363,468.968964 115.997040,469.007172 
	C120.312073,469.035553 122.634132,471.902863 123.566986,475.501007 
	C124.476326,479.008484 120.943550,482.655518 116.742722,483.120026 
	C114.434471,483.375275 112.088249,483.324615 109.758614,483.342560 
	C99.264587,483.423370 88.768982,483.402557 78.277084,483.592194 
	C75.219376,483.647430 72.691826,484.623322 71.837601,488.326996 
	C70.294640,495.016754 72.944275,497.991058 81.074135,497.991669 
	C198.559158,498.000732 316.044189,498.002045 433.529205,497.962433 
	C435.485504,497.961792 437.969788,498.070770 439.274567,496.995880 
	C441.254517,495.364838 443.756714,492.615845 443.568665,490.568542 
	C443.355225,488.244995 440.803925,485.538757 438.555115,484.182465 
	C436.645721,483.030884 433.721130,483.377106 431.245667,483.376251 
	C339.590668,483.344452 247.935699,483.350189 156.280716,483.344330 
	C154.449585,483.344208 152.617691,483.288208 150.787476,483.221893 
	C146.408508,483.063324 143.869156,480.543732 143.581573,476.430817 
	C143.322601,472.726868 144.819672,469.601990 150.021271,468.942963 
M432.587616,460.909271 
	C431.156250,468.272278 431.859528,469.144653 438.999817,468.863464 
	C445.905579,468.591522 456.918274,477.468811 457.957092,484.554810 
	C458.596588,488.917053 458.504944,493.386505 458.741821,497.812225 
	C471.072052,498.500824 475.179321,493.936554 473.124908,481.901794 
	C472.292969,477.028442 471.693726,472.115234 470.852814,467.243591 
	C465.911560,438.617523 461.052032,409.976410 455.901886,381.387756 
	C453.866180,370.087311 448.667542,360.266022 439.713287,351.362488 
	C438.755310,362.770599 437.795105,373.201691 437.025879,383.646851 
	C436.253510,394.135010 435.574646,404.632172 435.029266,415.134430 
	C434.251709,430.105988 433.633270,445.085785 432.587616,460.909271 
M51.005360,428.383881 
	C50.738152,429.156311 50.350201,429.909210 50.221474,430.704071 
	C47.394138,448.162781 44.863857,465.674988 41.698154,483.071655 
	C39.549141,494.881165 45.966282,499.726776 56.865875,497.315460 
	C56.577389,495.547577 56.182377,493.789581 56.017719,492.010284 
	C54.955021,480.526978 66.592094,466.554016 78.370926,468.945923 
	C80.795166,469.438232 83.060623,469.107605 82.802505,465.481445 
	C82.059715,455.046173 81.499969,444.598083 80.829941,434.157471 
	C79.567459,414.484955 78.275719,394.814270 77.001106,375.142517 
	C76.505806,367.498169 76.023972,359.852966 75.483505,351.385834 
	C68.213036,358.660065 62.899162,366.204498 60.950645,375.214844 
	C57.202862,392.545380 54.318371,410.062622 51.005360,428.383881 
M277.896057,235.975204 
	C280.433624,235.339127 283.239044,235.168427 285.420166,233.913040 
	C287.033051,232.984695 288.754333,230.615936 288.703735,228.940994 
	C288.663177,227.598511 285.998047,225.197037 284.556824,225.240265 
	C279.434814,225.393814 274.273804,226.094971 269.255341,227.179764 
	C266.130432,227.855240 265.327850,230.642624 266.374359,233.558914 
	C267.272858,236.062775 268.847534,237.341080 271.860352,236.144302 
	C273.421844,235.524017 275.365662,235.866287 277.896057,235.975204 
M355.771271,199.191986 
	C354.437286,203.888046 353.103302,208.584106 351.597961,213.883392 
	C353.336273,213.591675 354.558777,212.991226 355.472748,213.300980 
	C359.629761,214.709763 360.181458,212.596634 360.043304,209.206070 
	C359.882538,205.260254 360.005798,201.302872 360.005798,196.423309 
	C358.236328,197.286835 357.115265,197.833939 355.771271,199.191986 
z"/>
<path fill="#848484" opacity="1.000000" stroke="none" 
	d="
M161.602631,124.644974 
	C159.754944,125.138870 157.945251,125.230019 157.974503,122.127815 
	C158.180389,100.287895 158.293747,78.447098 158.691315,56.275818 
	C158.960266,77.076759 158.958801,98.208496 159.015060,119.340096 
	C159.020264,121.290222 158.037781,123.867897 161.602631,124.644974 
z"/>
<path fill="#070707" opacity="1.000000" stroke="none" 
	d="
M312.920105,285.510773 
	C312.636261,277.509705 312.420380,269.044434 312.523865,260.306488 
	C312.891510,268.371399 312.939758,276.708984 312.920105,285.510773 
z"/>
<path fill="#363636" opacity="1.000000" stroke="none" 
	d="
M201.416626,259.478821 
	C201.819778,259.867676 202.911484,260.617096 202.914139,261.370300 
	C202.944702,270.078857 202.810440,278.788025 202.391144,287.769836 
	C201.907990,278.642181 201.753632,269.241638 201.416626,259.478821 
z"/>
<path fill="#FEFEFE" opacity="1.000000" stroke="none" 
	d="
M149.112869,468.887299 
	C144.819672,469.601990 143.322601,472.726868 143.581573,476.430817 
	C143.869156,480.543732 146.408508,483.063324 150.787476,483.221893 
	C152.617691,483.288208 154.449585,483.344208 156.280716,483.344330 
	C247.935699,483.350189 339.590668,483.344452 431.245667,483.376251 
	C433.721130,483.377106 436.645721,483.030884 438.555115,484.182465 
	C440.803925,485.538757 443.355225,488.244995 443.568665,490.568542 
	C443.756714,492.615845 441.254517,495.364838 439.274567,496.995880 
	C437.969788,498.070770 435.485504,497.961792 433.529205,497.962433 
	C316.044189,498.002045 198.559158,498.000732 81.074135,497.991669 
	C72.944275,497.991058 70.294640,495.016754 71.837601,488.326996 
	C72.691826,484.623322 75.219376,483.647430 78.277084,483.592194 
	C88.768982,483.402557 99.264587,483.423370 109.758614,483.342560 
	C112.088249,483.324615 114.434471,483.375275 116.742722,483.120026 
	C120.943550,482.655518 124.476326,479.008484 123.566986,475.501007 
	C122.634132,471.902863 120.312073,469.035553 115.997040,469.007172 
	C110.187363,468.968964 104.377243,468.997681 97.938698,468.997681 
	C97.301796,458.398560 96.757439,448.053589 96.040077,437.720612 
	C95.102722,424.218628 93.935760,410.732208 93.050133,397.227112 
	C92.568314,389.879852 92.560822,382.502716 92.171204,375.147949 
	C91.150375,355.878235 89.965805,336.617004 88.995216,317.344910 
	C88.596268,309.423492 91.214684,306.788025 99.077301,306.786804 
	C204.563858,306.770447 310.050415,306.770111 415.536957,306.786133 
	C424.118011,306.787445 426.367493,308.770905 425.925110,317.324005 
	C424.818726,338.714294 423.336151,360.085022 422.019684,381.464569 
	C421.652649,387.425232 421.323425,393.388336 421.002869,399.351746 
	C419.916412,419.562836 418.841614,439.774567 417.624268,460.795532 
	C417.220917,463.680267 416.955750,465.755524 416.668976,467.999817 
	C414.503510,467.999817 412.683319,467.999847 410.863098,467.999847 
	C325.699890,467.999847 240.536697,467.993500 155.373505,468.036926 
	C153.286484,468.037994 151.199738,468.591461 149.112869,468.887299 
M324.498108,365.123077 
	C319.616638,351.223450 310.114136,340.697968 298.761963,332.039520 
	C286.348602,322.571686 271.572845,317.897766 256.172455,318.554382 
	C234.486435,319.479034 216.010452,327.617493 201.995575,345.575836 
	C188.786591,362.501556 183.910248,381.088501 187.361221,401.721558 
	C193.930344,440.997864 231.499207,465.941895 267.441498,460.130524 
	C293.039886,455.991638 311.444885,442.236420 322.417786,419.042999 
	C330.544373,401.865875 330.271698,383.866272 324.498108,365.123077 
z"/>
<path fill="#FEFEFE" opacity="1.000000" stroke="none" 
	d="
M186.901291,79.984970 
	C190.305710,69.620232 194.119797,66.872276 205.137482,66.854401 
	C208.636963,66.848724 212.155792,67.089905 215.632126,66.806122 
	C223.805084,66.138924 230.618729,68.532700 237.289856,73.534424 
	C249.234283,82.489876 267.070068,82.578926 280.035797,71.796036 
	C282.613556,69.652237 286.133820,68.641777 290.045410,67.108414 
	C299.262085,67.048927 307.652771,66.989746 316.043488,66.930573 
	C322.480896,68.670601 326.490051,72.762596 328.000305,80.105911 
	C327.999023,98.660439 327.970306,116.384232 328.035461,134.107697 
	C328.042511,136.023941 328.593597,137.938187 328.892334,139.853363 
	C330.200348,146.981888 335.649139,148.001801 342.137756,148.215714 
	C340.658661,168.308578 345.090271,188.546936 337.273529,208.006271 
	C333.556580,217.259399 333.019470,217.742386 323.301849,217.862076 
	C318.565460,217.920410 313.844177,218.904907 309.108246,219.394592 
	C305.511719,219.766434 302.208008,220.439285 299.028351,217.023926 
	C295.089294,212.792923 290.344055,209.640289 283.632416,210.857788 
	C278.009003,211.877899 272.117462,211.334717 266.431061,212.114182 
	C258.878082,213.149536 249.778824,222.826157 250.832718,233.218338 
	C251.725082,242.017807 259.287567,250.872345 268.123718,250.850204 
	C275.668121,250.831314 283.302094,249.906296 290.721619,248.475433 
	C296.478638,247.365173 299.872375,242.577774 302.932770,237.778015 
	C303.760101,236.480515 305.298706,235.093475 306.719055,234.816925 
	C311.350555,233.915100 316.078308,233.507507 322.026306,232.749527 
	C312.490295,243.104630 302.190521,250.112961 290.463287,254.618317 
	C278.948151,259.042175 267.030884,261.991577 254.385300,261.422028 
	C243.714111,260.941437 233.518219,258.678406 224.001190,254.189362 
	C215.871185,250.354538 207.526413,246.297012 200.627838,240.678848 
	C188.444092,230.756531 179.982941,217.757523 176.123199,202.344040 
	C174.462555,195.712402 173.642883,188.759689 173.370728,181.915909 
	C172.928741,170.800873 173.251602,159.655457 173.251602,148.224030 
	C179.722672,148.243408 184.705368,146.325851 186.788010,139.064850 
	C186.895401,118.827248 186.898346,99.406105 186.901291,79.984970 
z"/>
<path fill="#FDFDFD" opacity="1.000000" stroke="none" 
	d="
M432.767273,460.485657 
	C433.633270,445.085785 434.251709,430.105988 435.029266,415.134430 
	C435.574646,404.632172 436.253510,394.135010 437.025879,383.646851 
	C437.795105,373.201691 438.755310,362.770599 439.713287,351.362488 
	C448.667542,360.266022 453.866180,370.087311 455.901886,381.387756 
	C461.052032,409.976410 465.911560,438.617523 470.852814,467.243591 
	C471.693726,472.115234 472.292969,477.028442 473.124908,481.901794 
	C475.179321,493.936554 471.072052,498.500824 458.741821,497.812225 
	C458.504944,493.386505 458.596588,488.917053 457.957092,484.554810 
	C456.918274,477.468811 445.905579,468.591522 438.999817,468.863464 
	C431.859528,469.144653 431.156250,468.272278 432.767273,460.485657 
z"/>
<path fill="#FDFDFD" opacity="1.000000" stroke="none" 
	d="
M51.040604,427.943146 
	C54.318371,410.062622 57.202862,392.545380 60.950645,375.214844 
	C62.899162,366.204498 68.213036,358.660065 75.483505,351.385834 
	C76.023972,359.852966 76.505806,367.498169 77.001106,375.142517 
	C78.275719,394.814270 79.567459,414.484955 80.829941,434.157471 
	C81.499969,444.598083 82.059715,455.046173 82.802505,465.481445 
	C83.060623,469.107605 80.795166,469.438232 78.370926,468.945923 
	C66.592094,466.554016 54.955021,480.526978 56.017719,492.010284 
	C56.182377,493.789581 56.577389,495.547577 56.867069,497.315308 
	C45.966282,499.726776 39.549141,494.881165 41.698154,483.071655 
	C44.863857,465.674988 47.394138,448.162781 50.221474,430.704071 
	C50.350201,429.909210 50.738152,429.156311 51.040604,427.943146 
z"/>
<path fill="#FDFDFD" opacity="1.000000" stroke="none" 
	d="
M217.136444,290.966309 
	C217.136444,283.674500 217.136444,276.382690 217.136444,268.225525 
	C244.157455,279.185944 270.869843,279.167755 297.995911,268.185059 
	C297.995911,274.516205 297.995911,280.263733 297.927368,286.906311 
	C298.457855,291.115662 296.382141,291.054169 294.019073,291.048340 
	C268.391602,290.985107 242.764008,290.984192 217.136444,290.966309 
z"/>
<path fill="#FEFEFE" opacity="1.000000" stroke="none" 
	d="
M378.014648,173.074402 
	C376.610626,178.222397 370.505676,182.501862 363.645599,182.958649 
	C361.537903,183.098999 359.401367,182.806000 357.131836,181.876862 
	C357.046265,167.074371 357.106842,153.106476 357.167450,139.138565 
	C358.314026,139.077911 359.465576,139.065567 360.606415,138.948868 
	C369.359711,138.053543 370.162170,137.331253 371.855835,127.501892 
	C374.300812,130.688736 376.060333,132.982101 377.855286,136.076080 
	C377.932037,148.942581 377.973328,161.008484 378.014648,173.074402 
z"/>
<path fill="#FEFEFE" opacity="1.000000" stroke="none" 
	d="
M157.870117,181.964706 
	C150.908661,184.955368 138.152130,181.954041 136.990692,170.918045 
	C136.954727,159.045258 136.915604,148.017105 136.876480,136.988953 
	C138.361206,134.261444 139.845932,131.533936 141.330658,128.806427 
	C141.827408,128.749054 142.324173,128.691681 142.820923,128.634293 
	C143.444229,138.288437 150.046677,138.924301 157.452393,139.558075 
	C157.907501,154.023514 157.888809,167.994110 157.870117,181.964706 
z"/>
<path fill="#505050" opacity="1.000000" stroke="none" 
	d="
M149.567078,468.915131 
	C151.199738,468.591461 153.286484,468.037994 155.373505,468.036926 
	C240.536697,467.993500 325.699890,467.999847 410.863098,467.999847 
	C412.683319,467.999847 414.503510,467.999817 416.668976,467.999817 
	C416.955750,465.755524 417.220917,463.680267 417.676147,461.255066 
	C417.866180,463.372925 417.866180,465.840729 417.866180,468.942963 
	C328.390778,468.942963 239.206024,468.942963 149.567078,468.915131 
z"/>
<path fill="#FAFAFA" opacity="1.000000" stroke="none" 
	d="
M277.516418,235.874451 
	C275.365662,235.866287 273.421844,235.524017 271.860352,236.144302 
	C268.847534,237.341080 267.272858,236.062775 266.374359,233.558914 
	C265.327850,230.642624 266.130432,227.855240 269.255341,227.179764 
	C274.273804,226.094971 279.434814,225.393814 284.556824,225.240265 
	C285.998047,225.197037 288.663177,227.598511 288.703735,228.940994 
	C288.754333,230.615936 287.033051,232.984695 285.420166,233.913040 
	C283.239044,235.168427 280.433624,235.339127 277.516418,235.874451 
z"/>
<path fill="#FBFBFB" opacity="1.000000" stroke="none" 
	d="
M355.882751,198.786499 
	C357.115265,197.833939 358.236328,197.286835 360.005798,196.423309 
	C360.005798,201.302872 359.882538,205.260254 360.043304,209.206070 
	C360.181458,212.596634 359.629761,214.709763 355.472748,213.300980 
	C354.558777,212.991226 353.336273,213.591675 351.597961,213.883392 
	C353.103302,208.584106 354.437286,203.888046 355.882751,198.786499 
z"/>
<path fill="#7B7B7B" opacity="1.000000" stroke="none" 
	d="
M217.356476,291.315613 
	C242.764008,290.984192 268.391602,290.985107 294.019073,291.048340 
	C296.382141,291.054169 298.457855,291.115662 297.950867,287.370148 
	C298.376770,288.304626 298.710663,289.670319 299.131989,291.393463 
	C297.522369,291.650146 296.436707,291.973206 295.350647,291.974457 
	C270.241943,292.003082 245.133224,291.999847 220.024506,291.982910 
	C219.208435,291.982361 218.392517,291.775574 217.356476,291.315613 
z"/>
<path fill="#515151" opacity="1.000000" stroke="none" 
	d="
M328.916595,139.402100 
	C328.593597,137.938187 328.042511,136.023941 328.035461,134.107697 
	C327.970306,116.384232 327.999023,98.660439 328.074524,80.473297 
	C328.430878,81.413681 328.955811,82.817017 328.958679,84.221413 
	C328.995941,102.464470 328.959045,120.707680 328.916595,139.402100 
z"/>
<path fill="#272727" opacity="1.000000" stroke="none" 
	d="
M186.559998,80.241013 
	C186.898346,99.406105 186.895401,118.827248 186.779083,138.730652 
	C186.451767,138.420074 186.050095,137.626953 186.051346,136.834442 
	C186.080872,118.055267 186.153763,99.276161 186.559998,80.241013 
z"/>
<path fill="#3F3F3F" opacity="1.000000" stroke="none" 
	d="
M158.149948,182.138596 
	C157.888809,167.994110 157.907501,154.023514 157.872253,139.599548 
	C158.210068,140.121368 158.937073,141.094620 158.942841,142.072113 
	C159.019363,155.063049 159.000092,168.054596 158.971573,181.045929 
	C158.970642,181.468521 158.618301,181.890320 158.149948,182.138596 
z"/>
<path fill="#0F0F0F" opacity="1.000000" stroke="none" 
	d="
M356.767059,139.288452 
	C357.106842,153.106476 357.046265,167.074371 356.913391,181.505646 
	C356.585968,181.569458 356.106323,181.168976 356.108002,180.770508 
	C356.166107,166.992996 356.269623,153.215683 356.767059,139.288452 
z"/>
<path fill="#878787" opacity="1.000000" stroke="none" 
	d="
M378.269775,172.739151 
	C377.973328,161.008484 377.932037,148.942581 377.964661,136.406616 
	C378.361847,138.011444 378.970917,140.087845 378.959839,142.160919 
	C378.905914,152.242401 378.686035,162.322998 378.269775,172.739151 
z"/>
<path fill="#656565" opacity="1.000000" stroke="none" 
	d="
M136.588150,137.291412 
	C136.915604,148.017105 136.954727,159.045258 136.928802,170.538589 
	C136.577896,167.952057 136.063004,164.901276 136.050552,161.848450 
	C136.017593,153.764053 136.201950,145.678787 136.588150,137.291412 
z"/>
<path fill="#666666" opacity="1.000000" stroke="none" 
	d="
M315.741211,66.636871 
	C307.652771,66.989746 299.262085,67.048927 290.399109,67.042313 
	C294.633911,66.651810 299.336853,66.183876 304.049408,66.047562 
	C307.839874,65.937912 311.641998,66.229576 315.741211,66.636871 
z"/>
<path fill="#B53031" opacity="1.000000" stroke="none" 
	d="
M324.667603,365.485535 
	C330.271698,383.866272 330.544373,401.865875 322.417786,419.042999 
	C311.444885,442.236420 293.039886,455.991638 267.441498,460.130524 
	C231.499207,465.941895 193.930344,440.997864 187.361221,401.721558 
	C183.910248,381.088501 188.786591,362.501556 201.995575,345.575836 
	C216.010452,327.617493 234.486435,319.479034 256.172455,318.554382 
	C271.572845,317.897766 286.348602,322.571686 298.761963,332.039520 
	C310.114136,340.697968 319.616638,351.223450 324.667603,365.485535 
M307.679504,414.986328 
	C313.326141,403.770538 315.072906,391.779236 312.659180,379.655304 
	C308.402893,358.276062 295.825806,343.115662 274.937500,336.578827 
	C253.662842,329.921143 234.011383,334.076355 217.938889,350.210785 
	C202.063110,366.147675 196.090851,390.644836 206.774414,412.405396 
	C212.713333,407.730164 217.104294,402.214722 218.013092,394.411682 
	C218.988983,386.032532 219.943542,377.644196 221.233475,369.310303 
	C222.398865,361.781036 228.156006,356.955322 235.761810,355.813843 
	C243.843201,354.600952 251.885117,353.054626 259.877808,351.343567 
	C266.337036,349.960724 272.957581,352.697906 276.246857,358.615997 
	C278.423157,362.531616 276.948303,367.650818 272.259857,372.359955 
	C267.911011,376.727997 263.382874,380.933319 259.270782,385.512970 
	C257.761627,387.193756 257.218994,389.742432 256.235474,391.895172 
	C256.813721,392.385162 257.391968,392.875122 257.970184,393.365112 
	C259.923706,392.241638 262.172272,391.433899 263.775574,389.935669 
	C268.642090,385.388123 273.311005,380.623962 277.956024,375.846130 
	C281.362732,372.341980 285.910065,371.168793 289.724579,373.202911 
	C294.398193,375.695129 299.397339,379.076508 298.230957,385.974976 
	C296.632782,395.427124 295.213531,404.913025 293.415192,414.326691 
	C292.065247,421.393097 287.927490,426.403351 280.645477,427.739777 
	C272.998657,429.143097 265.268524,430.338959 257.522491,430.888794 
	C249.061005,431.489380 242.618820,435.108063 237.538696,441.462372 
	C246.230042,447.014709 256.313538,447.116028 265.166260,445.512909 
	C283.338806,442.222046 298.511047,432.980621 307.679504,414.986328 
M258.561493,415.251495 
	C264.619598,414.725800 270.685425,414.267944 276.725128,413.580536 
	C277.409332,413.502655 278.327393,412.204742 278.489441,411.349854 
	C279.479828,406.124573 280.283264,400.863892 281.148987,395.614990 
	C280.695831,395.345520 280.242706,395.076050 279.789551,394.806580 
	C277.736572,397.163910 276.072449,400.135101 273.541748,401.738251 
	C269.497070,404.300446 265.045135,407.035004 260.462036,407.748657 
	C252.845795,408.934662 247.164124,404.602570 243.485016,398.105591 
	C239.684128,391.393555 240.623123,383.603607 245.705002,377.717957 
	C248.452972,374.535339 251.493118,371.604950 255.239197,367.683868 
	C249.071320,368.748047 244.141495,369.397369 239.335892,370.560120 
	C238.030533,370.875977 236.368286,372.605865 236.125839,373.918701 
	C235.149002,379.208282 234.490723,384.573822 234.031921,389.938446 
	C232.976242,402.281982 229.026581,413.234619 219.611740,421.779358 
	C217.933884,423.302185 216.499939,425.093781 214.815048,426.910431 
	C216.242233,428.443665 217.345322,429.655396 218.481049,430.835754 
	C218.939636,431.312378 219.438660,432.048828 219.972672,432.098999 
	C221.677628,432.259277 224.266953,432.889496 224.996994,432.037598 
	C233.676804,421.908752 244.791397,416.837433 258.561493,415.251495 
z"/>
<path fill="#FCFCFC" opacity="1.000000" stroke="none" 
	d="
M307.479797,415.294708 
	C298.511047,432.980621 283.338806,442.222046 265.166260,445.512909 
	C256.313538,447.116028 246.230042,447.014709 237.538696,441.462372 
	C242.618820,435.108063 249.061005,431.489380 257.522491,430.888794 
	C265.268524,430.338959 272.998657,429.143097 280.645477,427.739777 
	C287.927490,426.403351 292.065247,421.393097 293.415192,414.326691 
	C295.213531,404.913025 296.632782,395.427124 298.230957,385.974976 
	C299.397339,379.076508 294.398193,375.695129 289.724579,373.202911 
	C285.910065,371.168793 281.362732,372.341980 277.956024,375.846130 
	C273.311005,380.623962 268.642090,385.388123 263.775574,389.935669 
	C262.172272,391.433899 259.923706,392.241638 257.970184,393.365112 
	C257.391968,392.875122 256.813721,392.385162 256.235474,391.895172 
	C257.218994,389.742432 257.761627,387.193756 259.270782,385.512970 
	C263.382874,380.933319 267.911011,376.727997 272.259857,372.359955 
	C276.948303,367.650818 278.423157,362.531616 276.246857,358.615997 
	C272.957581,352.697906 266.337036,349.960724 259.877808,351.343567 
	C251.885117,353.054626 243.843201,354.600952 235.761810,355.813843 
	C228.156006,356.955322 222.398865,361.781036 221.233475,369.310303 
	C219.943542,377.644196 218.988983,386.032532 218.013092,394.411682 
	C217.104294,402.214722 212.713333,407.730164 206.774414,412.405396 
	C196.090851,390.644836 202.063110,366.147675 217.938889,350.210785 
	C234.011383,334.076355 253.662842,329.921143 274.937500,336.578827 
	C295.825806,343.115662 308.402893,358.276062 312.659180,379.655304 
	C315.072906,391.779236 313.326141,403.770538 307.479797,415.294708 
z"/>
<path fill="#FBFBFB" opacity="1.000000" stroke="none" 
	d="
M258.187988,415.332947 
	C244.791397,416.837433 233.676804,421.908752 224.996994,432.037598 
	C224.266953,432.889496 221.677628,432.259277 219.972672,432.098999 
	C219.438660,432.048828 218.939636,431.312378 218.481049,430.835754 
	C217.345322,429.655396 216.242233,428.443665 214.815048,426.910431 
	C216.499939,425.093781 217.933884,423.302185 219.611740,421.779358 
	C229.026581,413.234619 232.976242,402.281982 234.031921,389.938446 
	C234.490723,384.573822 235.149002,379.208282 236.125839,373.918701 
	C236.368286,372.605865 238.030533,370.875977 239.335892,370.560120 
	C244.141495,369.397369 249.071320,368.748047 255.239197,367.683868 
	C251.493118,371.604950 248.452972,374.535339 245.705002,377.717957 
	C240.623123,383.603607 239.684128,391.393555 243.485016,398.105591 
	C247.164124,404.602570 252.845795,408.934662 260.462036,407.748657 
	C265.045135,407.035004 269.497070,404.300446 273.541748,401.738251 
	C276.072449,400.135101 277.736572,397.163910 279.789551,394.806580 
	C280.242706,395.076050 280.695831,395.345520 281.148987,395.614990 
	C280.283264,400.863892 279.479828,406.124573 278.489441,411.349854 
	C278.327393,412.204742 277.409332,413.502655 276.725128,413.580536 
	C270.685425,414.267944 264.619598,414.725800 258.187988,415.332947 
z"/>
</svg>