<svg version="1.1" id="Layer_1" xmlns="http://www.w3.org/2000/svg" xmlns:xlink="http://www.w3.org/1999/xlink" x="0px" y="0px"
	 width="100%" viewBox="0 0 512 512" enable-background="new 0 0 512 512" xml:space="preserve">
<path fill="#FFFFFF" opacity="1.000000" stroke="none" 
	d="
M1.000000,315.000000 
	C1.000000,210.385544 1.000000,105.771072 1.000000,1.078307 
	C171.666641,1.078307 342.333313,1.078307 513.000000,1.083036 
	C513.000000,17.746071 513.000000,34.404377 512.672119,51.383324 
	C510.374664,42.957748 501.342590,38.985668 492.173492,39.519497 
	C481.144470,40.161613 470.145935,41.365719 459.113556,41.901291 
	C446.839142,42.497150 434.540558,42.581909 422.254486,42.954674 
	C416.801147,43.120129 411.343781,43.326012 405.904510,43.732029 
	C399.947723,44.176678 393.738586,44.113014 389.303192,49.195347 
	C383.395172,55.965115 383.709991,64.095985 390.522705,71.046410 
	C398.425232,79.108711 406.604767,86.899429 415.502472,95.630760 
	C354.209503,155.886429 293.575256,215.494537 232.484985,275.550903 
	C232.387115,275.418091 231.717224,274.219574 230.783585,273.284302 
	C205.357346,247.813721 179.611313,222.653427 154.587677,196.793945 
	C143.270355,185.098602 125.180405,185.510071 114.239548,196.759430 
	C82.180382,229.722534 49.352749,261.938568 16.795837,294.416870 
	C10.610271,300.587524 4.002969,306.401581 1.000000,315.000000 
z"/>
<path fill="#FEFEFE" opacity="1.000000" stroke="none" 
	d="
M513.000000,78.000000 
	C513.000000,222.944687 513.000000,367.889374 513.000000,512.916992 
	C342.453796,512.916992 171.907516,512.916992 1.000000,512.916992 
	C1.000000,451.311157 1.000000,389.621613 1.331805,327.610046 
	C4.099763,336.360504 10.436208,342.612366 17.779957,347.503174 
	C29.047142,355.006958 41.342705,352.822693 51.974556,342.221924 
	C78.285858,315.987488 104.558662,289.714355 130.774612,263.384735 
	C132.027512,262.126434 132.585480,260.176147 133.467072,258.548126 
	C136.758560,260.882996 137.824768,262.370850 139.101013,263.649078 
	C164.294022,288.881165 189.505814,314.094543 214.728012,339.297455 
	C220.485001,345.050049 227.259109,348.546997 235.607666,347.968689 
	C243.461578,347.424652 249.533844,343.460327 255.009232,337.975861 
	C320.578308,272.298279 386.226471,206.699600 451.807587,141.034027 
	C453.195221,139.644638 454.032684,137.705795 455.461517,135.508499 
	C460.303070,140.573715 463.785278,144.378098 467.443542,148.004929 
	C472.527008,153.044724 477.637848,158.066544 482.934509,162.878662 
	C487.194672,166.749161 492.354614,167.140915 497.374817,164.814362 
	C504.739380,161.401367 508.546692,155.291321 508.929352,147.190399 
	C509.676514,131.371857 510.226562,115.543358 511.069092,99.730209 
	C511.455719,92.473114 512.340881,85.242577 513.000000,78.000000 
M151.717926,319.221222 
	C151.145386,320.518890 150.074692,321.815613 150.072281,323.114319 
	C149.986328,369.466705 149.991516,415.819275 150.037750,462.171783 
	C150.039337,463.753876 150.593369,465.335480 150.911713,467.669861 
	C152.514038,473.834076 157.441467,474.621948 162.602036,474.642670 
	C181.905624,474.720306 201.209824,474.711487 220.513565,474.656555 
	C229.797501,474.630127 233.033661,471.320557 233.039215,462.052826 
	C233.054947,435.759583 233.044739,409.466339 233.044739,383.173096 
	C233.044739,381.600922 233.044739,380.028717 233.044739,379.349243 
	C229.150299,378.556396 226.256149,377.981628 223.368332,377.376648 
	C213.480347,375.305084 203.972977,371.930542 196.662659,364.869110 
	C181.476898,350.200348 166.787827,335.017365 151.717926,319.221222 
M347.657013,466.365417 
	C347.770660,465.046814 347.983337,463.728241 347.983734,462.409607 
	C348.000244,405.640167 347.998718,348.870728 347.990051,292.101288 
	C347.989929,291.185425 347.873474,290.269592 347.757935,288.567719 
	C346.667816,289.737274 346.156982,290.285370 345.074707,291.144470 
	C322.576447,313.634033 300.106659,336.152222 277.551514,358.584564 
	C273.851776,362.264160 269.776520,365.566193 265.154449,369.496063 
	C265.103241,379.810181 264.995270,390.124359 265.012573,400.438354 
	C265.049438,422.399323 265.151367,444.360229 265.160950,466.996429 
	C266.921600,473.295563 271.740112,474.678314 277.451202,474.675568 
	C296.691498,474.666412 315.931824,474.686279 335.172028,474.648926 
	C336.811035,474.645721 338.461792,474.374603 340.085571,474.100464 
	C344.106964,473.421478 346.643829,471.213989 347.657013,466.365417 
M462.560181,431.500122 
	C462.560211,354.218842 462.567657,276.937561 462.547882,199.656281 
	C462.546051,192.572891 464.478943,184.813248 455.562561,180.736374 
	C456.070831,180.448181 455.741882,180.552628 455.525024,180.769272 
	C431.251099,205.015930 406.932648,229.218735 382.825134,253.629822 
	C380.999054,255.478897 379.788666,258.809021 379.782166,261.454376 
	C379.617523,328.242310 379.644043,395.030731 379.662292,461.819061 
	C379.664948,471.542175 382.755798,474.645691 392.444733,474.666382 
	C411.431854,474.706879 430.419128,474.699921 449.406311,474.669312 
	C459.159821,474.653595 462.503601,471.291962 462.550049,461.480560 
	C462.595764,451.820648 462.559937,442.160309 462.560181,431.500122 
M118.625282,334.512085 
	C118.625282,329.974274 118.625282,325.436432 118.625282,319.572968 
	C116.259735,321.563690 114.849213,322.587402 113.629402,323.802521 
	C101.592461,335.793213 89.344742,347.585205 77.641655,359.894531 
	C66.144981,371.986786 52.933117,380.458160 35.702984,382.306030 
	C35.702984,384.017975 35.702984,385.485229 35.702984,386.952484 
	C35.702976,411.771484 35.691757,436.590515 35.708324,461.409515 
	C35.715221,471.740051 38.663540,474.665863 49.057781,474.675842 
	C67.547089,474.693604 86.036980,474.597046 104.525528,474.717316 
	C113.359016,474.774750 118.639015,473.242828 118.632835,460.436035 
	C118.612740,418.793396 118.625168,377.150787 118.625282,334.512085 
z"/>
<path fill="#B72D2F" opacity="1.000000" stroke="none" 
	d="
M513.000000,77.562500 
	C512.340881,85.242577 511.455719,92.473114 511.069092,99.730209 
	C510.226562,115.543358 509.676514,131.371857 508.929352,147.190399 
	C508.546692,155.291321 504.739380,161.401367 497.374817,164.814362 
	C492.354614,167.140915 487.194672,166.749161 482.934509,162.878662 
	C477.637848,158.066544 472.527008,153.044724 467.443542,148.004929 
	C463.785278,144.378098 460.303070,140.573715 455.461517,135.508499 
	C454.032684,137.705795 453.195221,139.644638 451.807587,141.034027 
	C386.226471,206.699600 320.578308,272.298279 255.009232,337.975861 
	C249.533844,343.460327 243.461578,347.424652 235.607666,347.968689 
	C227.259109,348.546997 220.485001,345.050049 214.728012,339.297455 
	C189.505814,314.094543 164.294022,288.881165 139.101013,263.649078 
	C137.824768,262.370850 136.758560,260.882996 133.467072,258.548126 
	C132.585480,260.176147 132.027512,262.126434 130.774612,263.384735 
	C104.558662,289.714355 78.285858,315.987488 51.974556,342.221924 
	C41.342705,352.822693 29.047142,355.006958 17.779957,347.503174 
	C10.436208,342.612366 4.099763,336.360504 1.331805,327.144012 
	C1.000000,323.307098 1.000000,319.614166 1.000000,315.460632 
	C4.002969,306.401581 10.610271,300.587524 16.795837,294.416870 
	C49.352749,261.938568 82.180382,229.722534 114.239548,196.759430 
	C125.180405,185.510071 143.270355,185.098602 154.587677,196.793945 
	C179.611313,222.653427 205.357346,247.813721 230.783585,273.284302 
	C231.717224,274.219574 232.387115,275.418091 232.484985,275.550903 
	C293.575256,215.494537 354.209503,155.886429 415.502472,95.630760 
	C406.604767,86.899429 398.425232,79.108711 390.522705,71.046410 
	C383.709991,64.095985 383.395172,55.965115 389.303192,49.195347 
	C393.738586,44.113014 399.947723,44.176678 405.904510,43.732029 
	C411.343781,43.326012 416.801147,43.120129 422.254486,42.954674 
	C434.540558,42.581909 446.839142,42.497150 459.113556,41.901291 
	C470.145935,41.365719 481.144470,40.161613 492.173492,39.519497 
	C501.342590,38.985668 510.374664,42.957748 512.672119,51.851982 
	C513.000000,55.030594 513.000000,58.061188 512.690674,61.744442 
	C512.298706,63.615974 512.216125,64.834846 512.101013,66.440247 
	C512.378967,68.217850 512.689514,69.608925 513.000000,71.000000 
	C513.000000,73.041664 513.000000,75.083336 513.000000,77.562500 
z"/>
<path fill="#7E7E7E" opacity="1.000000" stroke="none" 
	d="
M513.000000,70.583336 
	C512.689514,69.608925 512.378967,68.217850 512.317749,66.435318 
	C512.567078,66.043869 513.000000,66.000000 513.000000,66.000000 
	C513.000000,67.388893 513.000000,68.777779 513.000000,70.583336 
z"/>
<path fill="#474747" opacity="1.000000" stroke="none" 
	d="
M513.000000,65.600006 
	C513.000000,66.000000 512.567078,66.043869 512.350342,66.048798 
	C512.216125,64.834846 512.298706,63.615974 512.690674,62.198551 
	C513.000000,63.066669 513.000000,64.133339 513.000000,65.600006 
z"/>
<path fill="#B72F31" opacity="1.000000" stroke="none" 
	d="
M462.560028,432.000122 
	C462.559937,442.160309 462.595764,451.820648 462.550049,461.480560 
	C462.503601,471.291962 459.159821,474.653595 449.406311,474.669312 
	C430.419128,474.699921 411.431854,474.706879 392.444733,474.666382 
	C382.755798,474.645691 379.664948,471.542175 379.662292,461.819061 
	C379.644043,395.030731 379.617523,328.242310 379.782166,261.454376 
	C379.788666,258.809021 380.999054,255.478897 382.825134,253.629822 
	C406.932648,229.218735 431.251099,205.015930 455.525024,180.769272 
	C455.741882,180.552628 456.070831,180.448181 455.562561,180.736374 
	C464.478943,184.813248 462.546051,192.572891 462.547882,199.656281 
	C462.567657,276.937561 462.560211,354.218842 462.560028,432.000122 
z"/>
<path fill="#B72E30" opacity="1.000000" stroke="none" 
	d="
M265.874817,369.042725 
	C269.776520,365.566193 273.851776,362.264160 277.551514,358.584564 
	C300.106659,336.152222 322.576447,313.634033 345.734924,291.230225 
	C346.597015,293.270325 346.972961,295.224487 346.975433,297.179108 
	C347.047089,353.784943 347.081421,410.390839 347.121704,466.996704 
	C346.643829,471.213989 344.106964,473.421478 340.085571,474.100464 
	C338.461792,474.374603 336.811035,474.645721 335.172028,474.648926 
	C315.931824,474.686279 296.691498,474.666412 277.451202,474.675568 
	C271.740112,474.678314 266.921600,473.295563 265.445007,466.290680 
	C265.777679,433.404205 265.826233,401.223480 265.874817,369.042725 
z"/>
<path fill="#B62F31" opacity="1.000000" stroke="none" 
	d="
M118.625175,335.010132 
	C118.625168,377.150787 118.612740,418.793396 118.632835,460.436035 
	C118.639015,473.242828 113.359016,474.774750 104.525528,474.717316 
	C86.036980,474.597046 67.547089,474.693604 49.057781,474.675842 
	C38.663540,474.665863 35.715221,471.740051 35.708324,461.409515 
	C35.691757,436.590515 35.702976,411.771484 35.702984,386.952484 
	C35.702984,385.485229 35.702984,384.017975 35.702984,382.306030 
	C52.933117,380.458160 66.144981,371.986786 77.641655,359.894531 
	C89.344742,347.585205 101.592461,335.793213 113.629402,323.802521 
	C114.849213,322.587402 116.259735,321.563690 118.625282,319.572968 
	C118.625282,325.436432 118.625282,329.974274 118.625175,335.010132 
z"/>
<path fill="#B72E30" opacity="1.000000" stroke="none" 
	d="
M151.894562,320.045776 
	C166.787827,335.017365 181.476898,350.200348 196.662659,364.869110 
	C203.972977,371.930542 213.480347,375.305084 223.368332,377.376648 
	C226.256149,377.981628 229.150299,378.556396 233.044739,379.349243 
	C233.044739,380.028717 233.044739,381.600922 233.044739,383.173096 
	C233.044739,409.466339 233.054947,435.759583 233.039215,462.052826 
	C233.033661,471.320557 229.797501,474.630127 220.513565,474.656555 
	C201.209824,474.711487 181.905624,474.720306 162.602036,474.642670 
	C157.441467,474.621948 152.514038,473.834076 150.944260,466.839294 
	C150.983765,419.250580 150.980225,372.492493 151.035553,325.734406 
	C151.037796,323.837860 151.595596,321.941986 151.894562,320.045776 
z"/>
<path fill="#474747" opacity="1.000000" stroke="none" 
	d="
M347.389374,466.681061 
	C347.081421,410.390839 347.047089,353.784943 346.975433,297.179108 
	C346.972961,295.224487 346.597015,293.270325 346.020630,291.074707 
	C346.156982,290.285370 346.667816,289.737274 347.757935,288.567719 
	C347.873474,290.269592 347.989929,291.185425 347.990051,292.101288 
	C347.998718,348.870728 348.000244,405.640167 347.983734,462.409607 
	C347.983337,463.728241 347.770660,465.046814 347.389374,466.681061 
z"/>
<path fill="#606060" opacity="1.000000" stroke="none" 
	d="
M151.806244,319.633484 
	C151.595596,321.941986 151.037796,323.837860 151.035553,325.734406 
	C150.980225,372.492493 150.983765,419.250580 150.933350,466.463013 
	C150.593369,465.335480 150.039337,463.753876 150.037750,462.171783 
	C149.991516,415.819275 149.986328,369.466705 150.072281,323.114319 
	C150.074692,321.815613 151.145386,320.518890 151.806244,319.633484 
z"/>
<path fill="#080808" opacity="1.000000" stroke="none" 
	d="
M265.514648,369.269409 
	C265.826233,401.223480 265.777679,433.404205 265.477844,465.953033 
	C265.151367,444.360229 265.049438,422.399323 265.012573,400.438354 
	C264.995270,390.124359 265.103241,379.810181 265.514648,369.269409 
z"/>
</svg>