<svg version="1.1" id="Layer_1" xmlns="http://www.w3.org/2000/svg" xmlns:xlink="http://www.w3.org/1999/xlink" x="0px" y="0px"
	 width="100%" viewBox="0 0 512 512" enable-background="new 0 0 512 512" xml:space="preserve">
<path fill="#FFFFFF" opacity="1.000000" stroke="none" 
	d="
M143.000000,513.000000 
	C95.689621,513.000000 48.379246,513.000000 1.034435,513.000000 
	C1.034435,342.439056 1.034435,171.878128 1.034435,1.000000 
	C82.354492,1.000000 163.709396,1.000000 245.431366,1.308507 
	C243.983414,3.280660 241.013870,4.702754 240.604263,6.660454 
	C239.853333,10.249484 237.436188,10.280640 235.041061,10.902586 
	C233.926285,11.192066 232.733429,11.172589 231.609207,11.435402 
	C207.854782,16.988640 191.969757,32.514839 180.283875,52.838779 
	C163.762924,81.571831 158.311356,113.334641 155.499924,145.915894 
	C145.935684,146.082596 136.835342,146.178268 127.397797,146.258057 
	C121.739540,147.917969 120.192596,151.999161 120.188919,157.050262 
	C120.182365,166.040436 120.182983,175.030594 120.187614,184.020767 
	C120.193169,194.803284 122.644768,197.293137 133.307556,197.293518 
	C227.204849,197.296951 321.102142,197.297134 414.999420,197.283447 
	C416.824707,197.283173 418.669403,197.237411 420.471222,196.978104 
	C424.094666,196.456650 426.474579,194.490524 427.336731,190.422943 
	C427.729187,179.768341 427.918671,169.410522 427.964233,159.052048 
	C427.973328,156.988144 427.432159,154.921814 427.137329,152.506744 
	C424.852997,150.188416 422.576050,148.219925 419.809021,146.152344 
	C411.358887,146.034882 403.396942,146.098709 395.440887,145.911407 
	C394.216827,145.882568 393.019958,144.698105 391.751465,143.630646 
	C391.477570,142.784637 391.128235,142.374313 391.067352,141.924911 
	C389.012085,126.754959 388.212830,111.289040 384.687927,96.471100 
	C378.053406,68.580925 366.757660,42.850021 343.089142,24.591595 
	C334.165833,17.707943 324.608856,12.204728 312.976013,11.340110 
	C311.372223,11.220908 308.550262,10.181605 308.494110,9.408424 
	C308.172852,4.983279 304.601440,3.429276 302.000000,1.000000 
	C372.303741,1.000000 442.607452,1.000000 512.955566,1.000000 
	C512.955566,171.565231 512.955566,342.130493 512.955566,513.000000 
	C408.978760,513.000000 304.957245,513.000000 200.575714,512.668884 
	C201.977875,510.253204 203.740036,508.168640 205.675812,505.631012 
	C205.900772,496.075958 205.886337,486.972900 206.030991,477.872375 
	C206.104065,473.274323 206.465027,468.680847 207.050262,464.145081 
	C211.108795,462.792938 214.974777,461.691376 218.465576,459.870575 
	C221.241287,458.422699 222.855576,458.940918 224.899445,461.045837 
	C232.444519,468.816376 240.140930,476.440826 247.825165,484.075165 
	C254.057831,490.267365 258.190002,490.281372 264.351898,484.174377 
	C270.151672,478.426178 275.962494,472.687256 281.665802,466.844116 
	C287.219910,461.153717 292.908600,455.560577 298.040283,449.502960 
	C302.065918,444.750916 301.463440,441.739105 297.231781,437.564850 
	C290.707214,431.128754 284.268677,424.605530 277.790070,418.122833 
	C270.484528,410.812683 270.482849,410.814362 274.211578,401.568024 
	C274.769440,400.184662 275.583923,398.845978 275.833527,397.409119 
	C276.389679,394.208099 278.333344,393.726837 281.188599,393.763092 
	C291.852478,393.898621 302.519196,393.839417 313.184723,393.809814 
	C322.291199,393.784515 325.261780,390.905243 325.287170,381.974792 
	C325.329803,366.976379 325.186890,351.976501 325.359711,336.979950 
	C325.420013,331.747314 324.031891,327.786346 318.487610,325.640869 
	C304.502472,325.241791 290.818726,325.099487 277.037506,324.595764 
	C274.869720,319.239471 272.799377,314.244537 270.712921,309.210754 
	C279.945374,299.610657 289.542542,289.740540 298.998749,279.737183 
	C302.157684,276.395477 301.699463,272.970978 298.445343,269.739441 
	C286.748657,258.123932 275.106537,246.453522 263.433716,234.813919 
	C257.066681,228.465042 254.050827,228.468979 247.564407,234.933578 
	C238.954590,243.514404 230.391541,252.142181 221.953369,260.604401 
	C216.538803,258.314240 211.281097,256.090454 206.014557,253.409729 
	C205.857605,239.593765 205.709518,226.234695 205.516815,212.546661 
	C203.101669,207.311111 198.740509,205.886551 193.800400,205.858856 
	C179.148102,205.776657 164.495056,205.820618 149.842300,205.832626 
	C139.946869,205.840729 137.285416,208.560715 137.270599,218.663055 
	C137.257401,227.654495 137.369080,236.647430 137.240814,245.637054 
	C137.095627,255.812729 139.021164,253.024124 129.292313,256.970612 
	C127.455917,257.715515 125.477470,258.282135 123.869545,259.378387 
	C121.414307,261.052307 119.914650,260.362885 117.996819,258.392273 
	C110.216904,250.398346 102.267654,242.568832 94.357475,234.702194 
	C88.806610,229.181900 84.386597,229.161255 78.782570,234.729156 
	C68.152184,245.290955 57.551537,255.883011 46.988400,266.512054 
	C40.808048,272.730957 40.887943,277.115967 47.202168,283.454559 
	C54.840401,291.122314 62.453602,298.817047 70.217278,306.356354 
	C72.171539,308.254120 72.599579,309.698944 71.345467,312.290283 
	C69.496742,316.110260 68.321228,320.256073 66.433624,324.464386 
	C54.156467,324.776093 42.304153,324.851135 30.453474,325.032745 
	C28.544712,325.062012 26.643229,325.566071 24.388073,325.879395 
	C22.105295,328.170898 20.172825,330.433685 18.144375,333.187561 
	C18.122917,351.205505 18.197439,368.732330 18.253090,386.595642 
	C19.825500,392.386139 24.040207,393.778137 29.044163,393.803986 
	C37.868858,393.849518 46.736244,394.350433 55.506039,393.655151 
	C63.069805,393.055450 68.346626,394.400299 69.665634,402.821350 
	C69.863846,404.086792 70.537994,405.352051 71.253090,406.446838 
	C72.782417,408.788086 72.278862,410.381012 70.268692,412.325378 
	C62.251286,420.080383 54.391682,428.000580 46.558048,435.942841 
	C41.085686,441.491119 40.953953,446.021729 46.250183,451.385223 
	C57.364353,462.640533 68.542709,473.833984 79.809738,484.936096 
	C85.100311,490.149200 89.455978,489.990601 94.860199,484.681824 
	C100.323936,479.314606 105.684143,473.842163 111.123940,468.450348 
	C114.427628,465.175842 117.393791,460.092682 121.250740,459.264557 
	C124.979622,458.463867 129.572235,462.360596 133.945709,463.650696 
	C136.875351,464.514893 137.335556,466.112366 137.310272,468.737427 
	C137.207626,479.392975 137.358658,490.051147 137.228333,500.706085 
	C137.165634,505.833435 138.333359,510.187225 143.000000,513.000000 
M325.944977,311.220978 
	C327.597260,315.596893 331.097382,316.970215 335.395874,316.997040 
	C339.391479,317.021973 343.387360,317.002350 348.533264,317.002350 
	C344.785461,320.683197 341.996033,323.306549 339.338867,326.057648 
	C334.484680,331.083405 334.409760,335.771698 339.311218,340.794464 
	C346.402130,348.060791 353.597931,355.226959 360.845886,362.337036 
	C365.948364,367.342438 370.465698,367.389648 375.579529,362.493530 
	C378.498260,359.699066 381.151550,356.627350 383.924377,353.680450 
	C384.997589,358.230164 384.991547,362.010590 384.998871,365.790985 
	C385.013153,373.159912 387.720459,376.458801 394.880280,376.646606 
	C405.359955,376.921539 415.853149,376.798981 426.338806,376.685089 
	C433.093994,376.611725 436.245728,372.133392 436.176392,366.213318 
	C436.130493,362.292725 436.167694,358.371185 436.167694,354.450073 
	C436.652527,354.124512 437.137329,353.798920 437.622162,353.473358 
	C440.456146,356.625549 443.127625,359.945312 446.163544,362.889282 
	C450.351501,366.950378 454.854858,367.372742 458.918701,363.515259 
	C467.244202,355.612396 475.337219,347.448944 483.227692,339.110504 
	C486.791412,335.344421 486.242401,331.511444 482.587769,327.812683 
	C479.392334,324.578644 476.210510,321.331146 471.953033,317.001892 
	C477.437439,317.001892 481.361450,317.083954 485.280731,316.983215 
	C491.615692,316.820374 493.984497,315.029053 495.952484,308.324402 
	C495.873291,296.467041 495.794067,284.609711 495.749969,272.100464 
	C493.402191,267.183838 489.229889,265.359222 484.073608,265.278809 
	C480.746338,265.226898 477.417542,265.269043 474.089447,265.269043 
	C473.925659,264.763611 473.761871,264.258148 473.598114,263.752716 
	C475.138123,262.472687 476.727844,261.246979 478.204285,259.897369 
	C479.678009,258.550140 481.112183,257.144196 482.434601,255.649796 
	C486.683014,250.848801 486.438843,246.866898 481.843567,242.315247 
	C474.624664,235.164886 467.406860,228.011856 460.292175,220.758377 
	C454.287109,214.636200 450.892548,214.569473 444.663025,220.711121 
	C442.067413,223.270157 439.418213,225.774857 436.066162,229.004974 
	C436.066162,223.051361 436.163147,218.387451 436.038422,213.729462 
	C435.918091,209.235504 432.916565,206.798096 428.960022,206.608582 
	C417.737671,206.071075 406.491058,205.947021 395.252563,205.871002 
	C387.990143,205.821854 385.062988,208.908966 385.004028,216.127579 
	C384.969910,220.308655 384.997864,224.490250 384.997864,228.927490 
	C383.850677,228.581451 383.645325,228.581085 383.538361,228.478317 
	C380.421997,225.483841 377.328339,222.465714 374.204224,219.479340 
	C369.763794,215.234589 366.962250,214.647278 362.634338,218.655807 
	C354.338867,226.339096 346.251373,234.290039 338.603333,242.613022 
	C334.034760,247.584747 334.792145,251.506271 339.797180,256.633575 
	C342.368103,259.267334 344.986816,261.854431 348.392120,265.274292 
	C343.161652,265.274292 339.304779,264.945251 335.530182,265.361725 
	C331.282410,265.830353 326.821869,266.563171 325.356903,272.682220 
	C325.234131,284.031128 325.081177,295.379944 325.031921,306.729156 
	C325.026550,307.963287 325.619659,309.199982 325.944977,311.220978 
z"/>
<path fill="#B52F31" opacity="1.000000" stroke="none" 
	d="
M206.023407,253.866638 
	C211.281097,256.090454 216.538803,258.314240 221.953369,260.604401 
	C230.391541,252.142181 238.954590,243.514404 247.564407,234.933578 
	C254.050827,228.468979 257.066681,228.465042 263.433716,234.813919 
	C275.106537,246.453522 286.748657,258.123932 298.445343,269.739441 
	C301.699463,272.970978 302.157684,276.395477 298.998749,279.737183 
	C289.542542,289.740540 279.945374,299.610657 270.712921,309.210754 
	C272.799377,314.244537 274.869720,319.239471 277.257812,324.944244 
	C291.313354,325.735291 305.051178,325.816498 318.789001,325.897675 
	C324.031891,327.786346 325.420013,331.747314 325.359711,336.979950 
	C325.186890,351.976501 325.329803,366.976379 325.287170,381.974792 
	C325.261780,390.905243 322.291199,393.784515 313.184723,393.809814 
	C302.519196,393.839417 291.852478,393.898621 281.188599,393.763092 
	C278.333344,393.726837 276.389679,394.208099 275.833527,397.409119 
	C275.583923,398.845978 274.769440,400.184662 274.211578,401.568024 
	C270.482849,410.814362 270.484528,410.812683 277.790070,418.122833 
	C284.268677,424.605530 290.707214,431.128754 297.231781,437.564850 
	C301.463440,441.739105 302.065918,444.750916 298.040283,449.502960 
	C292.908600,455.560577 287.219910,461.153717 281.665802,466.844116 
	C275.962494,472.687256 270.151672,478.426178 264.351898,484.174377 
	C258.190002,490.281372 254.057831,490.267365 247.825165,484.075165 
	C240.140930,476.440826 232.444519,468.816376 224.899445,461.045837 
	C222.855576,458.940918 221.241287,458.422699 218.465576,459.870575 
	C214.974777,461.691376 211.108795,462.792938 206.597870,464.232727 
	C205.694763,478.201782 205.598465,492.142914 205.502197,506.084076 
	C203.740036,508.168640 201.977875,510.253204 200.107849,512.668884 
	C181.312439,513.000000 162.624878,513.000000 143.468658,513.000000 
	C138.333359,510.187225 137.165634,505.833435 137.228333,500.706085 
	C137.358658,490.051147 137.207626,479.392975 137.310272,468.737427 
	C137.335556,466.112366 136.875351,464.514893 133.945709,463.650696 
	C129.572235,462.360596 124.979622,458.463867 121.250740,459.264557 
	C117.393791,460.092682 114.427628,465.175842 111.123940,468.450348 
	C105.684143,473.842163 100.323936,479.314606 94.860199,484.681824 
	C89.455978,489.990601 85.100311,490.149200 79.809738,484.936096 
	C68.542709,473.833984 57.364353,462.640533 46.250183,451.385223 
	C40.953953,446.021729 41.085686,441.491119 46.558048,435.942841 
	C54.391682,428.000580 62.251286,420.080383 70.268692,412.325378 
	C72.278862,410.381012 72.782417,408.788086 71.253090,406.446838 
	C70.537994,405.352051 69.863846,404.086792 69.665634,402.821350 
	C68.346626,394.400299 63.069805,393.055450 55.506039,393.655151 
	C46.736244,394.350433 37.868858,393.849518 29.044163,393.803986 
	C24.040207,393.778137 19.825500,392.386139 18.479794,386.219940 
	C18.800919,368.506775 18.883842,351.505798 18.921698,334.504700 
	C18.923038,333.902466 18.477583,333.299255 18.240360,332.696503 
	C20.172825,330.433685 22.105295,328.170898 24.873878,325.913513 
	C38.111038,325.944702 50.512512,326.022644 62.912495,325.919861 
	C64.232491,325.908905 65.543716,324.840790 66.859009,324.263092 
	C68.321228,320.256073 69.496742,316.110260 71.345467,312.290283 
	C72.599579,309.698944 72.171539,308.254120 70.217278,306.356354 
	C62.453602,298.817047 54.840401,291.122314 47.202168,283.454559 
	C40.887943,277.115967 40.808048,272.730957 46.988400,266.512054 
	C57.551537,255.883011 68.152184,245.290955 78.782570,234.729156 
	C84.386597,229.161255 88.806610,229.181900 94.357475,234.702194 
	C102.267654,242.568832 110.216904,250.398346 117.996819,258.392273 
	C119.914650,260.362885 121.414307,261.052307 123.869545,259.378387 
	C125.477470,258.282135 127.455917,257.715515 129.292313,256.970612 
	C139.021164,253.024124 137.095627,255.812729 137.240814,245.637054 
	C137.369080,236.647430 137.257401,227.654495 137.270599,218.663055 
	C137.285416,208.560715 139.946869,205.840729 149.842300,205.832626 
	C164.495056,205.820618 179.148102,205.776657 193.800400,205.858856 
	C198.740509,205.886551 203.101669,207.311111 205.353455,212.937332 
	C205.159607,226.379272 205.068665,239.101562 205.053070,251.823929 
	C205.052231,252.504410 205.685394,253.185699 206.023407,253.866638 
M154.038681,223.988998 
	C154.077942,236.712402 154.117203,249.435806 154.114304,262.880005 
	C152.072266,264.872894 150.366226,267.586304 147.925613,268.724426 
	C140.434540,272.217773 132.578247,274.920288 125.028336,278.297729 
	C120.046944,280.526123 116.118896,280.075134 112.248352,276.023010 
	C104.199707,267.596710 95.893448,259.416473 87.262260,250.700043 
	C79.995560,258.026276 73.068398,265.208466 65.896057,272.136871 
	C63.284729,274.659363 63.605854,276.295349 66.050758,278.613586 
	C73.889023,286.045807 81.749992,293.474030 89.166618,301.315735 
	C90.832031,303.076630 91.938232,306.903595 91.224304,309.105957 
	C88.441383,317.690826 84.750610,325.977386 81.539703,334.428925 
	C79.057037,340.963623 77.327805,342.339600 70.115379,342.385590 
	C60.283833,342.448303 50.451569,342.390869 40.619678,342.414398 
	C38.856144,342.418640 37.092949,342.565094 35.477600,342.639099 
	C35.477600,354.131836 35.477600,365.038452 35.477600,375.853210 
	C36.179543,376.008362 36.504414,376.142395 36.829571,376.143097 
	C47.661167,376.166199 58.505695,376.494781 69.319046,376.056396 
	C74.842789,375.832397 80.277824,380.568909 81.867264,384.911377 
	C84.418594,391.881866 87.298492,398.741058 90.274704,405.544403 
	C92.893044,411.529633 92.638176,414.385864 88.129707,418.966217 
	C82.285027,424.904175 76.349533,430.752686 70.453194,436.639771 
	C63.213127,443.868439 63.217293,443.864410 70.649109,451.447845 
	C70.973991,451.779297 70.999115,452.406799 71.326599,452.733124 
	C76.576241,457.964294 81.852417,463.168884 87.408020,468.661743 
	C95.931343,460.088287 104.089622,452.015869 112.087906,443.787933 
	C117.148262,438.582245 119.871063,437.917694 126.363518,441.145844 
	C132.810410,444.351349 138.998322,447.912415 146.210388,449.631989 
	C149.255386,450.358032 151.541489,454.266968 154.048325,457.699707 
	C154.034805,469.089233 153.985153,480.479004 154.056320,491.868011 
	C154.064651,493.199310 154.739761,494.526428 156.026169,495.940796 
	C166.795853,495.940796 177.565536,495.940796 188.758209,495.940796 
	C188.758209,483.541351 188.829208,471.741882 188.725281,459.943939 
	C188.680069,454.813080 190.729721,451.736725 195.738861,449.940399 
	C203.320786,447.221466 210.610260,443.697083 218.140076,440.818542 
	C222.082047,439.311584 226.410599,438.669861 229.855576,441.951233 
	C234.300552,446.185150 238.435852,450.745300 242.682175,455.186340 
	C247.009705,459.712372 251.310150,464.264343 255.538239,468.716248 
	C264.219849,459.975891 272.063049,452.079559 280.249023,443.838196 
	C271.921631,435.541748 263.345428,426.947784 254.708023,418.415771 
	C251.077637,414.829651 250.352600,411.101501 252.631012,406.307129 
	C255.962738,399.296356 258.864380,392.068176 261.673065,384.825531 
	C264.379517,377.846527 266.313324,376.225128 273.713562,376.201111 
	C285.046234,376.164337 296.379150,376.212891 308.368439,376.527130 
	C308.498016,365.326691 308.635223,354.126312 308.709015,342.925507 
	C308.710693,342.671051 307.993439,342.411896 306.742462,342.361206 
	C295.421600,342.374817 284.100708,342.384491 272.779846,342.404144 
	C268.574036,342.411438 264.759064,341.618042 262.927307,337.215820 
	C259.199249,328.256134 255.552597,319.262604 251.836304,310.297974 
	C250.458694,306.974823 251.345200,304.318085 253.763611,301.800659 
	C262.399078,292.811646 270.950409,283.741760 279.306427,274.941650 
	C272.019928,267.739105 263.918365,259.730865 255.478180,251.387924 
	C247.552277,259.383362 239.407043,267.698547 231.145370,275.896362 
	C226.382477,280.622406 223.989944,280.786377 217.994705,278.152252 
	C210.751541,274.969818 203.460800,271.862915 196.043945,269.120026 
	C191.219162,267.335724 188.659637,264.422180 188.699936,259.214874 
	C188.792694,247.231140 188.808823,235.246811 188.602417,222.439667 
	C177.429291,222.331299 166.256226,222.214920 155.082825,222.154694 
	C154.760208,222.152939 154.434387,222.746231 154.038681,223.988998 
z"/>
<path fill="#B62E30" opacity="1.000000" stroke="none" 
	d="
M301.531342,1.000000 
	C304.601440,3.429276 308.172852,4.983279 308.494110,9.408424 
	C308.550262,10.181605 311.372223,11.220908 312.976013,11.340110 
	C324.608856,12.204728 334.165833,17.707943 343.089142,24.591595 
	C366.757660,42.850021 378.053406,68.580925 384.687927,96.471100 
	C388.212830,111.289040 389.012085,126.754959 391.067352,141.924911 
	C391.128235,142.374313 391.477570,142.784637 391.481262,143.899460 
	C391.738342,145.384293 392.214661,146.883209 392.673798,146.877975 
	C401.883423,146.772995 411.091095,146.494751 420.299133,146.251434 
	C422.576050,148.219925 424.852997,150.188416 427.089203,152.981262 
	C427.060059,166.110245 427.071625,178.414871 427.083191,190.719482 
	C426.474579,194.490524 424.094666,196.456650 420.471222,196.978104 
	C418.669403,197.237411 416.824707,197.283173 414.999420,197.283447 
	C321.102142,197.297134 227.204849,197.296951 133.307556,197.293518 
	C122.644768,197.293137 120.193169,194.803284 120.187614,184.020767 
	C120.182983,175.030594 120.182365,166.040436 120.188919,157.050262 
	C120.192596,151.999161 121.739540,147.917969 127.774323,146.484192 
	C137.331375,146.817322 146.174683,146.920395 155.018234,146.950485 
	C155.332169,146.951553 155.648560,146.229736 155.963806,145.844849 
	C158.311356,113.334641 163.762924,81.571831 180.283875,52.838779 
	C191.969757,32.514839 207.854782,16.988640 231.609207,11.435402 
	C232.733429,11.172589 233.926285,11.192066 235.041061,10.902586 
	C237.436188,10.280640 239.853333,10.249484 240.604263,6.660454 
	C241.013870,4.702754 243.983414,3.280660 245.899231,1.308507 
	C264.354218,1.000000 282.708466,1.000000 301.531342,1.000000 
M205.758438,147.331940 
	C205.838959,150.813019 205.716171,154.313873 206.052277,157.770096 
	C206.458344,161.945648 204.898911,163.230728 200.702835,163.187286 
	C181.594009,162.989426 162.481995,163.100571 143.371124,163.100586 
	C141.611008,163.100586 139.850891,163.100586 137.773102,163.100586 
	C137.773102,169.094757 137.773102,174.400833 137.470673,180.364532 
	C138.218918,180.575836 138.967117,180.972000 139.715439,180.972229 
	C229.113693,180.999863 318.511963,181.001266 407.910217,180.948624 
	C408.704132,180.948151 409.497620,180.201691 410.367493,178.894638 
	C410.367493,173.784958 410.367493,168.675293 410.367493,163.002609 
	C347.572540,163.002609 285.369049,163.002609 223.109039,163.002609 
	C223.109039,157.291260 223.109039,152.152374 224.031509,147.000549 
	C272.506653,147.000046 320.981812,147.011902 369.456848,146.950653 
	C371.260132,146.948380 373.062531,146.234329 374.736053,145.045639 
	C374.490967,143.927765 374.056946,142.814606 374.028931,141.691315 
	C373.550598,122.510033 369.868469,103.865120 363.893005,85.731667 
	C357.956238,67.715706 349.522797,51.053543 334.257233,38.863392 
	C326.762054,32.878189 318.380005,28.851324 308.032135,27.744761 
	C308.032135,53.188728 308.032135,78.224266 308.032135,103.163139 
	C302.319122,103.163139 297.215546,103.163139 292.020538,102.209213 
	C292.013184,75.845993 292.024872,49.482719 291.953461,23.119663 
	C291.948944,21.455971 291.296600,19.794033 290.017853,18.057781 
	C279.095154,18.057781 268.172485,18.057781 256.758179,18.057781 
	C256.758179,46.907330 256.758179,75.114449 256.758179,103.370712 
	C250.982758,103.370712 245.713974,103.370712 239.932098,103.370712 
	C239.932098,78.082817 239.932098,53.038261 239.932098,27.741558 
	C230.561905,28.517454 222.761826,32.189949 215.804337,37.170033 
	C204.645401,45.157440 196.967209,56.205101 191.181290,68.516968 
	C179.677521,92.995819 174.701920,118.988457 173.431000,146.533981 
	C183.956940,146.645721 194.482895,146.757462 205.758438,147.331940 
z"/>
<path fill="#B62F31" opacity="1.000000" stroke="none" 
	d="
M325.880798,272.053802 
	C326.821869,266.563171 331.282410,265.830353 335.530182,265.361725 
	C339.304779,264.945251 343.161652,265.274292 348.392120,265.274292 
	C344.986816,261.854431 342.368103,259.267334 339.797180,256.633575 
	C334.792145,251.506271 334.034760,247.584747 338.603333,242.613022 
	C346.251373,234.290039 354.338867,226.339096 362.634338,218.655807 
	C366.962250,214.647278 369.763794,215.234589 374.204224,219.479340 
	C377.328339,222.465714 380.421997,225.483841 383.538361,228.478317 
	C383.645325,228.581085 383.850677,228.581451 384.997864,228.927490 
	C384.997864,224.490250 384.969910,220.308655 385.004028,216.127579 
	C385.062988,208.908966 387.990143,205.821854 395.252563,205.871002 
	C406.491058,205.947021 417.737671,206.071075 428.960022,206.608582 
	C432.916565,206.798096 435.918091,209.235504 436.038422,213.729462 
	C436.163147,218.387451 436.066162,223.051361 436.066162,229.004974 
	C439.418213,225.774857 442.067413,223.270157 444.663025,220.711121 
	C450.892548,214.569473 454.287109,214.636200 460.292175,220.758377 
	C467.406860,228.011856 474.624664,235.164886 481.843567,242.315247 
	C486.438843,246.866898 486.683014,250.848801 482.434601,255.649796 
	C481.112183,257.144196 479.678009,258.550140 478.204285,259.897369 
	C476.727844,261.246979 475.138123,262.472687 473.598114,263.752716 
	C473.761871,264.258148 473.925659,264.763611 474.089447,265.269043 
	C477.417542,265.269043 480.746338,265.226898 484.073608,265.278809 
	C489.229889,265.359222 493.402191,267.183838 495.512329,272.804443 
	C495.182129,280.896698 494.979919,288.285889 495.037598,295.673035 
	C495.073059,300.219269 495.505524,304.762390 495.759735,309.306915 
	C493.984497,315.029053 491.615692,316.820374 485.280731,316.983215 
	C481.361450,317.083954 477.437439,317.001892 471.953033,317.001892 
	C476.210510,321.331146 479.392334,324.578644 482.587769,327.812683 
	C486.242401,331.511444 486.791412,335.344421 483.227692,339.110504 
	C475.337219,347.448944 467.244202,355.612396 458.918701,363.515259 
	C454.854858,367.372742 450.351501,366.950378 446.163544,362.889282 
	C443.127625,359.945312 440.456146,356.625549 437.622162,353.473358 
	C437.137329,353.798920 436.652527,354.124512 436.167694,354.450073 
	C436.167694,358.371185 436.130493,362.292725 436.176392,366.213318 
	C436.245728,372.133392 433.093994,376.611725 426.338806,376.685089 
	C415.853149,376.798981 405.359955,376.921539 394.880280,376.646606 
	C387.720459,376.458801 385.013153,373.159912 384.998871,365.790985 
	C384.991547,362.010590 384.997589,358.230164 383.924377,353.680450 
	C381.151550,356.627350 378.498260,359.699066 375.579529,362.493530 
	C370.465698,367.389648 365.948364,367.342438 360.845886,362.337036 
	C353.597931,355.226959 346.402130,348.060791 339.311218,340.794464 
	C334.409760,335.771698 334.484680,331.083405 339.338867,326.057648 
	C341.996033,323.306549 344.785461,320.683197 348.533264,317.002350 
	C343.387360,317.002350 339.391479,317.021973 335.395874,316.997040 
	C331.097382,316.970215 327.597260,315.596893 325.940369,310.415771 
	C325.917480,297.091644 325.899139,284.572723 325.880798,272.053802 
M363.994263,281.995941 
	C358.002136,282.036835 352.007751,282.191101 346.018890,282.069946 
	C343.096039,282.010834 341.696106,282.826660 341.903778,286.006165 
	C342.120331,289.321472 342.090515,292.669403 341.910675,295.989105 
	C341.751343,298.930023 342.669708,300.220886 345.833374,300.101959 
	C351.816528,299.877045 357.811737,299.973511 364.550293,299.992920 
	C374.457916,305.864044 375.665955,314.151367 367.693634,322.046387 
	C363.956543,325.747223 360.093018,329.320435 356.490295,332.757416 
	C360.863464,337.359070 364.514984,341.201355 368.494629,345.388947 
	C372.759247,340.990906 376.796936,336.811523 380.852203,332.649323 
	C384.634705,328.767029 388.996460,327.825195 393.970215,330.138428 
	C401.508453,333.644440 402.025848,335.703979 402.038483,341.594147 
	C402.050842,347.361145 402.041138,353.128204 402.041138,358.897308 
	C407.997894,358.897308 413.268799,358.897308 419.003174,358.897308 
	C419.003174,353.061829 418.979614,347.439484 419.008820,341.817444 
	C419.049988,333.894073 426.316132,327.675659 434.185699,329.028015 
	C435.603546,329.271667 437.020233,330.414124 438.118378,331.472656 
	C442.986053,336.164734 447.737427,340.977448 452.179443,345.396851 
	C456.406891,341.406555 460.520416,337.523834 465.237274,333.071564 
	C460.932251,329.020935 456.952087,324.986176 452.661285,321.314453 
	C447.648254,317.024689 447.500275,312.276215 449.995331,306.597717 
	C452.356049,301.224976 456.327820,299.403442 461.854309,299.566406 
	C467.450836,299.731415 473.055969,299.602783 478.672272,299.602783 
	C478.672272,293.703308 478.672272,288.594452 478.672272,282.996979 
	C477.161591,282.996979 475.876556,282.996979 474.591492,282.996979 
	C470.092590,282.996948 465.591156,282.902527 461.095398,283.021088 
	C455.609528,283.165771 452.289825,280.652863 449.939178,275.683075 
	C447.355652,270.220978 447.835480,265.655762 452.044678,261.483124 
	C456.246155,257.318176 460.551849,253.258423 464.367798,249.580505 
	C460.023315,244.933594 456.402954,241.061249 452.497223,236.883621 
	C448.265228,241.231613 444.270111,245.462967 440.136261,249.554184 
	C433.717316,255.906906 423.069855,253.562012 419.720428,244.279129 
	C419.720428,237.019012 419.720428,229.758881 419.720428,221.556686 
	C413.653839,222.073120 407.893372,222.563507 402.054993,223.981323 
	C402.050476,229.628616 401.899994,235.280640 402.082062,240.921906 
	C402.268188,246.689163 399.604797,250.002197 394.328278,252.113770 
	C389.100555,254.205795 384.854797,253.941208 380.895355,249.597351 
	C376.799561,245.103882 372.376373,240.908844 368.506226,236.997437 
	C364.203522,241.337662 360.402222,245.172150 355.024902,250.596375 
	C359.409271,254.300217 364.227539,258.088501 368.718231,262.231842 
	C375.136108,268.153442 373.116608,278.177460 363.994263,281.995941 
z"/>
<path fill="#101010" opacity="1.000000" stroke="none" 
	d="
M18.144381,333.187561 
	C18.477583,333.299255 18.923038,333.902466 18.921698,334.504700 
	C18.883842,351.505798 18.800919,368.506775 18.498665,385.883484 
	C18.197439,368.732330 18.122917,351.205505 18.144381,333.187561 
z"/>
<path fill="#494949" opacity="1.000000" stroke="none" 
	d="
M66.433624,324.464386 
	C65.543716,324.840790 64.232491,325.908905 62.912495,325.919861 
	C50.512512,326.022644 38.111038,325.944702 25.224186,325.884796 
	C26.643229,325.566071 28.544712,325.062012 30.453474,325.032745 
	C42.304153,324.851135 54.156467,324.776093 66.433624,324.464386 
z"/>
<path fill="#4A4A4A" opacity="1.000000" stroke="none" 
	d="
M318.487610,325.640869 
	C305.051178,325.816498 291.313354,325.735291 277.355225,325.305664 
	C290.818726,325.099487 304.502472,325.241791 318.487610,325.640869 
z"/>
<path fill="#313131" opacity="1.000000" stroke="none" 
	d="
M205.675812,505.631012 
	C205.598465,492.142914 205.694763,478.201782 206.243439,464.172974 
	C206.465027,468.680847 206.104065,473.274323 206.030991,477.872375 
	C205.886337,486.972900 205.900772,496.075958 205.675812,505.631012 
z"/>
<path fill="#313131" opacity="1.000000" stroke="none" 
	d="
M206.014557,253.409729 
	C205.685394,253.185699 205.052231,252.504410 205.053070,251.823929 
	C205.068665,239.101562 205.159607,226.379272 205.398102,213.266312 
	C205.709518,226.234695 205.857605,239.593765 206.014557,253.409729 
z"/>
<path fill="#4C4C4C" opacity="1.000000" stroke="none" 
	d="
M325.618835,272.368011 
	C325.899139,284.572723 325.917480,297.091644 325.935486,310.023010 
	C325.619659,309.199982 325.026550,307.963287 325.031921,306.729156 
	C325.081177,295.379944 325.234131,284.031128 325.618835,272.368011 
z"/>
<path fill="#5A5A5A" opacity="1.000000" stroke="none" 
	d="
M427.336731,190.422943 
	C427.071625,178.414871 427.060059,166.110245 427.096588,153.331116 
	C427.432159,154.921814 427.973328,156.988144 427.964233,159.052048 
	C427.918671,169.410522 427.729187,179.768341 427.336731,190.422943 
z"/>
<path fill="#101010" opacity="1.000000" stroke="none" 
	d="
M495.856110,308.815674 
	C495.505524,304.762390 495.073059,300.219269 495.037598,295.673035 
	C494.979919,288.285889 495.182129,280.896698 495.494751,273.130371 
	C495.794067,284.609711 495.873291,296.467041 495.856110,308.815674 
z"/>
<path fill="#101010" opacity="1.000000" stroke="none" 
	d="
M419.809021,146.152344 
	C411.091095,146.494751 401.883423,146.772995 392.673798,146.877975 
	C392.214661,146.883209 391.738342,145.384293 391.540283,144.316925 
	C393.019958,144.698105 394.216827,145.882568 395.440887,145.911407 
	C403.396942,146.098709 411.358887,146.034882 419.809021,146.152344 
z"/>
<path fill="#101010" opacity="1.000000" stroke="none" 
	d="
M155.499924,145.915894 
	C155.648560,146.229736 155.332169,146.951553 155.018234,146.950485 
	C146.174683,146.920395 137.331375,146.817322 128.111511,146.500076 
	C136.835342,146.178268 145.935684,146.082596 155.499924,145.915894 
z"/>
<path fill="#FDFDFD" opacity="1.000000" stroke="none" 
	d="
M154.172531,456.729126 
	C151.541489,454.266968 149.255386,450.358032 146.210388,449.631989 
	C138.998322,447.912415 132.810410,444.351349 126.363518,441.145844 
	C119.871063,437.917694 117.148262,438.582245 112.087906,443.787933 
	C104.089622,452.015869 95.931343,460.088287 87.408020,468.661743 
	C81.852417,463.168884 76.576241,457.964294 71.326599,452.733124 
	C70.999115,452.406799 70.973991,451.779297 70.649109,451.447845 
	C63.217293,443.864410 63.213127,443.868439 70.453194,436.639771 
	C76.349533,430.752686 82.285027,424.904175 88.129707,418.966217 
	C92.638176,414.385864 92.893044,411.529633 90.274704,405.544403 
	C87.298492,398.741058 84.418594,391.881866 81.867264,384.911377 
	C80.277824,380.568909 74.842789,375.832397 69.319046,376.056396 
	C58.505695,376.494781 47.661167,376.166199 36.829571,376.143097 
	C36.504414,376.142395 36.179543,376.008362 35.477600,375.853210 
	C35.477600,365.038452 35.477600,354.131836 35.477600,342.639099 
	C37.092949,342.565094 38.856144,342.418640 40.619678,342.414398 
	C50.451569,342.390869 60.283833,342.448303 70.115379,342.385590 
	C77.327805,342.339600 79.057037,340.963623 81.539703,334.428925 
	C84.750610,325.977386 88.441383,317.690826 91.224304,309.105957 
	C91.938232,306.903595 90.832031,303.076630 89.166618,301.315735 
	C81.749992,293.474030 73.889023,286.045807 66.050758,278.613586 
	C63.605854,276.295349 63.284729,274.659363 65.896057,272.136871 
	C73.068398,265.208466 79.995560,258.026276 87.262260,250.700043 
	C95.893448,259.416473 104.199707,267.596710 112.248352,276.023010 
	C116.118896,280.075134 120.046944,280.526123 125.028336,278.297729 
	C132.578247,274.920288 140.434540,272.217773 147.925613,268.724426 
	C150.366226,267.586304 152.072266,264.872894 154.391724,262.179810 
	C154.821991,248.687927 154.974823,235.896225 155.585831,223.055023 
	C166.981354,223.091263 177.918701,223.176987 188.856049,223.262711 
	C188.808823,235.246811 188.792694,247.231140 188.699936,259.214874 
	C188.659637,264.422180 191.219162,267.335724 196.043945,269.120026 
	C203.460800,271.862915 210.751541,274.969818 217.994705,278.152252 
	C223.989944,280.786377 226.382477,280.622406 231.145370,275.896362 
	C239.407043,267.698547 247.552277,259.383362 255.478180,251.387924 
	C263.918365,259.730865 272.019928,267.739105 279.306427,274.941650 
	C270.950409,283.741760 262.399078,292.811646 253.763611,301.800659 
	C251.345200,304.318085 250.458694,306.974823 251.836304,310.297974 
	C255.552597,319.262604 259.199249,328.256134 262.927307,337.215820 
	C264.759064,341.618042 268.574036,342.411438 272.779846,342.404144 
	C284.100708,342.384491 295.421600,342.374817 307.297913,342.699768 
	C307.806274,354.100647 307.759125,365.162964 307.711975,376.225220 
	C296.379150,376.212891 285.046234,376.164337 273.713562,376.201111 
	C266.313324,376.225128 264.379517,377.846527 261.673065,384.825531 
	C258.864380,392.068176 255.962738,399.296356 252.631012,406.307129 
	C250.352600,411.101501 251.077637,414.829651 254.708023,418.415771 
	C263.345428,426.947784 271.921631,435.541748 280.249023,443.838196 
	C272.063049,452.079559 264.219849,459.975891 255.538239,468.716248 
	C251.310150,464.264343 247.009705,459.712372 242.682175,455.186340 
	C238.435852,450.745300 234.300552,446.185150 229.855576,441.951233 
	C226.410599,438.669861 222.082047,439.311584 218.140076,440.818542 
	C210.610260,443.697083 203.320786,447.221466 195.738861,449.940399 
	C190.729721,451.736725 188.680069,454.813080 188.725281,459.943939 
	C188.829208,471.741882 188.758209,483.541351 188.758209,495.940796 
	C177.565536,495.940796 166.795853,495.940796 155.532715,495.442749 
	C155.025360,485.131714 155.072433,475.318054 154.960297,465.506195 
	C154.926819,462.577911 154.447556,459.654663 154.172531,456.729126 
M135.328461,417.199585 
	C157.824463,431.970032 191.589508,431.892517 215.468002,411.433228 
	C236.068176,393.782806 242.634094,371.564819 238.618347,345.976227 
	C235.651505,327.071198 224.066452,313.051239 208.275574,302.702637 
	C203.019424,299.257996 197.342224,295.711975 191.364136,294.297485 
	C183.548859,292.448273 175.231064,292.036285 167.153458,292.198853 
	C160.656647,292.329620 153.879761,293.349976 147.782593,295.529449 
	C133.974915,300.465118 123.189507,309.367920 114.897987,321.788208 
	C104.471169,337.407013 101.171913,354.255127 104.563042,372.303192 
	C108.134514,391.311066 118.503014,406.175323 135.328461,417.199585 
z"/>
<path fill="#686868" opacity="1.000000" stroke="none" 
	d="
M155.127655,223.104538 
	C154.974823,235.896225 154.821991,248.687927 154.412811,261.819397 
	C154.117203,249.435806 154.077942,236.712402 154.329254,223.516998 
	C154.789108,223.064850 154.958389,223.084686 155.127655,223.104538 
z"/>
<path fill="#686868" opacity="1.000000" stroke="none" 
	d="
M154.110428,457.214417 
	C154.447556,459.654663 154.926819,462.577911 154.960297,465.506195 
	C155.072433,475.318054 155.025360,485.131714 155.072510,495.400085 
	C154.739761,494.526428 154.064651,493.199310 154.056320,491.868011 
	C153.985153,480.479004 154.034805,469.089233 154.110428,457.214417 
z"/>
<path fill="#1F1F1F" opacity="1.000000" stroke="none" 
	d="
M155.585831,223.055023 
	C154.958389,223.084686 154.789108,223.064850 154.364960,223.053528 
	C154.434387,222.746231 154.760208,222.152939 155.082825,222.154694 
	C166.256226,222.214920 177.429291,222.331299 188.729233,222.851196 
	C177.918701,223.176987 166.981354,223.091263 155.585831,223.055023 
z"/>
<path fill="#2E2E2E" opacity="1.000000" stroke="none" 
	d="
M308.040222,376.376190 
	C307.759125,365.162964 307.806274,354.100647 307.732483,342.596649 
	C307.993439,342.411896 308.710693,342.671051 308.709015,342.925507 
	C308.635223,354.126312 308.498016,365.326691 308.040222,376.376190 
z"/>
<path fill="#FEFEFE" opacity="1.000000" stroke="none" 
	d="
M223.109039,147.013489 
	C223.109039,152.152374 223.109039,157.291260 223.109039,163.002609 
	C285.369049,163.002609 347.572540,163.002609 410.367493,163.002609 
	C410.367493,168.675293 410.367493,173.784958 409.838806,179.438110 
	C320.116882,179.988525 230.923660,179.996719 141.730453,179.990082 
	C140.411331,179.989975 139.092224,179.805389 137.773102,179.706909 
	C137.773102,174.400833 137.773102,169.094757 137.773102,163.100586 
	C139.850891,163.100586 141.611008,163.100586 143.371124,163.100586 
	C162.481995,163.100571 181.594009,162.989426 200.702835,163.187286 
	C204.898911,163.230728 206.458344,161.945648 206.052277,157.770096 
	C205.716171,154.313873 205.838959,150.813019 205.169006,146.727600 
	C194.275711,146.034317 183.971878,145.945374 173.668030,145.856445 
	C174.701920,118.988457 179.677521,92.995819 191.181290,68.516968 
	C196.967209,56.205101 204.645401,45.157440 215.804337,37.170033 
	C222.761826,32.189949 230.561905,28.517454 239.932098,27.741558 
	C239.932098,53.038261 239.932098,78.082817 239.932098,103.370712 
	C245.713974,103.370712 250.982758,103.370712 256.758179,103.370712 
	C256.758179,75.114449 256.758179,46.907330 256.758179,18.057781 
	C268.172485,18.057781 279.095154,18.057781 290.499695,18.550678 
	C290.988342,45.465752 290.975647,71.887978 291.049377,98.309967 
	C291.053894,99.928665 291.741913,101.545456 292.111938,103.163139 
	C297.215546,103.163139 302.319122,103.163139 308.032135,103.163139 
	C308.032135,78.224266 308.032135,53.188728 308.032135,27.744761 
	C318.380005,28.851324 326.762054,32.878189 334.257233,38.863392 
	C349.522797,51.053543 357.956238,67.715706 363.893005,85.731667 
	C369.868469,103.865120 373.550598,122.510033 374.028931,141.691315 
	C374.056946,142.814606 374.490967,143.927765 374.346283,145.494141 
	C325.292511,145.962357 276.628479,145.972336 227.964523,146.044250 
	C226.345566,146.046631 224.727509,146.676254 223.109039,147.013489 
z"/>
<path fill="#2F2F2F" opacity="1.000000" stroke="none" 
	d="
M137.621887,180.035721 
	C139.092224,179.805389 140.411331,179.989975 141.730453,179.990082 
	C230.923660,179.996719 320.116882,179.988525 409.800690,179.892548 
	C409.497620,180.201691 408.704132,180.948151 407.910217,180.948624 
	C318.511963,181.001266 229.113693,180.999863 139.715439,180.972229 
	C138.967117,180.972000 138.218918,180.575836 137.621887,180.035721 
z"/>
<path fill="#0F0F0F" opacity="1.000000" stroke="none" 
	d="
M223.570282,147.007019 
	C224.727509,146.676254 226.345566,146.046631 227.964523,146.044250 
	C276.628479,145.972336 325.292511,145.962357 374.410919,145.897308 
	C373.062531,146.234329 371.260132,146.948380 369.456848,146.950653 
	C320.981812,147.011902 272.506653,147.000046 223.570282,147.007019 
z"/>
<path fill="#1F1F1F" opacity="1.000000" stroke="none" 
	d="
M292.066223,102.686172 
	C291.741913,101.545456 291.053894,99.928665 291.049377,98.309967 
	C290.975647,71.887978 290.988342,45.465752 290.963593,18.587429 
	C291.296600,19.794033 291.948944,21.455971 291.953461,23.119663 
	C292.024872,49.482719 292.013184,75.845993 292.066223,102.686172 
z"/>
<path fill="#0F0F0F" opacity="1.000000" stroke="none" 
	d="
M173.549515,146.195221 
	C183.971878,145.945374 194.275711,146.034317 204.794189,146.496216 
	C194.482895,146.757462 183.956940,146.645721 173.549515,146.195221 
z"/>
<path fill="#FCFCFC" opacity="1.000000" stroke="none" 
	d="
M419.470428,245.075974 
	C423.069855,253.562012 433.717316,255.906906 440.136261,249.554184 
	C444.270111,245.462967 448.265228,241.231613 452.497223,236.883621 
	C456.402954,241.061249 460.023315,244.933594 464.367798,249.580505 
	C460.551849,253.258423 456.246155,257.318176 452.044678,261.483124 
	C447.835480,265.655762 447.355652,270.220978 449.939178,275.683075 
	C452.289825,280.652863 455.609528,283.165771 461.095398,283.021088 
	C465.591156,282.902527 470.092590,282.996948 474.591492,282.996979 
	C475.876556,282.996979 477.161591,282.996979 478.672272,282.996979 
	C478.672272,288.594452 478.672272,293.703308 478.672272,299.602783 
	C473.055969,299.602783 467.450836,299.731415 461.854309,299.566406 
	C456.327820,299.403442 452.356049,301.224976 449.995331,306.597717 
	C447.500275,312.276215 447.648254,317.024689 452.661285,321.314453 
	C456.952087,324.986176 460.932251,329.020935 465.237274,333.071564 
	C460.520416,337.523834 456.406891,341.406555 452.179443,345.396851 
	C447.737427,340.977448 442.986053,336.164734 438.118378,331.472656 
	C437.020233,330.414124 435.603546,329.271667 434.185699,329.028015 
	C426.316132,327.675659 419.049988,333.894073 419.008820,341.817444 
	C418.979614,347.439484 419.003174,353.061829 419.003174,358.897308 
	C413.268799,358.897308 407.997894,358.897308 402.041138,358.897308 
	C402.041138,353.128204 402.050842,347.361145 402.038483,341.594147 
	C402.025848,335.703979 401.508453,333.644440 393.970215,330.138428 
	C388.996460,327.825195 384.634705,328.767029 380.852203,332.649323 
	C376.796936,336.811523 372.759247,340.990906 368.494629,345.388947 
	C364.514984,341.201355 360.863464,337.359070 356.490295,332.757416 
	C360.093018,329.320435 363.956543,325.747223 367.693634,322.046387 
	C375.665955,314.151367 374.457916,305.864044 363.858276,299.738739 
	C356.487305,299.484558 349.808380,299.484558 343.169495,299.484558 
	C343.169495,293.357758 343.169495,288.464691 343.169495,283.113159 
	C345.894287,283.113159 348.343079,283.222992 350.778534,283.089691 
	C355.490875,282.831787 360.195740,282.436920 364.903687,282.098816 
	C373.116608,278.177460 375.136108,268.153442 368.718231,262.231842 
	C364.227539,258.088501 359.409271,254.300217 355.024902,250.596375 
	C360.402222,245.172150 364.203522,241.337662 368.506226,236.997437 
	C372.376373,240.908844 376.799561,245.103882 380.895355,249.597351 
	C384.854797,253.941208 389.100555,254.205795 394.328278,252.113770 
	C399.604797,250.002197 402.268188,246.689163 402.082062,240.921906 
	C401.899994,235.280640 402.050476,229.628616 402.549438,223.499588 
	C408.259399,223.017853 413.474945,223.017853 419.470428,223.017853 
	C419.470428,230.685928 419.470428,237.880951 419.470428,245.075974 
M434.823792,315.301117 
	C443.943512,305.912170 446.421967,294.365173 443.348450,282.270477 
	C439.966553,268.962219 426.139282,255.870407 406.861267,257.600769 
	C393.315369,258.816650 384.231110,266.163086 379.192352,278.103760 
	C373.977173,290.462494 375.831818,302.445740 384.436066,313.005402 
	C396.604279,327.938873 419.530457,329.606140 434.823792,315.301117 
z"/>
<path fill="#8F8F8F" opacity="1.000000" stroke="none" 
	d="
M364.448975,282.047363 
	C360.195740,282.436920 355.490875,282.831787 350.778534,283.089691 
	C348.343079,283.222992 345.894287,283.113159 343.169495,283.113159 
	C343.169495,288.464691 343.169495,293.357758 343.169495,299.484558 
	C349.808380,299.484558 356.487305,299.484558 363.484070,299.710510 
	C357.811737,299.973511 351.816528,299.877045 345.833374,300.101959 
	C342.669708,300.220886 341.751343,298.930023 341.910675,295.989105 
	C342.090515,292.669403 342.120331,289.321472 341.903778,286.006165 
	C341.696106,282.826660 343.096039,282.010834 346.018890,282.069946 
	C352.007751,282.191101 358.002136,282.036835 364.448975,282.047363 
z"/>
<path fill="#202020" opacity="1.000000" stroke="none" 
	d="
M419.595428,244.677551 
	C419.470428,237.880951 419.470428,230.685928 419.470428,223.017853 
	C413.474945,223.017853 408.259399,223.017853 402.588379,223.035873 
	C407.893372,222.563507 413.653839,222.073120 419.720428,221.556686 
	C419.720428,229.758881 419.720428,237.019012 419.595428,244.677551 
z"/>
<path fill="#B53032" opacity="1.000000" stroke="none" 
	d="
M134.995422,417.056061 
	C118.503014,406.175323 108.134514,391.311066 104.563042,372.303192 
	C101.171913,354.255127 104.471169,337.407013 114.897987,321.788208 
	C123.189507,309.367920 133.974915,300.465118 147.782593,295.529449 
	C153.879761,293.349976 160.656647,292.329620 167.153458,292.198853 
	C175.231064,292.036285 183.548859,292.448273 191.364136,294.297485 
	C197.342224,295.711975 203.019424,299.257996 208.275574,302.702637 
	C224.066452,313.051239 235.651505,327.071198 238.618347,345.976227 
	C242.634094,371.564819 236.068176,393.782806 215.468002,411.433228 
	C191.589508,431.892517 157.824463,431.970032 134.995422,417.056061 
M186.520233,408.125824 
	C195.480438,406.002869 203.219437,400.975159 208.939758,394.445557 
	C219.663528,382.204773 225.034302,367.601593 221.987534,350.866730 
	C217.255997,324.877960 194.417709,306.986603 168.629059,308.524963 
	C153.382812,309.434448 140.951416,316.029724 131.484848,328.159210 
	C113.702591,350.943542 118.464867,382.447510 139.375153,399.325134 
	C152.664551,410.051605 168.649551,413.800873 186.520233,408.125824 
z"/>
<path fill="#B52F31" opacity="1.000000" stroke="none" 
	d="
M434.564667,315.551208 
	C419.530457,329.606140 396.604279,327.938873 384.436066,313.005402 
	C375.831818,302.445740 373.977173,290.462494 379.192352,278.103760 
	C384.231110,266.163086 393.315369,258.816650 406.861267,257.600769 
	C426.139282,255.870407 439.966553,268.962219 443.348450,282.270477 
	C446.421967,294.365173 443.943512,305.912170 434.564667,315.551208 
M410.500885,274.079865 
	C409.358704,274.280334 408.199402,274.412292 407.077057,274.692322 
	C399.126465,276.676025 392.560913,284.700867 393.035614,291.813293 
	C393.592682,300.159729 401.270782,308.131989 409.578003,308.989380 
	C416.162323,309.669006 425.692688,302.069244 426.974365,295.088806 
	C428.954254,284.306305 422.456543,275.103027 410.500885,274.079865 
z"/>
<path fill="#FEFEFE" opacity="1.000000" stroke="none" 
	d="
M186.138336,408.251221 
	C168.649551,413.800873 152.664551,410.051605 139.375153,399.325134 
	C118.464867,382.447510 113.702591,350.943542 131.484848,328.159210 
	C140.951416,316.029724 153.382812,309.434448 168.629059,308.524963 
	C194.417709,306.986603 217.255997,324.877960 221.987534,350.866730 
	C225.034302,367.601593 219.663528,382.204773 208.939758,394.445557 
	C203.219437,400.975159 195.480438,406.002869 186.138336,408.251221 
z"/>
<path fill="#FCFCFC" opacity="1.000000" stroke="none" 
	d="
M410.912231,274.100159 
	C422.456543,275.103027 428.954254,284.306305 426.974365,295.088806 
	C425.692688,302.069244 416.162323,309.669006 409.578003,308.989380 
	C401.270782,308.131989 393.592682,300.159729 393.035614,291.813293 
	C392.560913,284.700867 399.126465,276.676025 407.077057,274.692322 
	C408.199402,274.412292 409.358704,274.280334 410.912231,274.100159 
z"/>
</svg>