<svg version="1.1" id="Layer_1" xmlns="http://www.w3.org/2000/svg" xmlns:xlink="http://www.w3.org/1999/xlink" x="0px" y="0px"
	 width="100%" viewBox="0 0 512 512" enable-background="new 0 0 512 512" xml:space="preserve">
<path fill="#FFFFFF" opacity="1.000000" stroke="none" 
	d="
M1.000000,202.000000 
	C1.000000,135.029160 1.000000,68.058311 1.000000,1.043735 
	C171.563217,1.043735 342.126465,1.043735 513.000000,1.043735 
	C513.000000,95.688454 513.000000,190.377243 512.656677,285.417725 
	C505.411255,268.389587 498.541748,250.996735 491.600250,233.632690 
	C477.284088,197.821198 462.882202,162.043915 448.606293,126.216400 
	C437.941223,99.450912 427.531555,72.583138 416.759521,45.861145 
	C413.731415,38.349335 408.474030,34.420776 399.429352,38.839764 
	C397.357788,39.851875 395.071198,40.414276 392.918701,41.271782 
	C319.587128,70.485489 246.257339,99.703590 172.932739,128.934753 
	C121.080193,149.605988 69.264854,170.371185 17.349932,190.884445 
	C10.930219,193.421082 5.247851,196.520340 1.000000,202.000000 
z"/>
<path fill="#B62E30" opacity="1.000000" stroke="none" 
	d="
M1.000000,202.468658 
	C5.247851,196.520340 10.930219,193.421082 17.349932,190.884445 
	C69.264854,170.371185 121.080193,149.605988 172.932739,128.934753 
	C246.257339,99.703590 319.587128,70.485489 392.918701,41.271782 
	C395.071198,40.414276 397.357788,39.851875 399.429352,38.839764 
	C408.474030,34.420776 413.731415,38.349335 416.759521,45.861145 
	C427.531555,72.583138 437.941223,99.450912 448.606293,126.216400 
	C462.882202,162.043915 477.284088,197.821198 491.600250,233.632690 
	C498.541748,250.996735 505.411255,268.389587 512.656677,285.884705 
	C513.000000,288.041656 513.000000,290.083344 512.703369,292.731049 
	C509.855774,295.540741 507.653107,298.580444 504.697174,299.811951 
	C485.920929,307.634369 467.015015,315.151733 448.057953,322.528473 
	C444.491119,323.916443 443.083557,325.475586 443.101227,329.577026 
	C443.292847,374.047882 443.223602,418.519836 443.219147,462.991516 
	C443.218018,474.419891 440.576996,477.049011 429.130646,477.049103 
	C291.218475,477.050110 153.306290,477.012390 15.394325,477.174744 
	C9.334272,477.181885 4.471664,476.172455 1.000000,471.000000 
	C1.000000,381.645782 1.000000,292.291534 1.000000,202.468658 
M422.033173,215.032440 
	C289.901581,215.022781 157.769974,215.009430 25.638384,215.049667 
	C24.138613,215.050125 22.639055,215.746719 21.088108,217.039398 
	C21.088108,296.932129 21.088108,376.824890 21.088108,456.999695 
	C23.540924,456.999695 25.353386,456.999664 27.165846,456.999664 
	C157.441910,456.999664 287.717957,457.000153 417.994019,456.994354 
	C419.657684,456.994293 421.321350,456.914093 423.700531,456.447815 
	C423.799438,455.460602 423.984772,454.473358 423.984955,453.486145 
	C423.998474,375.356567 424.002686,297.226959 423.954620,219.097412 
	C423.953796,217.765167 423.308228,216.433319 422.033173,215.032440 
M420.562622,163.992813 
	C424.222137,173.409607 427.774841,182.870560 431.633484,192.205017 
	C432.383606,194.019623 434.040436,196.099197 435.770538,196.749985 
	C441.142792,198.770844 443.296143,202.268036 443.272186,207.941544 
	C443.146851,237.603806 443.213928,267.266876 443.214111,296.929688 
	C443.214111,298.664703 443.214111,300.399689 443.214111,302.660706 
	C459.073059,296.355530 474.341522,290.285095 489.779388,284.147339 
	C459.892975,209.103439 430.313843,134.831116 400.593567,60.204445 
	C287.861176,105.088394 175.386993,149.869537 62.912811,194.650681 
	C81.866058,195.624680 100.493294,195.683487 119.118752,195.528656 
	C120.874306,195.514084 122.706245,194.310776 124.347427,193.384308 
	C126.722885,192.043289 128.786285,190.026184 131.275818,189.028809 
	C180.184372,169.434799 229.128342,149.929001 278.081390,130.446182 
	C297.113617,122.871536 316.187744,115.402107 335.238647,107.874329 
	C339.661346,106.126755 343.422821,106.541611 346.908661,110.264717 
	C350.945404,114.576271 354.998230,119.091057 359.803406,122.422234 
	C372.137177,130.972565 386.154755,134.509705 401.101471,133.927505 
	C406.180939,133.729645 409.093719,136.234375 410.865143,140.339432 
	C414.138458,147.924820 417.097748,155.645706 420.562622,163.992813 
M357.499939,195.737289 
	C375.217712,195.737289 392.935486,195.737289 411.256073,195.737289 
	C406.316742,183.312592 401.449158,171.737946 397.162323,159.952087 
	C395.471924,155.304672 393.148651,153.345154 388.091888,153.034302 
	C369.507996,151.891861 353.490356,144.454956 340.082825,131.639099 
	C337.567413,129.234711 335.746033,129.190903 332.765411,130.383652 
	C281.929779,150.726501 231.045898,170.948822 180.178848,191.213257 
	C177.175873,192.409576 174.225433,193.737778 171.250549,195.004623 
	C171.313583,195.248795 171.376602,195.492981 171.439636,195.737152 
	C233.126404,195.737152 294.813171,195.737152 357.499939,195.737289 
z"/>
<path fill="#FEFEFE" opacity="1.000000" stroke="none" 
	d="
M1.000000,471.468658 
	C4.471664,476.172455 9.334272,477.181885 15.394325,477.174744 
	C153.306290,477.012390 291.218475,477.050110 429.130646,477.049103 
	C440.576996,477.049011 443.218018,474.419891 443.219147,462.991516 
	C443.223602,418.519836 443.292847,374.047882 443.101227,329.577026 
	C443.083557,325.475586 444.491119,323.916443 448.057953,322.528473 
	C467.015015,315.151733 485.920929,307.634369 504.697174,299.811951 
	C507.653107,298.580444 509.855774,295.540741 512.703369,293.168549 
	C513.000000,366.291840 513.000000,439.583710 513.000000,512.937744 
	C342.333344,512.937744 171.666672,512.937744 1.000000,512.937744 
	C1.000000,499.255310 1.000000,485.596313 1.000000,471.468658 
z"/>
<path fill="#FEFEFE" opacity="1.000000" stroke="none" 
	d="
M422.985016,456.871307 
	C421.321350,456.914093 419.657684,456.994293 417.994019,456.994354 
	C287.717957,457.000153 157.441910,456.999664 27.165846,456.999664 
	C25.353386,456.999664 23.540924,456.999695 21.088108,456.999695 
	C21.088108,376.824890 21.088108,296.932129 21.568859,216.542480 
	C155.177216,216.032211 288.304840,216.018723 421.432434,216.011047 
	C421.929474,216.011017 422.426514,216.094513 422.959229,216.597595 
	C422.991577,296.994568 422.988281,376.932922 422.985016,456.871307 
M100.952171,436.976654 
	C180.726181,436.984192 260.500183,436.994781 340.274200,436.985626 
	C342.926483,436.985352 345.578796,436.784607 348.879120,436.582916 
	C351.124908,434.108521 354.440308,432.003723 355.443634,429.100006 
	C362.204468,409.533325 375.081573,396.352173 394.672150,389.663239 
	C400.873962,387.545715 402.992279,384.418274 402.995911,377.720367 
	C403.010712,350.393372 403.012451,323.066376 402.998138,295.739380 
	C402.994415,288.632965 400.532837,285.091003 393.511230,282.838959 
	C381.049927,278.842255 370.918488,271.566589 363.685608,260.797974 
	C360.340851,255.818222 358.812500,249.651291 355.782837,244.414719 
	C353.983002,241.303726 351.317383,237.962677 348.210602,236.545166 
	C345.129425,235.139359 341.006592,235.910492 337.340515,235.908691 
	C288.685059,235.884628 240.029617,235.892639 191.374161,235.892654 
	C162.547470,235.892670 133.720764,235.875336 104.894104,235.900848 
	C92.304756,235.911987 92.083145,236.543854 87.021133,247.676239 
	C83.840439,254.671219 80.272636,262.004303 75.054718,267.432617 
	C68.060738,274.708588 59.474037,280.490845 49.264351,283.204865 
	C45.488060,284.208679 42.315647,286.477997 41.353699,291.626831 
	C41.283810,320.939789 41.208260,350.252716 41.175484,379.565704 
	C41.174633,380.326721 41.641232,381.088226 41.883888,382.604797 
	C44.111843,384.814819 45.955002,388.122955 48.629044,389.059967 
	C68.776466,396.119873 82.235672,409.494415 88.969711,429.765228 
	C90.715637,435.020844 94.147148,436.978424 100.952171,436.976654 
z"/>
<path fill="#FDFDFD" opacity="1.000000" stroke="none" 
	d="
M420.375244,163.651489 
	C417.097748,155.645706 414.138458,147.924820 410.865143,140.339432 
	C409.093719,136.234375 406.180939,133.729645 401.101471,133.927505 
	C386.154755,134.509705 372.137177,130.972565 359.803406,122.422234 
	C354.998230,119.091057 350.945404,114.576271 346.908661,110.264717 
	C343.422821,106.541611 339.661346,106.126755 335.238647,107.874329 
	C316.187744,115.402107 297.113617,122.871536 278.081390,130.446182 
	C229.128342,149.929001 180.184372,169.434799 131.275818,189.028809 
	C128.786285,190.026184 126.722885,192.043289 124.347427,193.384308 
	C122.706245,194.310776 120.874306,195.514084 119.118752,195.528656 
	C100.493294,195.683487 81.866058,195.624680 62.912811,194.650681 
	C175.386993,149.869537 287.861176,105.088394 400.593567,60.204445 
	C430.313843,134.831116 459.892975,209.103439 489.779388,284.147339 
	C474.341522,290.285095 459.073059,296.355530 443.214111,302.660706 
	C443.214111,300.399689 443.214111,298.664703 443.214111,296.929688 
	C443.213928,267.266876 443.146851,237.603806 443.272186,207.941544 
	C443.296143,202.268036 441.142792,198.770844 435.770538,196.749985 
	C434.040436,196.099197 432.383606,194.019623 431.633484,192.205017 
	C427.774841,182.870560 424.222137,173.409607 420.375244,163.651489 
z"/>
<path fill="#FDFDFD" opacity="1.000000" stroke="none" 
	d="
M356.999939,195.737213 
	C294.813171,195.737152 233.126404,195.737152 171.439636,195.737152 
	C171.376602,195.492981 171.313583,195.248795 171.250549,195.004623 
	C174.225433,193.737778 177.175873,192.409576 180.178848,191.213257 
	C231.045898,170.948822 281.929779,150.726501 332.765411,130.383652 
	C335.746033,129.190903 337.567413,129.234711 340.082825,131.639099 
	C353.490356,144.454956 369.507996,151.891861 388.091888,153.034302 
	C393.148651,153.345154 395.471924,155.304672 397.162323,159.952087 
	C401.449158,171.737946 406.316742,183.312592 411.256073,195.737289 
	C392.935486,195.737289 375.217712,195.737289 356.999939,195.737213 
z"/>
<path fill="#444444" opacity="1.000000" stroke="none" 
	d="
M422.923553,216.138992 
	C422.426514,216.094513 421.929474,216.011017 421.432434,216.011047 
	C288.304840,216.018723 155.177216,216.032211 21.594501,216.081955 
	C22.639055,215.746719 24.138613,215.050125 25.638384,215.049667 
	C157.769974,215.009430 289.901581,215.022781 422.498474,215.326462 
	C422.950378,215.793335 422.936951,215.966171 422.923553,216.138992 
z"/>
<path fill="#212121" opacity="1.000000" stroke="none" 
	d="
M422.959229,216.597595 
	C422.936951,215.966171 422.950378,215.793335 422.963654,215.360870 
	C423.308228,216.433319 423.953796,217.765167 423.954620,219.097412 
	C424.002686,297.226959 423.998474,375.356567 423.984955,453.486145 
	C423.984772,454.473358 423.799438,455.460602 423.342773,456.659546 
	C422.988281,376.932922 422.991577,296.994568 422.959229,216.597595 
z"/>
<path fill="#B62E30" opacity="1.000000" stroke="none" 
	d="
M41.877670,290.988464 
	C42.315647,286.477997 45.488060,284.208679 49.264351,283.204865 
	C59.474037,280.490845 68.060738,274.708588 75.054718,267.432617 
	C80.272636,262.004303 83.840439,254.671219 87.021133,247.676239 
	C92.083145,236.543854 92.304756,235.911987 104.894104,235.900848 
	C133.720764,235.875336 162.547470,235.892670 191.374161,235.892654 
	C240.029617,235.892639 288.685059,235.884628 337.340515,235.908691 
	C341.006592,235.910492 345.129425,235.139359 348.210602,236.545166 
	C351.317383,237.962677 353.983002,241.303726 355.782837,244.414719 
	C358.812500,249.651291 360.340851,255.818222 363.685608,260.797974 
	C370.918488,271.566589 381.049927,278.842255 393.511230,282.838959 
	C400.532837,285.091003 402.994415,288.632965 402.998138,295.739380 
	C403.012451,323.066376 403.010712,350.393372 402.995911,377.720367 
	C402.992279,384.418274 400.873962,387.545715 394.672150,389.663239 
	C375.081573,396.352173 362.204468,409.533325 355.443634,429.100006 
	C354.440308,432.003723 351.124908,434.108521 348.174805,436.420593 
	C346.977905,436.187775 346.485413,436.055634 345.992828,436.055481 
	C265.411621,436.030792 184.830429,436.011322 104.249237,436.034637 
	C102.841286,436.035034 101.433479,436.554474 100.025604,436.831726 
	C94.147148,436.978424 90.715637,435.020844 88.969711,429.765228 
	C82.235672,409.494415 68.776466,396.119873 48.629044,389.059967 
	C45.955002,388.122955 44.111843,384.814819 41.875893,381.775543 
	C41.871155,350.960358 41.874413,320.974396 41.877670,290.988464 
M184.500000,255.998566 
	C159.676178,255.998566 134.852097,255.952682 110.029091,256.095764 
	C108.266319,256.105927 105.511948,257.034668 104.903358,258.328644 
	C96.105087,277.035400 82.495834,290.751099 63.720695,299.450714 
	C62.531063,300.001953 61.439747,302.205353 61.430202,303.647552 
	C61.285770,325.471680 61.274174,347.297516 61.452812,369.121155 
	C61.465069,370.618469 62.876522,372.756897 64.235123,373.491699 
	C81.531601,382.845734 95.414246,395.572418 104.103012,413.432983 
	C105.410416,416.120483 106.963356,416.882080 109.810669,416.879333 
	C184.782303,416.807159 259.754028,416.843872 334.725433,416.689911 
	C336.512634,416.686249 339.213776,415.146729 339.940796,413.597321 
	C348.540771,395.268524 361.882690,381.883514 380.322937,373.492889 
	C381.489807,372.961945 382.826965,371.177338 382.834747,369.967957 
	C382.983490,346.820038 382.944702,323.670929 382.944702,300.447876 
	C363.636627,292.297058 349.260834,279.065125 340.485443,260.182861 
	C338.849609,256.662964 336.989532,255.912048 333.443970,255.920349 
	C284.129517,256.035889 234.814713,255.998566 184.500000,255.998566 
z"/>
<path fill="#232323" opacity="1.000000" stroke="none" 
	d="
M100.488892,436.904175 
	C101.433479,436.554474 102.841286,436.035034 104.249237,436.034637 
	C184.830429,436.011322 265.411621,436.030792 345.992828,436.055481 
	C346.485413,436.055634 346.977905,436.187775 347.850769,436.467773 
	C345.578796,436.784607 342.926483,436.985352 340.274200,436.985626 
	C260.500183,436.994781 180.726181,436.984192 100.488892,436.904175 
z"/>
<path fill="#393939" opacity="1.000000" stroke="none" 
	d="
M41.615685,291.307648 
	C41.874413,320.974396 41.871155,350.960358 41.878864,381.397888 
	C41.641232,381.088226 41.174633,380.326721 41.175484,379.565704 
	C41.208260,350.252716 41.283810,320.939789 41.615685,291.307648 
z"/>
<path fill="#FEFEFE" opacity="1.000000" stroke="none" 
	d="
M185.000000,255.998566 
	C234.814713,255.998566 284.129517,256.035889 333.443970,255.920349 
	C336.989532,255.912048 338.849609,256.662964 340.485443,260.182861 
	C349.260834,279.065125 363.636627,292.297058 382.944702,300.447876 
	C382.944702,323.670929 382.983490,346.820038 382.834747,369.967957 
	C382.826965,371.177338 381.489807,372.961945 380.322937,373.492889 
	C361.882690,381.883514 348.540771,395.268524 339.940796,413.597321 
	C339.213776,415.146729 336.512634,416.686249 334.725433,416.689911 
	C259.754028,416.843872 184.782303,416.807159 109.810669,416.879333 
	C106.963356,416.882080 105.410416,416.120483 104.103012,413.432983 
	C95.414246,395.572418 81.531601,382.845734 64.235123,373.491699 
	C62.876522,372.756897 61.465069,370.618469 61.452812,369.121155 
	C61.274174,347.297516 61.285770,325.471680 61.430202,303.647552 
	C61.439747,302.205353 62.531063,300.001953 63.720695,299.450714 
	C82.495834,290.751099 96.105087,277.035400 104.903358,258.328644 
	C105.511948,257.034668 108.266319,256.105927 110.029091,256.095764 
	C134.852097,255.952682 159.676178,255.998566 185.000000,255.998566 
M186.476440,385.046509 
	C204.107941,397.270782 222.945831,400.460175 243.298615,392.749725 
	C256.437622,387.772125 266.360352,379.295593 273.681213,367.176239 
	C282.891724,351.928680 284.549500,336.019043 279.867218,319.185028 
	C276.511017,307.118561 269.148712,297.947266 259.652222,289.863159 
	C244.534180,276.993591 227.026230,274.396729 208.613770,277.750732 
	C190.826691,280.990814 177.697311,291.940399 169.050064,307.670288 
	C154.816864,333.561554 161.529175,366.407684 186.476440,385.046509 
M113.066818,321.108459 
	C111.586090,321.219574 110.059563,321.136871 108.632278,321.474152 
	C100.991516,323.279633 95.607719,330.254791 96.280846,337.326050 
	C97.021919,345.111145 103.331886,351.197693 111.052216,351.631836 
	C118.027611,352.024078 125.469360,345.649628 126.705887,338.419678 
	C127.886856,331.514465 122.324577,323.970978 113.066818,321.108459 
M319.932739,328.578796 
	C314.836487,335.875641 318.530212,345.554779 324.819031,349.321503 
	C332.165955,353.721863 340.711243,351.614044 345.812805,343.899658 
	C349.836304,337.815613 347.343964,328.616699 340.300385,323.554199 
	C333.920044,318.968353 325.550079,320.776611 319.932739,328.578796 
z"/>
<path fill="#B52F31" opacity="1.000000" stroke="none" 
	d="
M186.192017,384.827271 
	C161.529175,366.407684 154.816864,333.561554 169.050064,307.670288 
	C177.697311,291.940399 190.826691,280.990814 208.613770,277.750732 
	C227.026230,274.396729 244.534180,276.993591 259.652222,289.863159 
	C269.148712,297.947266 276.511017,307.118561 279.867218,319.185028 
	C284.549500,336.019043 282.891724,351.928680 273.681213,367.176239 
	C266.360352,379.295593 256.437622,387.772125 243.298615,392.749725 
	C222.945831,400.460175 204.107941,397.270782 186.192017,384.827271 
M195.801941,366.610840 
	C199.230743,368.756897 202.571060,371.063232 206.107300,373.014618 
	C212.855286,376.738342 220.728607,377.704590 227.670425,376.350800 
	C249.688797,372.056732 262.951904,355.742645 261.947235,334.521393 
	C261.188416,318.492493 253.212830,306.866852 238.772415,300.060181 
	C224.087555,293.138245 209.382767,294.918671 197.220383,304.797821 
	C177.161087,321.091461 176.921494,350.217957 195.801941,366.610840 
z"/>
<path fill="#B23334" opacity="1.000000" stroke="none" 
	d="
M113.457382,321.172882 
	C122.324577,323.970978 127.886856,331.514465 126.705887,338.419678 
	C125.469360,345.649628 118.027611,352.024078 111.052216,351.631836 
	C103.331886,351.197693 97.021919,345.111145 96.280846,337.326050 
	C95.607719,330.254791 100.991516,323.279633 108.632278,321.474152 
	C110.059563,321.136871 111.586090,321.219574 113.457382,321.172882 
M107.016579,338.123993 
	C108.101990,339.180664 109.127769,341.053223 110.284233,341.137756 
	C113.478554,341.371185 116.632767,340.191254 116.047989,336.277466 
	C115.799713,334.615814 113.594070,332.328613 111.932365,331.981812 
	C108.133904,331.189056 106.660713,333.716370 107.016579,338.123993 
z"/>
<path fill="#B33234" opacity="1.000000" stroke="none" 
	d="
M320.084564,328.233795 
	C325.550079,320.776611 333.920044,318.968353 340.300385,323.554199 
	C347.343964,328.616699 349.836304,337.815613 345.812805,343.899658 
	C340.711243,351.614044 332.165955,353.721863 324.819031,349.321503 
	C318.530212,345.554779 314.836487,335.875641 320.084564,328.233795 
M336.359955,333.172882 
	C334.126343,332.985870 331.765717,332.301605 329.713684,332.825684 
	C328.717316,333.080170 327.647034,335.645325 327.754211,337.078918 
	C327.977020,340.059753 329.293182,342.142181 333.155548,341.109558 
	C337.480896,339.953186 338.100739,337.434235 336.359955,333.172882 
z"/>
<path fill="#FEFEFE" opacity="1.000000" stroke="none" 
	d="
M195.573181,366.348114 
	C176.921494,350.217957 177.161087,321.091461 197.220383,304.797821 
	C209.382767,294.918671 224.087555,293.138245 238.772415,300.060181 
	C253.212830,306.866852 261.188416,318.492493 261.947235,334.521393 
	C262.951904,355.742645 249.688797,372.056732 227.670425,376.350800 
	C220.728607,377.704590 212.855286,376.738342 206.107300,373.014618 
	C202.571060,371.063232 199.230743,368.756897 195.573181,366.348114 
z"/>
<path fill="#FAFAFA" opacity="1.000000" stroke="none" 
	d="
M106.980042,337.732727 
	C106.660713,333.716370 108.133904,331.189056 111.932365,331.981812 
	C113.594070,332.328613 115.799713,334.615814 116.047989,336.277466 
	C116.632767,340.191254 113.478554,341.371185 110.284233,341.137756 
	C109.127769,341.053223 108.101990,339.180664 106.980042,337.732727 
z"/>
<path fill="#F9F9F9" opacity="1.000000" stroke="none" 
	d="
M336.573547,333.453918 
	C338.100739,337.434235 337.480896,339.953186 333.155548,341.109558 
	C329.293182,342.142181 327.977020,340.059753 327.754211,337.078918 
	C327.647034,335.645325 328.717316,333.080170 329.713684,332.825684 
	C331.765717,332.301605 334.126343,332.985870 336.573547,333.453918 
z"/>
</svg>