<?xml version="1.0" standalone="no"?>
<!DOCTYPE svg PUBLIC "-//W3C//DTD SVG 20010904//EN"
 "http://www.w3.org/TR/2001/REC-SVG-20010904/DTD/svg10.dtd">
<svg version="1.0" xmlns="http://www.w3.org/2000/svg"
 width="128.000000pt" height="128.000000pt" viewBox="0 0 128.000000 128.000000"
 preserveAspectRatio="xMidYMid meet">

<g transform="translate(0.000000,128.000000) scale(0.100000,-0.100000)"
fill="#b72d2f" stroke="none">
<path d="M70 1234 c-30 -25 -59 -57 -65 -71 -9 -24 -5 -30 49 -79 73 -65 91
-70 123 -38 l24 24 298 0 c340 0 331 -2 331 81 0 87 12 84 -330 87 -283 3
-302 4 -320 22 -29 29 -49 25 -110 -26z m94 -36 c6 -4 150 -8 319 -8 l308 0
-3 -37 -3 -38 -313 -3 c-304 -2 -314 -3 -319 -22 -3 -11 -8 -20 -12 -20 -3 0
-28 19 -54 43 l-48 42 53 42 c44 36 54 40 57 25 2 -9 8 -20 15 -24z"/>
<path d="M1104 1045 l-25 -25 -298 0 c-339 0 -331 2 -331 -81 0 -88 4 -89 344
-89 273 0 287 -1 306 -20 29 -29 46 -25 111 28 57 45 78 79 64 102 -11 17
-125 110 -136 110 -5 0 -21 -11 -35 -25z m89 -66 l47 -41 -52 -43 c-47 -39
-53 -42 -56 -25 -2 11 -4 21 -5 22 -1 1 -144 5 -317 8 l-315 5 0 35 0 35 313
3 c304 2 314 3 319 22 3 11 8 20 12 20 3 0 27 -18 54 -41z"/>
<path d="M515 736 c-22 -7 -68 -27 -102 -44 -52 -27 -74 -32 -130 -32 -56 0
-72 4 -86 20 -14 17 -29 20 -95 20 -47 0 -83 -5 -90 -12 -17 -17 -17 -379 0
-396 7 -7 38 -12 70 -12 72 0 125 -21 137 -54 11 -28 47 -56 73 -56 9 0 22 -9
28 -20 9 -16 40 -32 70 -35 3 0 17 -13 32 -28 15 -15 37 -27 49 -27 11 0 34
-14 50 -31 25 -27 34 -30 62 -25 40 8 54 8 92 1 38 -8 85 25 85 60 0 14 7 25
20 28 11 3 28 19 37 36 10 18 28 34 41 37 29 8 52 41 52 75 0 15 7 29 16 33 9
3 86 6 173 6 109 0 161 4 169 12 17 17 17 379 0 396 -7 7 -43 12 -90 12 -66 0
-81 -3 -95 -20 -28 -32 -82 -26 -171 19 -94 47 -145 57 -198 39 -31 -11 -47
-11 -79 -2 -51 16 -71 16 -120 0z m81 -49 c-64 -41 -196 -209 -196 -250 0 -30
18 -54 48 -65 52 -18 79 -4 144 72 34 39 69 72 77 74 18 3 228 -143 245 -170
17 -27 -10 -50 -50 -42 -40 7 -46 -12 -14 -41 24 -22 25 -29 4 -49 -14 -14
-18 -14 -45 -1 -26 14 -30 14 -35 1 -3 -8 0 -24 6 -36 16 -30 -4 -53 -41 -45
-34 8 -43 -6 -27 -40 9 -21 9 -29 -4 -41 -25 -25 -56 -3 -50 35 5 34 -33 81
-67 81 -11 0 -33 13 -49 30 -17 17 -39 30 -49 30 -11 0 -30 11 -43 25 -14 15
-35 25 -52 25 -15 0 -28 5 -28 10 0 6 -9 19 -20 30 -27 27 -75 26 -104 -3 -17
-18 -29 -21 -45 -16 -25 10 -25 9 -6 169 8 69 15 131 15 138 0 8 23 12 83 12
75 1 88 4 157 40 55 29 87 39 120 39 39 0 42 -2 26 -12z m295 -27 c62 -30 95
-40 131 -40 32 0 48 -4 48 -12 0 -7 7 -69 15 -138 8 -69 15 -131 15 -137 0 -9
-21 -13 -70 -13 -65 0 -70 2 -70 22 0 28 -55 78 -176 161 -80 55 -105 67 -125
62 -15 -4 -52 -38 -88 -81 -63 -76 -94 -91 -120 -60 -10 12 -2 29 40 88 75
106 87 117 164 154 94 46 131 45 236 -6z m-724 -47 c-3 -27 -11 -103 -18 -170
l-13 -123 -48 0 -48 0 0 170 0 170 66 0 67 0 -6 -47z m1073 -123 l0 -170 -48
0 -48 0 -13 123 c-7 67 -15 143 -18 170 l-6 47 67 0 66 0 0 -170z m-926 -196
c22 -9 20 -47 -4 -69 -16 -15 -22 -15 -35 -5 -19 16 -19 44 1 64 18 18 17 18
38 10z m105 -68 c18 -21 -6 -66 -35 -66 -28 0 -40 31 -22 59 15 24 40 27 57 7z
m98 -62 c10 -27 -14 -66 -40 -62 -43 6 -30 78 15 78 10 0 21 -7 25 -16z m91
-46 c17 -17 15 -35 -8 -58 -16 -16 -25 -18 -40 -10 -24 13 -25 28 -4 58 17 25
34 28 52 10z"/>
</g>
</svg>
