<?xml version="1.0" standalone="no"?>
<!DOCTYPE svg PUBLIC "-//W3C//DTD SVG 20010904//EN"
 "http://www.w3.org/TR/2001/REC-SVG-20010904/DTD/svg10.dtd">
<svg version="1.0" xmlns="http://www.w3.org/2000/svg"
 width="512.000000pt" height="512.000000pt" viewBox="0 0 512.000000 512.000000"
 preserveAspectRatio="xMidYMid meet">

<g transform="translate(0.000000,512.000000) scale(0.100000,-0.100000)"
fill="#ffffff" stroke="none">
<path d="M292 5023 c-67 -33 -66 -29 -72 -428 l-5 -360 -52 -5 c-103 -11 -116
-59 -56 -203 58 -140 -23 -127 791 -127 l693 0 23 23 c27 27 86 177 86 219 0
40 -48 88 -89 88 l-30 0 -3 353 c-3 331 -4 354 -23 386 -11 18 -36 42 -55 52
-33 18 -68 19 -605 19 -508 0 -574 -2 -603 -17z m1163 -448 l0 -340 -555 0
-555 0 -3 330 c-1 181 0 336 3 343 3 10 119 12 557 10 l553 -3 0 -340z m95
-507 l-19 -43 -646 -3 -645 -2 -9 22 c-5 13 -11 33 -15 46 l-7 22 680 0 680 0
-19 -42z"/>
<path d="M426 4839 c-24 -19 -26 -26 -26 -99 0 -73 2 -80 27 -99 45 -36 103 0
103 65 l0 34 78 0 c85 0 102 8 102 49 0 56 -33 71 -158 71 -85 0 -103 -3 -126
-21z"/>
<path d="M4317 5023 c-59 -20 -130 -81 -160 -137 -17 -33 -22 -58 -22 -126 0
-76 3 -91 29 -138 54 -96 138 -145 251 -146 80 -1 138 21 197 73 109 95 118
277 21 390 -73 86 -208 122 -316 84z m178 -126 c22 -12 50 -38 63 -57 20 -29
23 -45 20 -95 -6 -103 -64 -158 -164 -158 -102 0 -170 76 -162 178 5 65 37
111 92 136 55 25 102 24 151 -4z"/>
<path d="M1766 4478 c-22 -30 -20 -54 5 -79 29 -29 79 -23 99 14 13 24 13 30
0 55 -21 37 -81 44 -104 10z"/>
<path d="M1926 4478 c-22 -30 -20 -54 5 -79 29 -29 79 -23 99 14 13 24 13 30
0 55 -21 37 -81 44 -104 10z"/>
<path d="M2086 4478 c-22 -30 -20 -54 5 -79 29 -29 79 -23 99 14 13 24 13 30
0 55 -21 37 -81 44 -104 10z"/>
<path d="M2246 4478 c-22 -30 -20 -54 5 -79 29 -29 79 -23 99 14 13 24 13 30
0 55 -21 37 -81 44 -104 10z"/>
<path d="M2406 4478 c-22 -30 -20 -54 5 -79 29 -29 79 -23 99 14 13 24 13 30
0 55 -21 37 -81 44 -104 10z"/>
<path d="M2566 4478 c-9 -12 -16 -29 -16 -38 0 -9 7 -26 16 -38 31 -45 104
-17 104 40 0 53 -74 79 -104 36z"/>
<path d="M2726 4478 c-22 -30 -20 -54 5 -79 29 -29 79 -23 99 14 13 24 13 30
0 55 -21 37 -81 44 -104 10z"/>
<path d="M2886 4478 c-22 -30 -20 -54 5 -79 29 -29 79 -23 99 14 13 24 13 30
0 55 -21 37 -81 44 -104 10z"/>
<path d="M3046 4478 c-22 -30 -20 -54 5 -79 29 -29 79 -23 99 14 13 24 13 30
0 55 -21 37 -81 44 -104 10z"/>
<path d="M3206 4478 c-22 -30 -20 -54 5 -79 29 -29 79 -23 99 14 13 24 13 30
0 55 -21 37 -81 44 -104 10z"/>
<path d="M3366 4478 c-22 -30 -20 -54 5 -79 29 -29 79 -23 99 14 13 24 13 30
0 55 -21 37 -81 44 -104 10z"/>
<path d="M3526 4478 c-22 -30 -20 -54 5 -79 29 -29 79 -23 99 14 13 24 13 30
0 55 -21 37 -81 44 -104 10z"/>
<path d="M4132 4369 c-183 -31 -305 -125 -346 -268 -22 -77 -21 -214 3 -267
28 -61 75 -109 133 -135 53 -24 56 -24 461 -27 465 -3 481 -1 559 68 67 59 88
110 88 218 0 238 -119 371 -371 411 -76 13 -451 12 -527 0z m498 -109 c201
-32 284 -111 297 -282 4 -65 3 -77 -19 -108 -13 -19 -43 -45 -68 -57 -44 -23
-50 -23 -425 -23 -227 0 -395 4 -417 10 -20 6 -50 26 -67 46 -29 33 -31 39
-31 117 0 115 13 153 70 208 51 50 105 73 205 88 85 12 378 13 455 1z"/>
<path d="M2345 4016 c-310 -51 -567 -178 -794 -390 -444 -416 -584 -1072 -347
-1631 190 -450 578 -769 1064 -877 131 -30 432 -32 565 -5 192 39 396 124 552
231 89 60 254 209 300 270 181 238 262 405 318 654 31 141 31 443 0 584 -68
301 -191 526 -408 743 -214 215 -448 344 -740 407 -117 25 -395 33 -510 14z
m155 -402 l0 -287 -107 7 c-103 6 -298 31 -336 42 -21 7 -18 20 29 119 82 175
203 318 316 375 106 52 98 73 98 -256z m218 255 c112 -55 221 -183 307 -358
66 -133 66 -127 -7 -140 -116 -20 -192 -30 -295 -37 l-103 -7 0 287 c0 329 -8
308 98 255z m-585 -69 c-65 -80 -136 -199 -180 -301 -20 -46 -37 -85 -38 -87
-6 -7 -274 88 -294 105 -9 7 74 83 148 137 96 69 210 130 320 172 47 18 87 33
89 34 2 0 -19 -27 -45 -60z m1022 -27 c95 -48 223 -133 290 -195 l57 -52 -34
-17 c-42 -21 -235 -89 -254 -89 -8 0 -17 8 -21 18 -35 103 -145 292 -224 385
l-31 37 73 -26 c41 -15 106 -42 144 -61z m-1517 -392 c50 -23 125 -51 165 -62
l73 -22 -27 -113 c-34 -140 -58 -295 -67 -445 l-7 -114 -282 -3 -283 -2 0 27
c0 51 29 207 55 298 14 50 50 140 79 200 59 120 173 289 190 281 6 -3 53 -23
104 -45z m2022 -38 c77 -110 161 -280 195 -398 26 -91 55 -247 55 -298 l0 -27
-282 2 -283 3 -7 114 c-9 149 -33 305 -67 444 l-27 113 86 28 c47 15 121 45
165 66 44 21 85 39 91 39 6 1 39 -38 74 -86z m-1490 -107 c58 -8 156 -18 218
-22 l112 -7 -2 -291 -3 -291 -299 -3 -299 -2 6 118 c7 128 35 305 68 435 11
45 22 85 25 88 2 4 19 3 37 -1 17 -5 79 -16 137 -24z m984 -84 c34 -143 55
-282 63 -420 l6 -112 -299 2 -299 3 -3 293 -2 292 48 0 c66 0 249 19 336 35
131 24 121 31 150 -93z m-1372 -771 c9 -145 32 -302 64 -431 13 -56 24 -107
24 -114 0 -6 -39 -25 -87 -40 -49 -15 -126 -46 -173 -67 l-84 -40 -18 23
c-102 129 -200 316 -243 463 -26 90 -55 247 -55 298 l0 27 283 -2 282 -3 7
-114z m716 -177 l2 -291 -112 -7 c-98 -6 -172 -15 -354 -42 l-42 -6 -26 109
c-34 144 -55 283 -63 421 l-6 112 299 -2 299 -3 3 -291z m719 184 c-8 -139
-29 -277 -63 -421 l-26 -109 -42 5 c-22 4 -85 13 -139 21 -55 9 -150 18 -213
22 l-114 7 0 287 c0 158 3 290 7 293 3 4 139 7 301 7 l295 0 -6 -112z m693 85
c0 -51 -29 -207 -55 -298 -14 -50 -50 -139 -79 -200 -59 -120 -173 -289 -190
-281 -131 58 -204 88 -263 107 -40 12 -73 28 -73 35 0 7 11 59 25 116 32 134
54 284 61 416 3 59 7 113 10 120 2 9 68 12 284 12 l280 0 0 -27z m-1410 -968
c0 -328 8 -307 -98 -254 -98 49 -196 155 -284 309 -30 52 -81 171 -76 176 13
13 298 50 401 53 l57 1 0 -285z m438 260 c142 -21 144 -22 136 -48 -13 -43
-95 -200 -136 -259 -58 -87 -149 -172 -220 -207 -106 -53 -98 -74 -98 256 l0
286 106 -6 c58 -4 154 -14 212 -22z m407 -100 c127 -47 155 -58 155 -66 0 -14
-114 -110 -193 -163 -98 -64 -195 -114 -296 -150 l-73 -26 31 37 c79 94 175
256 216 365 21 55 15 55 160 3z m-1390 -49 c43 -99 114 -218 178 -296 l48 -60
-81 29 c-154 57 -354 178 -444 270 l-37 38 53 23 c87 38 212 79 231 77 12 -1
29 -28 52 -81z"/>
<path d="M654 3662 c-20 -13 -33 -48 -27 -71 8 -32 57 -55 86 -40 29 16 37 28
37 60 0 44 -59 76 -96 51z"/>
<path d="M654 3502 c-20 -13 -33 -48 -27 -71 8 -32 57 -55 86 -40 29 16 37 28
37 60 0 44 -59 76 -96 51z"/>
<path d="M4420 3493 c-41 -14 -54 -78 -22 -106 40 -36 102 -9 102 44 0 44 -41
75 -80 62z"/>
<path d="M654 3342 c-20 -13 -33 -48 -27 -71 8 -32 57 -55 86 -40 29 16 37 28
37 60 0 44 -59 76 -96 51z"/>
<path d="M4420 3333 c-41 -14 -54 -78 -22 -106 40 -36 102 -9 102 44 0 44 -41
75 -80 62z"/>
<path d="M654 3182 c-20 -13 -33 -48 -27 -71 5 -20 48 -51 71 -51 20 0 52 43
52 69 0 46 -58 79 -96 53z"/>
<path d="M4420 3173 c-41 -14 -54 -78 -22 -106 40 -36 102 -9 102 44 0 44 -41
75 -80 62z"/>
<path d="M654 3022 c-20 -13 -33 -48 -27 -71 8 -32 57 -55 86 -40 29 16 37 28
37 60 0 44 -59 76 -96 51z"/>
<path d="M4420 3013 c-41 -14 -54 -78 -22 -106 40 -36 102 -9 102 44 0 44 -41
75 -80 62z"/>
<path d="M654 2862 c-20 -13 -33 -48 -27 -71 8 -32 57 -55 86 -40 29 16 37 28
37 60 0 44 -59 76 -96 51z"/>
<path d="M4420 2853 c-41 -14 -54 -78 -22 -106 40 -36 102 -9 102 44 0 44 -41
75 -80 62z"/>
<path d="M654 2702 c-20 -13 -33 -48 -27 -71 8 -32 57 -55 86 -40 29 16 37 28
37 60 0 44 -59 76 -96 51z"/>
<path d="M4420 2693 c-41 -14 -54 -78 -22 -106 40 -36 102 -9 102 44 0 44 -41
75 -80 62z"/>
<path d="M654 2542 c-20 -13 -33 -48 -27 -71 8 -32 57 -55 86 -40 29 16 37 28
37 60 0 44 -59 76 -96 51z"/>
<path d="M4420 2533 c-41 -14 -54 -78 -22 -106 40 -36 102 -9 102 44 0 44 -41
75 -80 62z"/>
<path d="M654 2382 c-20 -13 -33 -48 -27 -71 8 -32 57 -55 86 -40 29 16 37 28
37 60 0 44 -59 76 -96 51z"/>
<path d="M4420 2373 c-41 -14 -54 -78 -22 -106 40 -36 102 -9 102 44 0 44 -41
75 -80 62z"/>
<path d="M654 2222 c-20 -13 -33 -48 -27 -71 8 -32 57 -55 86 -40 29 16 37 28
37 60 0 44 -59 76 -96 51z"/>
<path d="M4420 2213 c-41 -14 -54 -78 -22 -106 40 -36 102 -9 102 44 0 44 -41
75 -80 62z"/>
<path d="M654 2062 c-20 -13 -33 -48 -27 -71 8 -32 57 -55 86 -40 29 16 37 28
37 60 0 44 -59 76 -96 51z"/>
<path d="M4420 2053 c-41 -14 -54 -78 -22 -106 40 -36 102 -9 102 44 0 44 -41
75 -80 62z"/>
<path d="M654 1902 c-20 -13 -33 -48 -27 -71 8 -32 57 -55 86 -40 29 16 37 28
37 60 0 44 -59 76 -96 51z"/>
<path d="M4420 1893 c-41 -14 -54 -78 -22 -106 40 -36 102 -9 102 44 0 44 -41
75 -80 62z"/>
<path d="M654 1742 c-20 -13 -33 -48 -27 -71 8 -32 57 -55 86 -40 29 16 37 28
37 60 0 44 -59 76 -96 51z"/>
<path d="M4420 1733 c-41 -14 -54 -78 -22 -106 40 -36 102 -9 102 44 0 44 -41
75 -80 62z"/>
<path d="M4420 1573 c-41 -14 -54 -78 -22 -106 40 -36 102 -9 102 44 0 44 -41
75 -80 62z"/>
<path d="M650 1450 c-93 -20 -158 -69 -199 -151 -72 -144 -18 -313 123 -387
69 -36 189 -38 252 -5 63 34 97 66 129 125 27 47 30 62 30 138 0 68 -5 93 -22
125 -60 111 -199 180 -313 155z m126 -139 c63 -29 89 -72 89 -151 0 -79 -26
-122 -89 -151 -52 -23 -90 -23 -142 0 -63 29 -89 72 -89 151 0 53 5 71 24 99
27 37 91 71 136 71 17 0 48 -9 71 -19z"/>
<path d="M3625 1210 c-31 -12 -64 -53 -75 -91 -6 -19 -10 -182 -10 -371 l0
-338 -35 0 c-42 0 -90 -22 -99 -45 -3 -9 -6 -30 -6 -46 0 -34 55 -176 78 -203
41 -46 42 -46 750 -46 l669 0 33 22 c25 18 39 43 66 113 18 50 34 98 34 108 0
50 -50 97 -105 97 l-25 0 0 355 c0 393 -1 397 -63 435 -31 19 -54 20 -612 19
-319 0 -589 -4 -600 -9z m1155 -455 l0 -345 -555 0 -555 0 0 345 0 345 555 0
555 0 0 -345z m110 -472 c0 -4 -7 -27 -16 -50 l-17 -43 -644 0 -643 0 -10 25
c-5 14 -13 37 -16 50 l-6 25 676 0 c372 0 676 -3 676 -7z"/>
<path d="M3750 1030 c-17 -17 -20 -33 -20 -109 0 -82 2 -91 22 -105 52 -36 98
-7 98 62 l0 42 80 0 c67 0 83 3 100 20 27 27 25 56 -5 85 -23 24 -30 25 -140
25 -102 0 -117 -2 -135 -20z"/>
<path d="M438 770 c-188 -32 -303 -114 -343 -245 -23 -72 -30 -195 -16 -247
18 -65 70 -129 132 -163 l54 -30 420 -5 c475 -6 484 -5 559 61 84 74 107 151
87 292 -27 193 -130 291 -349 333 -80 15 -459 18 -544 4z m492 -110 c208 -33
290 -113 290 -283 0 -88 -14 -124 -60 -157 -29 -21 -36 -21 -437 -20 -401 0
-409 1 -453 23 -56 28 -80 71 -80 147 1 75 16 138 46 183 32 48 122 92 214
105 91 13 402 14 480 2z"/>
<path d="M1507 722 c-24 -26 -21 -68 5 -86 48 -34 101 -10 101 44 0 55 -70 82
-106 42z"/>
<path d="M1667 722 c-24 -26 -21 -68 5 -86 48 -34 101 -10 101 44 0 55 -70 82
-106 42z"/>
<path d="M1827 722 c-24 -26 -21 -68 5 -86 48 -34 101 -10 101 44 0 55 -70 82
-106 42z"/>
<path d="M1987 722 c-24 -26 -21 -68 5 -86 48 -34 101 -10 101 44 0 55 -70 82
-106 42z"/>
<path d="M2147 722 c-24 -26 -21 -68 5 -86 48 -34 101 -10 101 44 0 55 -70 82
-106 42z"/>
<path d="M2307 722 c-24 -26 -21 -68 5 -86 48 -34 101 -10 101 44 0 55 -70 82
-106 42z"/>
<path d="M2467 722 c-25 -28 -22 -69 7 -88 34 -21 67 -14 86 19 13 24 13 30 0
55 -20 34 -68 42 -93 14z"/>
<path d="M2627 722 c-24 -26 -21 -68 5 -86 48 -34 101 -10 101 44 0 55 -70 82
-106 42z"/>
<path d="M2787 722 c-24 -26 -21 -68 5 -86 48 -34 101 -10 101 44 0 55 -70 82
-106 42z"/>
<path d="M2947 722 c-24 -26 -21 -68 5 -86 48 -34 101 -10 101 44 0 55 -70 82
-106 42z"/>
<path d="M3107 722 c-24 -26 -21 -68 5 -86 48 -34 101 -10 101 44 0 55 -70 82
-106 42z"/>
<path d="M3267 722 c-24 -26 -21 -68 5 -86 48 -34 101 -10 101 44 0 55 -70 82
-106 42z"/>
</g>
</svg>
