<?xml version="1.0" standalone="no"?>
<!DOCTYPE svg PUBLIC "-//W3C//DTD SVG 20010904//EN"
 "http://www.w3.org/TR/2001/REC-SVG-20010904/DTD/svg10.dtd">
<svg version="1.0" xmlns="http://www.w3.org/2000/svg"
 width="512.000000pt" height="512.000000pt" viewBox="0 0 512.000000 512.000000"
 preserveAspectRatio="xMidYMid meet">

<g transform="translate(0.000000,512.000000) scale(0.100000,-0.100000)"
fill="#b72d2f" stroke="none">
<path d="M1809 4816 c-103 -28 -190 -103 -238 -205 -24 -53 -26 -67 -29 -233
l-4 -178 -748 0 -749 0 -20 -26 c-18 -23 -21 -41 -21 -139 0 -135 9 -152 85
-166 84 -16 118 -50 134 -133 5 -25 16 -55 25 -65 14 -15 16 -51 16 -269 l0
-252 -75 0 c-42 0 -90 -6 -109 -14 -65 -27 -66 -33 -66 -308 l0 -248 29 -32
c29 -32 31 -33 125 -36 l96 -4 0 -304 c0 -291 1 -305 20 -324 25 -25 71 -26
101 -1 l24 19 3 306 3 306 2154 0 2155 0 0 -299 c0 -287 1 -299 21 -325 28
-36 80 -36 108 0 20 26 21 38 21 325 l0 299 80 0 c93 0 132 15 155 60 22 43
22 467 -1 515 -22 47 -66 65 -158 65 l-76 0 0 254 c0 204 3 260 15 283 8 15
17 44 20 64 10 66 72 119 140 119 14 0 37 11 50 25 24 23 25 30 25 138 0 100
-3 117 -21 141 l-20 26 -654 0 -654 0 -20 -26 c-12 -15 -21 -33 -21 -40 0 -26
23 -62 47 -73 17 -8 201 -11 608 -11 574 0 585 0 585 -20 0 -13 -14 -25 -44
-38 -62 -28 -118 -82 -146 -141 l-23 -51 -588 0 -588 0 -3 378 -3 377 -26 55
c-39 82 -99 144 -177 182 l-67 33 -725 2 c-554 1 -736 -1 -771 -11z m1491
-157 c60 -27 79 -45 106 -104 l24 -50 0 -451 0 -452 -28 -53 c-20 -39 -41 -62
-77 -84 l-48 -30 -717 0 -717 0 -48 30 c-36 22 -57 45 -77 84 l-28 53 0 452
c0 432 1 453 21 496 27 60 45 79 104 106 l50 24 695 0 c677 0 696 -1 740 -21z
m-1760 -833 c0 -196 2 -232 20 -287 26 -81 76 -149 143 -194 99 -65 95 -65
857 -65 762 0 758 0 857 65 29 20 69 56 88 83 35 47 75 153 75 198 l0 24 570
0 570 0 0 -250 0 -250 -2155 0 -2155 0 0 250 0 250 465 0 466 0 24 25 c14 13
25 36 25 50 0 14 -11 37 -25 50 l-24 25 -489 0 -489 0 -19 43 c-27 60 -85 119
-143 147 -34 16 -51 30 -51 42 0 17 28 18 695 18 l695 0 0 -224z m3430 -996
l0 -170 -2405 0 -2405 0 0 170 0 170 2405 0 2405 0 0 -170z"/>
<path d="M1973 4508 c-32 -34 -30 -81 3 -107 20 -16 41 -21 83 -21 l56 0 49
-232 c78 -378 66 -368 451 -368 273 0 301 4 353 53 33 31 42 49 128 277 87
230 91 262 34 313 l-30 27 -355 0 c-342 0 -356 -1 -375 -20 -25 -25 -26 -71
-1 -101 l19 -24 310 -3 310 -3 -65 -172 c-36 -95 -70 -178 -76 -184 -7 -10
-70 -13 -253 -13 -244 0 -244 0 -254 23 -5 12 -30 123 -55 247 -26 124 -54
238 -63 254 -32 56 -65 71 -160 74 -81 4 -89 2 -109 -20z"/>
<path d="M2364 3710 c-26 -10 -54 -48 -54 -71 0 -9 9 -28 21 -43 17 -21 29
-26 65 -26 53 0 84 26 84 69 0 56 -62 94 -116 71z"/>
<path d="M2683 3710 c-45 -18 -57 -86 -23 -120 31 -31 102 -28 129 6 27 34 26
57 -1 88 -26 29 -72 40 -105 26z"/>
<path d="M2055 2016 c-39 -17 -70 -52 -90 -98 -13 -33 -15 -130 -15 -758 l0
-720 -770 0 -770 0 -2 611 -3 611 -28 24 c-34 29 -56 30 -91 3 l-26 -20 0
-656 0 -655 34 -34 34 -34 2232 0 2232 0 34 34 34 34 0 655 0 656 -26 20 c-35
27 -57 26 -91 -3 l-28 -24 -3 -611 -2 -611 -770 0 -770 0 0 723 c0 681 -1 724
-19 762 -21 46 -54 79 -94 94 -45 17 -963 14 -1002 -3z m963 -858 l2 -718
-460 0 -460 0 0 713 c0 393 3 717 7 720 3 4 209 6 457 5 l451 -3 3 -717z"/>
<path d="M2157 1212 c-24 -26 -22 -85 4 -108 15 -14 36 -19 79 -19 73 0 100
21 100 75 0 54 -23 70 -102 70 -50 0 -69 -4 -81 -18z"/>
<path d="M609 1847 c-18 -12 -44 -38 -57 -57 l-23 -34 3 -462 c3 -452 3 -463
24 -491 12 -15 36 -37 55 -48 33 -19 55 -20 517 -23 500 -3 536 0 586 39 62
49 61 40 61 535 l0 450 -27 41 c-49 75 -34 73 -601 73 l-504 0 -34 -23z m1011
-547 l0 -420 -470 0 -470 0 0 420 0 420 470 0 470 0 0 -420z"/>
<path d="M3431 1853 c-18 -9 -45 -34 -60 -57 l-26 -40 0 -450 c0 -495 -1 -486
61 -535 50 -39 86 -42 586 -39 462 3 484 4 517 23 19 11 43 33 55 48 21 28 21
39 24 491 l3 462 -23 34 c-13 19 -39 45 -57 57 l-34 23 -506 0 c-450 0 -510
-2 -540 -17z m1009 -553 l0 -420 -470 0 -470 0 0 420 0 420 470 0 470 0 0
-420z"/>
</g>
</svg>
